<?xml version="1.0" encoding="utf-8"?>
<!-- Generator: Adobe Illustrator 22.0.0, SVG Export Plug-In . SVG Version: 6.00 Build 0)  -->
<svg version="1.1" id="Calque_1" xmlns="http://www.w3.org/2000/svg" xmlns:xlink="http://www.w3.org/1999/xlink" x="0px" y="0px"
	 viewBox="0 0 631.2 425.2" style="enable-background:new 0 0 631.2 425.2;" xml:space="preserve">
<style type="text/css">
	.st0{clip-path:url(#SVGID_2_);}
	.st1{fill:none;stroke:#5D5D5C;stroke-width:0.4454;stroke-miterlimit:10;}
	.st2{fill:none;}
	.st3{fill:#8DD8F8;stroke:#02A7E4;stroke-width:0.4454;stroke-miterlimit:10;}
	.st4{fill:#C31622;}
	.st5{fill:#FFFFFF;}
	.st6{fill:#6A6A69;}
	.st7{fill:#FFFFFF;stroke:#939393;stroke-width:0.5;}
	.st8{fill:none;stroke:#000000;stroke-width:0.25;}
	.st9{fill:#3A3A3A;}
	.st10{font-family:'HelveticaNeue-Thin';}
	.st11{font-size:15px;}
</style>
<g id="fond_JPG">
	<g>
		<g>
			<defs>
				<rect id="SVGID_1_" x="0" y="0" width="631.2" height="425.2"/>
			</defs>
			<clipPath id="SVGID_2_">
				<use xlink:href="#SVGID_1_"  style="overflow:visible;"/>
			</clipPath>
			<g transform="matrix(1 0 0 1 -1.907349e-06 -1.907349e-06)" class="st0">
				
					<image style="overflow:visible;enable-background:new    ;" width="2879" height="2029" xlink:href="89430B0FCAFE2ABC.jpeg"  transform="matrix(0.24 0 0 0.24 -29.8262 -30.9409)">
				</image>
			</g>
		</g>
	</g>
</g>
<g id="map-borders">
	<path class="st1" d="M390.5,40.1c0,0,1.9-0.3,2.2,0l-0.2-0.2c-0.3-0.4-0.6-0.7-0.8-1.1c-0.7-1.4-1.4-2.4-2.3-4.2
		c-0.9-1.7,0.9-1.8,1.3-3.5c0.4-1.6-2.2-0.8-4-0.9s-2.9-2.8-3.9-3.9c-1-1.1-2.5-0.8-4.4,1.3c-1.8,2.1-0.8,3.2,1.6,4.2
		c2.4,0.9,2.5,2.1,2.7,3.6c0,0.2,0,0.3-0.1,0.4L383,36c0,0,2.1,1.1,3.4,1.5C387.6,37.8,390.5,40.1,390.5,40.1z"/>
	<path class="st1" d="M485.9,80.4c-0.3,1.1-1,0-2.2,1.3c-0.3,0.4-0.6,0.7-0.8,1c0.2,0.7,0.5,1.4,0.8,1.7c0.6,0.7,1.4,1.1,2.3,0.4
		C486.7,84.1,487.9,82,485.9,80.4z"/>
	<path class="st1" d="M481.6,84.4c-0.4,0.2-3.6,0.4-4.2,1.9c-0.7,1.5-1,3.4-1.8,4.7c0,0,0,0.1-0.1,0.1c0.7,0.2,1.6,0.3,2.7-0.2
		c2.6-1.2,4.9-1.4,4.8-3c-0.1-1.1-0.6-2.6-1.2-3.6C481.8,84.3,481.7,84.4,481.6,84.4z"/>
	<path class="st1" d="M485.9,80.4c0-0.1,0-0.2,0.1-0.3c0.2-1.6-3.3-2.4-4.4-2c-1,0.4-4.1-2.8-3.9-0.1c0.2,2.6-0.8,3.6-2.7,3.4
		s-3.7,1.3-4.4,2.4c-0.7,1-6.2-1.5-5.7,1c0.4,2.5-0.4,2.5-1.5,3.3c-1.1,0.7-4.2,0.6-5.6-0.6c-1.5-1.2-0.7,0.7-1.1,1.6
		c-0.4,0.9-1.3,1.6-4,1.3c-2.7-0.3-7.4-1.2-8.4-1.2c-1,0-3.6,0.4-3.6,0.4s-1.2-0.4-1.1,1.5c0.1,1.9-0.7,2.2-1.6,3.2
		c-0.8,1,0.3,2.7-1,3.9c-1.3,1.3-2.6,1.2-0.7,2.6c1.9,1.4,2.5,1.3,1.3,3.1s-1.1,2.4,0.7,4.8c1.8,2.3,2,3,0,3.7c-2,0.7-1.8,2.2,0.6,3
		c2.4,0.7,4.4,1.8,6.1,0.6c1.7-1.2,1.9-0.1,2.8,0.9c1,1,4.3,4.3,5,3.6c0.4-0.4,0.9-0.5,1.1-1c0.2-0.3,0.3-0.9,0.1-1.9
		c-0.4-2.4-1.6-5.1-2.2-6.1c-0.6-1-1.1-1.8-1.9-2.1c-0.7-0.3-0.7-0.4-0.2-2s-0.4-3.2,1.9-3.7c2.2-0.5,3.2-1,3.3-2.9
		c0.1-1.9,1.3-2.7,1.5-4.4c0.1-1.6-1.2-2.5,0.3-3c1.5-0.4,5.4,0.9,5.9,1.3c0.5,0.4,3.4,1.9,4.8,3c1.4,1.2,4.1,1.9,5.7,1.5
		c0.9-0.2,1.6-0.2,2-0.5c0.3-0.2,0.3-0.7,0-1.6c-0.6-2.1-0.7-4.8,0.1-6.1c0,0,0-0.1,0.1-0.1c0.9-1.3,1.2-3.2,1.8-4.7
		c0.7-1.5,3.8-1.6,4.2-1.9c0.1,0,0.1-0.1,0.2-0.1c0.3-0.3,0.6-0.8,1.1-1.6c0.2-0.3,0.5-0.6,0.8-1C484.9,80.4,485.6,81.5,485.9,80.4z
		"/>
	<path class="st1" d="M427.8,321.5c-3.2-2.1-2.7-1.7-3-3.8s0.2-6-1.1-7.5c-1.3-1.6-2.8-1.2-2.6-4.2c0.3-3,2-2,2-3.8
		c0-1.8-0.3-6.4,1.1-7.7c1.3-1.3,1.9-2.4,1.8-4.4c-0.2-2-0.4-5,0.2-6.7c0.6-1.7,1.1-3.1,0.1-4.1s-1.9-1.8-0.7-3.3
		c1.2-1.4,0.8-3,0.6-4.8c-0.2-1.8-0.2-1.9-1.4-3c-1.2-1-1.5-1.4-2.5-0.7c-1.1,0.7-1.8,1-2.9-0.1c-1.2-1.1-2.2-2.1-2.7-4.2
		c-0.5-2-0.3-2.2-1.1-4c-0.8-1.9,0.3-4.2,0.7-5c0.4-0.8,1.4-3.3,1.5-4.5c0.1-1.2-0.8-2.1-1.4-3.1c-0.7-1.1-1.8-2.3-2.4-2.7
		c-0.5-0.4-1.1-0.6-2.6-0.2c-1.5,0.3-3.3,1-3.3-0.8c0-1.7-0.1-3.7-1.7-2.4c-1.6,1.3-1.2,1.5-3.5,1c-2.3-0.5-2.9-0.7-3.5,0.4
		c-0.6,1.1-0.3,1.6,0.4,2.4c0.7,0.8,1.4,1.5,1.2,3.2c-0.3,1.7-0.6,1.4-1.8,2c-1.2,0.6-3.5,2.1-5,2.6c-1.4,0.5-4.3,0.9-6.7,0.8
		c-2.5-0.1-3.1,0.5-4.8-0.6c-1.7-1.2-1.9-1.1-5-1.4c-3.1-0.4-5.9-0.2-6.4-0.4c-0.1,0-0.2-0.2-0.3-0.4c-1.1,0.8-2.7,2.1-3.3,2.6
		c-0.8,0.7-1.7,1.7-2.3,1.1c-0.6-0.6-0.6-0.5-1.2-1c-0.7-0.6-0.9-1.2-1.9-1.1c-1,0.1-1.4-0.2-2.1-0.4c-0.6-0.1-1.2-0.1-2.3-1
		c-1.1-0.9-5.3,0-6.7,0s-1.6,0.3-1.6,1.1c0,0.9-1.1,4.7-1.2,6c-0.1,1.3-3.1,1.8-3.5,2.1c-0.2,0.2-0.8,0.6-1.3,1
		c-0.3,0.3-0.6,0.6-0.7,0.9c-0.3,0.7-0.7,1.5-1.5,3.3c-0.7,1.8-2.3,2.6-3.7,3s-2.4,0.4-3.5,0.5c-1.1,0.1-0.9,0.3-0.9,1.4
		c-0.1,1.1-0.1,2.8-0.1,4.4s0.3,2,0.3,2c2-0.9,3.8-1.8,4.7-2.2c1.6-0.8,3.2,1.2,4.1,2.3c0.9,1.1,0.4,4.8,0.7,5.6s-0.1,6.3,0.3,8.7
		c0.4,2.4,0.7,4.9,0,8c-0.7,3.1-2.8,4.6-3.6,6.3c-0.8,1.7,1.2,3.1,2.2,5.2c1.1,2.1,0.8,1.9,0.4,3.9c-0.4,1.9,0.1,1.5,1.2,2.6
		c1.1,1.1,3.7,3.5,6.5,4.1c2.8,0.6,2.7,1,3.4,2.2c0.7,1.2,3.4,5,4.5,6.8s1.7,2.9,3.4,3.9c1.7,0.9,2.2,2.2,3.1,3.5
		c0.9,1.3,2.1,1.9,3.3,1.9c1.3,0.1,2.7-0.3,4,0.9c1.3,1.2,2.8,2.8,5,3.2c2.2,0.4,3.2-1.6,3.8-2.8c0.6-1.2,2.6,0,3.8,2.1
		c1.2,2.1,3.6,0.9,5.8,1.1c2.2,0.2,3.8,2.2,5.8,3.7s1.3,2.6,0.4,4.4c-0.9,1.8-4.7,5.1-6.1,6.7c-1.3,1.6-0.9,2.7-0.7,5.3
		s1.9,1.3,3,1.6c1.1,0.3,1.7,0.5,2.8,2.3c1.1,1.8,2.6,3,4.5,3.2c1.9,0.2,2.6,0.4,2.3,3.1c-0.3,2.6,0.8,3,2.8,4.6
		c1.9,1.7,2.4,5,3,7.6c0.6,2.6-0.6,3.6-1.7,4.4c-1.1,0.8-1.2,1.7-0.8,2.8c0.4,1.1,1.7,1.6,2.9,0.8s2.7-0.4,3.8-0.1
		c1.1,0.3,4.5,2,7.4,2.4c3,0.4,2.5-2.2,2.8-3.7s1.4-4,1.8-6.1c0.4-2.1,3.1-4,4.5-5.1c1.3-1.1-1.4-2.3-2.7-3.8
		c-1.3-1.6-2.9-2.3-5.1-2.7c-2.2-0.4-2.1-2.9-3.2-5.4c-1.1-2.5-3.2-0.9-4.3,0.6s-1.7,0.3-1.7-0.7c-0.1-0.9,0.5-2.6,1.6-3.5
		c1.1-0.9,4.1-3.1,6-4c1.9-0.9,0.6-2.7-0.1-4c-0.7-1.3-0.9-2.1-1.1-4.1c-0.2-2,1.1-3.3,2.1-3.9c0.9-0.6,3.6-1.4,5.3-1.9
		c1.7-0.4,1.1-1.8,1.6-3.9c0.6-2.1-0.2-3.5-1-4.7c-0.8-1.3,0.2-2.1,0.7-2.9c0.6-0.8,3.5-2.5,5.1-4c1-0.9,2-1.9,3.4-2.7l0.3-0.2
		c0,0-1.7-1.8-2.2-2.3C433,326.4,431,323.6,427.8,321.5z"/>
	<path class="st1" d="M474,58.1c-2.8-1.6-5.7-3.3-6.4-3.6c-1.3-0.6-16.5-9.6-17.6-10.3s-5-2.6-7.4-3.7c0,0-0.1,0-0.1,0
		c-0.8-0.2-1.6-0.3-2.4-0.5c-0.3,0-0.6-0.1-0.9-0.2c-2.2-0.2-4.7,0-6.1,0.2c-2.2,0.3-5-0.7-6.5-1.3c-1.5-0.6-6-1.5-10.5-2.4
		c-4.6-0.9-10.3,1.9-11.9,2.5c-1.6,0.6-5,2.5-7.3,3c-1.8,0.3-3.3-0.6-4.3-1.6c-0.3-0.3-2.2,0-2.2,0s-2.9-2.3-4.2-2.6
		c-1.3-0.3-3.4-1.5-3.4-1.5c-0.5,0.7-3.4-0.7-4.2-0.9c-0.9-0.3-4.3-0.2-5.1-2.5c-0.8-2.3-2.5-1.4-2.3,0.7c0.2,2.1-1.6-0.1-3.2,0.9
		c-1.2,0.8-1.5,1-2.1,0.6c0,0-1.7,1.9-0.3,4.1c1.3,2.2,2.2,3,4.8,3.8c2.7,0.8,5.3,0.4,6.8-0.3c1.6-0.7,2.5-1.7,2.4-2.7
		c-0.1-1,2.4-1.9,3.9,0.2c1.6,2.1,2.7,4.4,1.3,6.3c-1.3,1.9-2.7,4.4-4.5,2.8s-4.3-2.5-6-1.3c-1.7,1.1,0.4,3,1.6,4.2
		c1.2,1.3,3.6,2.1,6.6,3.1c3,1,4.3,1,4.2,2.2c-0.1,1.2-0.1,2.1-0.2,3.2c-0.1,1.1-1.2,3.1,1.5,3.1c2.7,0,3.8,0.7,5.5,1.9
		c1.7,1.1,2.3,3.3,2.3,5.1c0,1.9-2.4,2.2-1.4,6.2c1,4.1,1.7,3.9,3,5c1.3,1.1,2.1,2.1,1.3,3.3c-0.7,1.2-1.5,4.5,0.5,5.7
		c1.5,0.9,2.7,2.8,3.9,4.4c-0.1-0.5,0.2-0.8,0.8-1.2c1.5-0.8,1.5-1.1,1.1-2.1s-0.6-2.1,0.8-2.9c1.4-0.9,1.3-0.3,1.6-2.6
		c0.3-2.3,1.1-3.2,2.8-3.1c1.7,0.1,4-0.3,3.4-3.5c-0.6-3.2-2.3-2.5-2.4-4.8c-0.1-2.3,0.2-2.4,2.2-2.7c1.9-0.3,5.9-1.7,6.6-0.6
		c0.7,1.1,0.4,1.8,2.1,1.8c1.6-0.1,4.2,0.8,4.8-0.7c0.6-1.5,2.1-4.1,4.1-2.4c1.9,1.6,2.6,1.5,3.3,0.7c0.7-0.8,0.6,0.2,2.3,0.7
		c1.7,0.6,2.6,0.9,3.2,2.2c0.7,1.3,1.5,1.3,2.4,0.2c0.9-1.1,0.1-1.3,2.9-0.8c2.8,0.5,3.3-0.9,3.8-1.9c0.5-0.9-2.2-0.5-1.4-2.2
		c0.8-1.7-1.2-2.7-1.7-1.8c-0.6,0.9-2.6-1.1,0-2.2c2.6-1.2,5.6-2.2,6.1-0.3c0.5,1.9-0.5,3,0.3,4c0.8,0.9,1.1-0.3,2-0.6
		c0.9-0.3,2.6,0.3,1.8,1.4c-0.8,1.1-0.7,2.1,1.4,2.2c2.2,0.2,7-2.4,7.6-3.2c0,0,6.2-6.3,6.6-7l2.7-3.3L474,58.1z"/>
	<path class="st1" d="M495.7,85.8c-1.3-1.7-0.7-4.5-0.5-6.4c0.2-1.9-2.4-2.9-3.7-3.7s-6.5-3.2-7.6-4.6c-1.1-1.4-1.5-5.8-1.7-7.3
		c-0.2-1.4-1.7-1.9-3-2.7c-0.6-0.4-2.2-1.3-4.5-2.7l-2.7,3.3c-0.4,0.7-6.6,7-6.6,7c-0.6,0.8-5.5,3.4-7.6,3.2
		c-2.2-0.2-2.2-1.1-1.4-2.2c0.8-1.1-0.9-1.8-1.8-1.4c-0.9,0.3-1.2,1.6-2,0.6c-0.8-0.9,0.2-2.1-0.3-4c-0.5-1.9-3.5-0.8-6.1,0.3
		c-2.6,1.2-0.6,3.1,0,2.2c0.6-0.9,2.6,0.2,1.7,1.8c-0.8,1.7,1.9,1.2,1.4,2.2c-0.5,0.9-0.9,2.4-3.8,1.9c-2.8-0.5-1.9-0.3-2.9,0.8
		c-0.9,1.1-1.8,1.1-2.4-0.2c-0.7-1.3-1.5-1.6-3.2-2.2c-1.7-0.6-1.6-1.6-2.3-0.7c-0.7,0.8-1.4,0.9-3.3-0.7c-1.9-1.6-3.5,0.9-4.1,2.4
		c-0.6,1.5-3.2,0.6-4.8,0.7c-1.6,0.1-1.4-0.7-2.1-1.8c-0.7-1.1-4.6,0.3-6.6,0.6c-1.9,0.3-2.3,0.4-2.2,2.7c0.1,2.3,1.8,1.6,2.4,4.8
		c0.6,3.2-1.7,3.6-3.4,3.5c-1.7-0.1-2.6,0.8-2.8,3.1c-0.3,2.3-0.2,1.7-1.6,2.6c-1.4,0.9-1.2,1.9-0.8,2.9c0.4,1.1,0.4,1.3-1.1,2.1
		c-0.7,0.4-0.9,0.7-0.8,1.2c0.1,0.6,0.5,1.3,1.1,2.6c0.9,2.4,2.9,5.9,2.7,9.2c-0.2,3.3-1.9,2.4-3.6,3.3c-1.6,0.8-0.6,4.6-1.7,6.6
		s-3.5,3.2-5.8,2.1c-2.3-1.1-2.7-0.7-4.1,1.4c-1.4,2.1-3.3,1.2-4.6,0.7c-1.3-0.5-2.7-1.3-3.7,0c-0.7,0.9,0.8,2.8,1.4,4.2l0.1,1.3
		c0,0,2,0.5,3.4,1c1.5,0.5,1.2,0.5,2.9,0.1c1.7-0.4,2.8-1.6,4.9-1.1c2,0.4,3.7,0.2,4.9-0.3c1.3-0.4,4.9-1.1,5.9,0.9
		c0.8,1.4,1.5,3.1,2,4.2c0.2-0.2,0.5,0.1,0.7,0.7c0.3,1.1,4,3.6,5.7,6.2c1.7,2.6,4.8,3.5,6.7,4.3c1.9,0.8,6,0.4,8.5,0.7
		c2.5,0.3,2.7,1.2,3.2,2.5c0.4,1.3,1.5,4.2,1.7,6.8c0.2,2.5-1.2,3.3-3.6,4.6c-2.4,1.3-2.2,1.3-1.1,3.3c1.1,2.1,4.8,1.3,6.2,1
		c1.4-0.3,3-1.3,5.1,3.6c2.1,4.8,1.8,8.4,0.8,10.5c-1,2.2-1.1,2.2,0,3.3c1.1,1.2,1.2,1.7,0.7,4c0,0.3-0.1,0.6-0.1,0.9
		c0.2,0.1,0.4,0.4,0.7,0.8c0.7,0.9,1.9,1.4,4.3,1.5c2.4,0,7.2,0.7,9.4,0.9c2.2,0.2,3.7,1,5.9,2c2.2,1,5,2.1,5.8,2.4s2.3-0.8,3-2.2
		c0.6-1.4,0.9-2.2,0.9-3.8c0-1.6,0.5-3.7,2-6.2c1.5-2.5,3.2-6,4.8-6.3c1.6-0.3,2.4-0.3,1.7-2c-0.7-1.7-3.1-3.9-3.8-5.5
		c-0.7-1.6-1.6-3.4-2-4.5c-0.4-1.1-1.1-2.7-1.1-2.7l-0.1-1.2l-0.3-0.1c-0.3-0.2-0.5-0.5-0.7-1c-0.4-1.4,0.6-2.8,1.6-4
		c0.9-1.1,2.2-4,2.7-6.5c0.6-2.4-0.9-6-2.4-8.8c-1.6-2.8-0.7-6.6-0.5-9.5s1.9-5.1,2.7-6.1c0.7-1.1,1.4-1.6,1.2-4.3
		c-0.2-2.8,2-5.5,2.7-6.6c0.7-1.1,3.5-3.7,5-5.2c1.5-1.5,1.8-4.6,2.6-6.6c0.8-2,3.8-3.8,6.5-5.3C499,91.5,497,87.5,495.7,85.8z"/>
	<path class="st1" d="M365.6,34.5C365.5,34.4,365.4,34.3,365.6,34.5C365.6,34.5,365.6,34.5,365.6,34.5z"/>
	<path class="st1" d="M358.3,38.5c0.2-0.9,1-1.5,2.3-2.7c1.3-1.2,2.2-1.2,3.1-1.2c0.9,0,2.2,0.2,1.9-0.1c-1.1-0.8-0.9-1.4-0.5-2.7
		c0.4-1.3,3.6-1.7,5.4-1.4c1.8,0.3,2.3-1.2,1.2-3c-1.2-1.8-0.4-2.6,0.8-3.8c1.2-1.3,0.7-2.1,0-2.4c-0.7-0.4-2.4-1.9-4-0.9
		c-1.5,1-1.3-0.9-1.6-2.7c-0.3-1.7-2.6-2.4-3.9-2.8s-0.7,1.6-0.9,4.1c-0.2,2.5-1.3,2.7-2.3,1.8c-1-0.8-0.8-3.2-0.7-5.7
		c0.1-2.5-1.5-2.2-4.5-2.5c-3-0.3-4,1.1-4.1,2.2c-0.1,1.1-1.1,2.1-2.2,3.3c-1.1,1.2-4.1,1.8-6.1,1.9c-2,0.1-1.7,1.1-2.1,2
		c-0.4,0.9-1.8,3.2-3.3,5.9s-3.2,3-4.6,4.5c-1.4,1.5-1.2,2.6-0.7,4.6c0.5,2.1,0.8,2.8,2.9,3.7c2.1,0.8,3.6,1.9,4.8,3.1
		s4.3,0.2,6.2,0.3c1.9,0.1,2.2-1.3,3.4-3.4c1.2-2.1,2.1-1.7,3.1-0.7c0.9,1,2.3,0.8,3.8-0.2c1.3-0.9,1.6-0.9,2.4,0
		C357.9,39.3,358.1,39.3,358.3,38.5z"/>
	<path class="st1" d="M344.9,56c1.2,0.1,2.6,0.7,2.9,0.2c0.4-0.4,1.3-1.4,2.2-2.2c0.8-0.8,1.5-2.1,1.7-2.3c0.3-0.3,0.9-1.4,0.9-1.4
		c-0.4-0.7-0.5-1.1-1.3-2.1c-1.4-1.6-4.8-1.4-5.6-0.6c-0.8,0.9-1.4,1.1-2.3,1.7c-0.9,0.6-3.2,1.8-4.9,2.8c-1.7,1-0.3,2.9,0.9,2.9
		c1.2,0,2.5-0.3,2.8,0.4c0.1,0.3,0.3,0.3,0,0.6C342.2,56,343.7,55.9,344.9,56z"/>
	<path class="st1" d="M404.5,97.9c-0.5-1.3-1-2.1-1.1-2.6c-1.1-1.5-2.4-3.5-3.9-4.4c-2-1.2-1.3-4.5-0.5-5.7c0.7-1.2-0.1-2.2-1.3-3.3
		c-1.3-1.1-1.9-1-3-5c-1-4.1,1.4-4.4,1.4-6.2c0-1.9-0.6-4-2.3-5.1c-1.7-1.1-2.8-1.9-5.5-1.9c-2.7,0-1.6-2-1.5-3.1
		c0.1-1.1,0.1-2,0.2-3.2c0.1-1.2-1.2-1.2-4.2-2.2c-3-1-5.4-1.9-6.6-3.1c-1.2-1.3-3.3-3.1-1.6-4.2c1.7-1.1,4.2-0.2,6,1.3
		s3.2-0.9,4.5-2.8c1.3-1.9,0.2-4.2-1.3-6.3c-1.6-2.1-4-1.3-3.9-0.2s-0.9,2.1-2.4,2.7c-1.6,0.7-4.2,1.1-6.8,0.3
		c-2.7-0.8-3.5-1.6-4.8-3.8s0.3-4.1,0.3-4.1l-0.6-0.4c0,0,0,0-0.1,0c0.3,0.3-0.9,0.1-1.9,0.1c-0.9,0-1.8,0-3.1,1.2
		c-1.3,1.2-2.1,1.9-2.3,2.7s-0.4,0.9-0.4,0.9l0.4,0.4c0.1,0.1,0.2,0.2,0.3,0.3c0.9,1.1,1.3,1.8,1.3,2.8c0,0.9-1.2,0.8-2.7-0.6
		c-1.5-1.4-1.5,1.1-0.9,2.4c0.6,1.4,0.1,1.9,0.3,4.4c0.2,2.5-1.6,3.7-2.8,2.8c-0.5-0.4-0.8-0.8-1.1-1.3l-0.2-0.4
		c0,0-0.6,1.2-0.9,1.4c-0.3,0.3-0.9,1.5-1.7,2.3c-0.8,0.8-1.8,1.8-2.2,2.2c-0.4,0.4-1.7-0.1-2.9-0.2c-1.2-0.1-2.7,0-2.7,0l-0.3,0.3
		c-0.4,0.3-1,0.6-1.9,0.9c-0.8,0.3-2.4,0.4-4.1,0.3l-1.3,1.9c0,0-0.9,1.7-1.5,2.5c-0.6,0.9-4,5.5-4.8,6.6c-0.8,1.1-2.3,0.4-2.9,1.3
		c-0.6,0.9,0.6,2,0.6,3.5c0,1.5,0.3,3,1.4,4.6c1.1,1.7,1.7,6,2.1,8c0.4,2-1,3.1-2.5,4.3c-1.5,1.3,0.6,1.6,1.9,1.6
		c1.2-0.1,1.2,0.2,1.3,1.9s2.4,2.2,2.7,3.6c0.3,1.4,1.5,3.7,3,5.8c1.5,2.1,0.6,5.2-0.1,6.6c-0.7,1.4-1.7,1.8-2.9,2.2s-2,0.2-2.3,1
		c-0.3,0.8,1.2,4.2,1.8,5.8c0.2,0.7,0.7,1.6,1.3,2.5c0.8,1.4,1.7,2.8,2.4,3.7c1.1,1.6,2.6,1.4,3.2,1.2s1.7-0.7,2.9,0.2
		s3.5,0.1,4.8-0.3c1.3-0.4,6.8-2,7.9-1.6c1.1,0.4,2.3,1.6,3.9,3.5c1.7,1.9,2.1,2.2,1.7,3.8c-0.3,1.6,0.5,1.7,1.6,2.2
		c1.2,0.5,2.6,0.4,3,2.2c0.4,1.7,0.7,1.7,3.5,0.5c0.2-0.1,0.4-0.1,0.6-0.2c-0.2-0.3-0.3-0.6-0.5-1c-1-1.8-0.3-3.1,0.5-4.4
		c0.8-1.3,4.6-4.2,9.1-3.2c4.6,1.1,6-0.4,7-1.3l-0.1-1.3c-0.6-1.3-2.2-3.2-1.4-4.2c1.1-1.3,2.5-0.5,3.7,0c1.3,0.5,3.2,1.4,4.6-0.7
		c1.4-2.1,1.8-2.5,4.1-1.4c2.3,1.1,4.8-0.1,5.8-2.1c1.1-2,0.1-5.8,1.7-6.6c1.6-0.8,3.4,0,3.6-3.3
		C407.4,103.8,405.5,100.3,404.5,97.9z"/>
	<path class="st1" d="M220.4,60.3c-0.2,0.4-1,0.8-0.7,1.7s1.8,0.7,1.3,2c-0.5,1.3,5,3.2,5.1,4c0.1,0.8,2.3,0.2,2.7-1.4
		c0.5-1.6,1.5-2.4,2-2.7c0.5-0.3,1.9-0.6,1.9-0.6c-0.2-0.5-0.1-0.7-0.1-0.9c0-0.4,4.1-1.1,5.7-1.5s1.3-2.6,1.1-4.9
		c-0.2-2.3-1.8-3.2-3.9-2.6c-2.1,0.6-3.7,1.2-4.7,2.9c-1.1,1.7-2.3,1.7-3.8,2.2c-1.2,0.4-3.5,0.4-5.4,0.5
		C221.5,59.1,220.6,59.8,220.4,60.3z"/>
	<path class="st1" d="M206.6,80.1c0.6,0.8,1.3,1.7,2.9,0.9s2.6-0.2,4.8-0.7c2.2-0.4,3.8-0.2,3-2.4c-0.8-2.2,0-2.7,0.2-4.2
		c0.2-1.5-1.8-2.5-2.2-2c0,0,0,0,0,0c-0.2,0.3,0,0.5-0.7,0.9c-1.1,0.6-2.5,1.8-3.5,3c-0.9,1.2-3.4-0.4-4.9-1.3s-1.8-0.2-2.7,0.8
		c-0.9,0.9,0.1,1.3,1.1,2.1c1.1,0.7,1.2,0.8,0.8,1.6c-0.1,0.1-0.1,0.3-0.2,0.5C205.4,79.2,206.1,79.4,206.6,80.1z"/>
	<path class="st1" d="M207.3,86.7c-0.6,0.7-1.7,1.6-3.4,1.4s-3.6,0.5-5.2,1.2c-0.3,0.1-0.7,0.3-1.1,0.3c0.4,0.4,0.9,0.8,1.2,1.1
		c1,1,1.9,2.3,2.2,3.9c0.2,1.5,1.9,2,4.8,1.7c-0.4-1.3,0.2-2.7,0.9-4c0.7-1.4,2.9-0.9,4.5,0.6c1.6,1.6,1.6,0.5,3.5,0
		s1.7-1.9,1.8-3.5c0.1-1.6,3.7-2.1,4.8-0.8c1,1.3,1.2,0.1,2.1-1.5c0.9-1.6,2.2-1,4-2.2c1.9-1.3,1.4-2.5,1.5-3.4
		c0-0.9,0.6-1.9-0.4-2.7c-1-0.8-0.5-1-0.2-2.9s1.2-1.3,1.7-0.8c0.5,0.6,2.3,0.7,2.7-0.4c0.4-1.1,1.8-1.9,2.1-0.9
		c0.3,1,1.4,1.7,2.7,1.9c1.4,0.2,2.2,0.9,2.4,2.4c0.3,1.6-1.6,2.2-2.4,3.5c-0.9,1.3-1.1,5.2-1.3,6.7c-0.1,1.5-0.9,1.9-3.7,1.6
		c-2.9-0.3-2.1,0.6-2.3,2.1s1.4,5.1,2.1,5.8c0.7,0.7,3.7,0.8,7-0.3c3.3-1.2,4.3,0.8,5,2.9c0.7,2.1,3.3,1.4,5.7,2.6
		c2.4,1.2,1.4-1.3,2.3-2.7s2.2-2.4,6.2-4c4-1.6,3.2-3.5,3.8-5c0.6-1.5,2.3-1.4,3.1-0.8c0.8,0.6,0.8,1.5,2.4,0
		c1.6-1.5,2.4-1.4,4.3-2.1c1.9-0.7,0.8-2.8-0.1-3.9c-0.9-1.1-1.4-2.2-0.6-3.6c0.2-0.4,0.9-1.1,1.7-2c-0.4,0-0.8,0.1-1.1-0.1
		c-0.9-0.6-1.2-1.7-1.4-3c-0.1-1.3-1.9-0.9-3.1-1.2c-1.2-0.2-2.4-1.6-2.8-2.1c-0.4-0.6-2.6-2.9-2.6-3.7c-0.1-0.8,0.1-1.1-1.1-1.7
		c-1.2-0.6-2.7-1.2-3.3-1.2c-0.6,0-0.6,0.9-1.1,2.4c-0.5,1.5-2.7,2.6-3.2,3.6c-0.4,1-0.8,0.5-1.9-0.4c-1.1-0.9-1.1-1.7-0.7-3.2
		s-1.2-1.8-2.1-3.2c-0.9-1.4-1.9-2.7-1.9-2.7h-0.2c-2.1,0.4-2.9,1.5-4.5,2.2c-2,0.8-6.1,0.4-7.7,0.1c-0.8-0.2-1.3-0.7-1.5-1.2
		l-0.1-0.4c0,0-1.3,0.3-1.9,0.6s-1.5,1.1-2,2.7c-0.5,1.6-2.6,2.1-2.7,1.4c-0.1-0.8-5.5-2.7-5.1-4s-1-1.1-1.3-2
		c-0.3-1,0.5-1.3,0.7-1.7c0.2-0.4,1-1.2,1-1.2l-0.5,0c-0.5,0-1,0.1-1.3,0.1c-1.3,0.3-6.7,1.9-8.6,4.1c-1.9,2.1,1,2.4,1.9,2.6
		s2.3-0.1,2.7,0.8c0.4,0.9,0.5,1.7-1,2.3c-1.5,0.6-0.9,0.9-0.1,1.9c0.3,0.4,0.5,0.5,0.6,0.7c0,0,0.1,0.1,0.1,0.2
		c0.4-0.6,2.4,0.5,2.2,2c-0.2,1.5-1,2.1-0.2,4.2c0.8,2.2-0.8,1.9-3,2.4c-2.2,0.4-3.2-0.1-4.8,0.7s-2.3-0.1-2.9-0.9s-1.3-0.9-1.3-0.9
		l-0.2,0.4c-0.3,0.9-0.6,1.9-1.3,3.1l-0.2,0.3c0,0,1.6,0.5,2.6,1.2C207.2,85,207.9,86,207.3,86.7z"/>
	<path class="st1" d="M193.8,88.9c0.3,0.9,2.3,1.1,3.8,0.8c0.4-0.1,0.8-0.2,1.1-0.3c1.6-0.7,3.5-1.3,5.2-1.2
		c1.7,0.1,2.8-0.8,3.4-1.4c0.6-0.7-0.1-1.7-1.1-2.4c-0.9-0.7-2.6-1.2-2.6-1.2c-0.8,1.4-4.3,2.4-5.8,3.6c-1.3,1.1-2.6,1.1-4.1,0.9
		c0,0-0.1,0-0.1,0C193.5,87.5,193.5,87.9,193.8,88.9z"/>
	<path class="st1" d="M331.8,124.9c0.4,1.8,0.6,2.7,0.4,5.1c-0.1,2.4,0.1,2,0.9,4.6c0.8,2.6,0,4.7,0.4,8.1c0,0,0,0,0,0
		c0.4,3.4,2.7,2.9,4.2,3.4c0.3,0.1,0.7,0.4,1.1,0.7c0.9-0.3,1.8-0.3,2.8,0.3c2.2,1.3,6.8,3,8.5,3c1.6,0.1,3.7,3.2,5.1,1.6
		c1.3-1.7,2.4-2.2,5-1.9s3.8-0.3,5.1-1.8c1.3-1.5,4.1-5.9,4.6-7.5c0.5-1.3,0-2.5-0.7-3.9c-0.2,0-0.4,0.1-0.6,0.2
		c-2.8,1.1-3.1,1.2-3.5-0.5c-0.4-1.7-1.9-1.7-3-2.2c-1.2-0.5-2-0.6-1.6-2.2c0.3-1.6-0.1-1.9-1.7-3.8c-1.7-1.9-2.8-3-3.9-3.5
		c-1.1-0.4-6.6,1.2-7.9,1.6c-1.3,0.4-3.6,1.2-4.8,0.3s-2.3-0.5-2.9-0.2s-2.1,0.4-3.2-1.2c-0.6-0.9-1.6-2.4-2.4-3.7
		C332.4,122.5,331.5,123.7,331.8,124.9z"/>
	<path class="st1" d="M409.4,131.5c-0.5-1.1-1.3-2.8-2-4.2c-1-2-4.7-1.3-5.9-0.9c-1.3,0.4-2.9,0.7-4.9,0.3s-3.2,0.7-4.9,1.1
		c-1.7,0.4-1.4,0.4-2.9-0.1c-1.5-0.5-3.4-1-3.4-1c-1,0.9-2.4,2.3-7,1.3c-4.6-1.1-8.4,1.8-9.1,3.2c-0.8,1.3-1.5,2.6-0.5,4.4
		c0.2,0.3,0.4,0.7,0.5,1c0.7,1.4,1.2,2.6,0.7,3.9c-0.6,1.6-3.3,6-4.6,7.5c-1.3,1.5-2.5,2.1-5.1,1.8s-3.7,0.3-5,1.9
		c-1.3,1.7-3.5-1.5-5.1-1.6c-1.6-0.1-6.3-1.7-8.5-3c-1-0.6-1.9-0.6-2.8-0.3c-1,0.3-2,0.9-3.2,1.3c-2.3,0.7-3,1.9-3.1,3.5
		c-0.1,1.5-2.1,3.7-0.8,5.6c1.3,1.9,4.7,1.7,7.1,2.2c2.3,0.5,5.6,2.6,6.7,4.2c1.1,1.6,1.3,2.2-0.6,4.5c-1.8,2.3-0.9,3.2-0.9,3.2v0
		c0.3,0.2,0.5,0.4,0.6,0.6c0.7,1,0.6,3.8,3.3,4.8c1.1,0.4,2.3,0.8,3.4,1.3c0.5-2.3,1.1-4,1.1-4.3c0-0.4,1.8-3.5,3.1-4.5
		c1.3-1,3.6-1,4.5,1.6c1,2.6-0.2,6.8,2.6,7.6c2.8,0.7,7.3-0.4,7.9,1.4c0.5,1.9,0.3,2.6,1,3.5c0.7,0.9,2.3,2.1,2.9,0.1
		c0.6-1.9,4.8-3.3,5.3-3.3c0.5,0,1.6,2.4,3,1.7c1.5-0.7,2.1-0.6,2.4-1.7c0.3-1.1,1-1.9,2.4-0.4c1.4,1.4,0.4,2.2,0,2.5
		c-0.4,0.3,0.3,1,1.2,1.8s1.2,2.2,1.3,4.4c0.1,2.2,1.6,3.9,2.6,2.4c1-1.5,7.7-5.1,8-5.4c0.2-0.2,1.5-1.5,2.1-2.1
		c0.5-0.6,1.6-1.3,2.4-1.9c0.9-0.8,1.2-1.3,0.7-2.6c-0.5-1.3,0.9-1.3,1.4-2.1c0.5-0.8-0.2-2.5-2.3-3.6c-2.1-1.1-1.4-0.8-1.8-2.4
		c-0.4-1.7-1.6-3.2-2.6-4.3c-0.9-1.2-1.7-1.8-2.4-1.6c-0.7,0.2-0.9-0.4-1.2-1.6c-0.2-1.2,0.9-1.6,1.2-1.9s1.3-1.6,2.7-0.8
		c1.3,0.7,1-0.1,1.7-1.1c0.7-0.9,3.1-4.2,3.4-5.5c0.3-1.3,0.7-1.8-0.5-2.4c-1.2-0.6-0.9-1.8,0.6-2.6c1.6-0.8,0.7-3.6,0.8-5.7
		s0.3-3.4,1.4-4.6s1.1-4.7,0.9-6.1C409.1,132,409.2,131.6,409.4,131.5z"/>
	<path class="st1" d="M397.5,203.8c2.6,0.3,3.4,0.6,4.3,2.2c0.9,1.6,1.4,2,3.3,1.3c1.9-0.8,2.5-1.6,4.3-1.6s3.8-1,4.9-2.5
		c1.1-1.5,3.3-4.4,3.6-6.8c0.3-2.4,0.7-4.7,2.8-4.7c2.1,0,3.1,0.4,3.6,1.4c0.5,1,1.3,3.4,2.5,2.6c1.2-0.8,4.2-1.8,4.9-3.1
		c0.6-1.3,1.4-2.2,3.2-2c1.9,0.2,3.4-0.6,4.5-1.7c1.1-1.2,3.5-4.1,4-4.7c0.3-0.3,0.5-0.4,0.8-0.3c0-0.3,0-0.7,0.1-0.9
		c0.4-2.3,0.4-2.8-0.7-4c-1.1-1.2-1-1.2,0-3.3c1-2.2,1.3-5.7-0.8-10.5c-2.1-4.8-3.7-3.9-5.1-3.6c-1.4,0.3-5,1.1-6.2-1
		s-1.3-2.1,1.1-3.3c2.4-1.3,3.9-2.1,3.6-4.6c-0.2-2.5-1.3-5.5-1.7-6.8c-0.4-1.3-0.7-2.2-3.2-2.5c-2.5-0.3-6.5,0.1-8.5-0.7
		c-1.9-0.8-5-1.7-6.7-4.3c-1.7-2.6-5.4-5.1-5.7-6.2c-0.2-0.7-0.5-0.9-0.7-0.7c-0.2,0.1-0.3,0.5-0.2,1.1c0.1,1.4,0.2,5-0.9,6.1
		c-1.1,1.2-1.2,2.4-1.4,4.6s0.7,5-0.8,5.7c-1.6,0.8-1.8,2-0.6,2.6s0.8,1.1,0.5,2.4c-0.3,1.3-2.7,4.6-3.4,5.5
		c-0.7,0.9-0.4,1.8-1.7,1.1c-1.3-0.7-2.4,0.6-2.7,0.8s-1.4,0.7-1.2,1.9c0.2,1.2,0.4,1.8,1.2,1.6c0.7-0.2,1.4,0.4,2.4,1.6
		c0.9,1.2,2.2,2.7,2.6,4.3c0.4,1.7-0.3,1.4,1.8,2.4c2.1,1.1,2.8,2.8,2.3,3.6c-0.5,0.8-2,0.7-1.4,2.1c0.5,1.3,0.2,1.8-0.7,2.6
		c-0.7,0.6-1.8,1.3-2.4,1.9c-0.2,0.2-0.3,0.4-0.3,0.6c0,0.7,0.9,1.2,1.6,2.1s0.9,1.9,1.3,3.5c0.4,1.6-0.6,2.1-1.6,3.1
		c-1,0.9-6.3,4.8-6.9,6c-0.6,1.2-1.6,1.8-1.4,3.6c0.1,0.6,0.3,1.2,0.5,1.7C396.4,203.8,396.9,203.8,397.5,203.8z"/>
	<path class="st1" d="M604.1,234c-1.7-1.8-4-1.5-6.1-1.3c-2.1,0.2-1.9-1.8-2.2-2.9c-0.3-1.1-1.1-3.3-1.2-4.9c-0.1-1.6,2.4-3,3.6-4.6
		c1.1-1.6-0.2-2.8-0.6-3.9c-0.4-1.1,2.4-2.9,3.8-4.1c1.4-1.2,0-3.7-1-5.7c-1-2-0.2-3.3,1.2-4.8c1.4-1.4,2.5-3.7,3.4-6.7
		c0.9-3-0.5-3.6-1.1-6.1c-0.6-2.5,0.1-4.7,1.1-6.7c1-2,0.9-4.9,0.6-6.8s-3.1-3.2-5.7-3.3c-2.6-0.1-1.7-1.6-2.3-3.2s-2.4-4-5.8-3.7
		c-3.5,0.3-4.6,1.8-4.6,3.9c0,2.1-1.7,4.2-2.3,4.8c-0.7,0.7-2,0.8-1.4,2.3c0.6,1.5,0.3,2.7-0.7,2.7c-0.9,0-4.8-0.2-6.7-0.5
		c-1.9-0.3-2.2,2.2-3.1,3.5c-0.9,1.3-0.7,2.6,0.2,4.3c0.8,1.7-0.1,3.1-1.2,4.1c-1.2,1.1-2.3,0.9-3.5,0.9c-1.1,0-2.7,2.4-3.4,3.3
		s-3.6,0.4-6.1,0.7c-2.5,0.3-2.4,0.1-3-1.6c-0.6-1.7-1.5-1.5-4-1.7c-2.5-0.2-2.1-0.2-2.9-2.2c-0.9-2-1-2.7-4.2-4.8
		c-3.2-2.1-6.8-2.7-9.1-2.5c-2.2,0.2-4.2-1.5-5.6-2.3s-2.9-1.8-3.3-2.9c-0.4-1.1-0.7-4.6-0.6-5.8c0.2-1.2,1.2-2.3,1.7-3.6
		c0.5-1.3-1.6-3.2-2.5-4.9c-0.9-1.7-1.9-1.5-4.2-1.2c-2.2,0.3-3-0.3-4.5-0.9c-1.6-0.6-2.4-2.1-4.8-2c-2.4,0.1-5-0.6-7.9-2.6
		c-3-2-7-1.2-8.6-0.6c-1.6,0.6-2,1-3.2,0.4c-1.2-0.6-1.7-0.2-4.5,0.4c-2.7,0.6-3.5,0.6-4.8-0.6c-1.3-1.2-5.2,0-6,0.6
		c-0.5,0.4-0.9,0.7-1.4,0.4l0.1,1.2c0,0,0.7,1.6,1.1,2.7c0.4,1.1,1.3,2.9,2,4.5c0.7,1.6,3.1,3.8,3.8,5.5c0.7,1.7-0.1,1.7-1.7,2
		c-1.6,0.3-3.3,3.8-4.8,6.3c-1.5,2.5-2,4.6-2,6.2s-0.3,2.4-0.9,3.8c-0.6,1.4-2.2,2.4-3,2.2c-0.8-0.3-3.6-1.3-5.8-2.4
		c-2.2-1-3.6-1.9-5.9-2c-2.2-0.2-6.9-0.8-9.4-0.9c-2.4,0-3.6-0.6-4.3-1.5c-0.3-0.4-0.5-0.6-0.7-0.8c-0.3-0.2-0.5-0.1-0.8,0.3
		c-0.4,0.6-2.9,3.5-4,4.7c-1.1,1.2-2.6,1.9-4.5,1.7s-2.6,0.7-3.2,2c-0.6,1.3-3.7,2.3-4.9,3.1c-1.2,0.8-2-1.6-2.5-2.6
		c-0.5-1-1.4-1.4-3.6-1.4c-2.1,0-2.5,2.3-2.8,4.7c-0.3,2.4-2.4,5.3-3.6,6.8c-1.2,1.5-3.2,2.5-4.9,2.5c-1.8,0-2.4,0.8-4.3,1.6
		c-1.9,0.8-2.4,0.3-3.3-1.3c-0.9-1.6-1.6-1.9-4.3-2.2c-0.5-0.1-1,0-1.5,0.1c-1.8,0.3-2.9,1.5-3.6,2.2c-0.9,1-3.5,3.6-3.4,5
		c0.1,1.4-1,4.6-1.6,6.5c-0.5,1.9-2.8,2.5-5.1,1.6c-2.3-0.9-3.6,0.7-3.5,2.9c0.1,2.2-2.7,3.2-4.2,4.3c-1.5,1.1-3.6,0.6-4,1
		c-0.4,0.4-0.7,3.4-0.4,5c0.3,1.6-0.7,2.3-1.6,3.5c-0.9,1.2-0.8,1.6-1.3,3.3c-0.5,1.7,0.7,2.5,2.2,3.9c1.5,1.3,1.1,2.5,1.2,3.8
		c0,1,0.1,2.3,0.4,2.9c0.1,0.2,0.2,0.3,0.3,0.4c0.5,0.2,3.3,0.1,6.4,0.4c3.1,0.4,3.3,0.2,5,1.4c1.7,1.2,2.3,0.5,4.8,0.6
		c2.5,0.1,5.3-0.3,6.7-0.8c1.4-0.5,3.7-2,5-2.6c1.2-0.6,1.5-0.3,1.8-2c0.3-1.7-0.4-2.4-1.2-3.2c-0.7-0.8-1-1.3-0.4-2.4
		c0.6-1.1,1.3-0.9,3.5-0.4c2.3,0.5,1.9,0.2,3.5-1c1.6-1.3,1.6,0.7,1.7,2.4c0,1.7,1.8,1.1,3.3,0.8c1.5-0.3,2.1-0.1,2.6,0.2
		c0.5,0.4,1.7,1.6,2.4,2.7c0.7,1.1,1.6,1.9,1.4,3.1c-0.1,1.2-1.1,3.8-1.5,4.5c-0.4,0.8-1.5,3.1-0.7,5c0.8,1.9,0.6,2,1.1,4
		c0.5,2,1.5,3.1,2.7,4.2c1.2,1.1,1.9,0.8,2.9,0.1c1.1-0.7,1.3-0.3,2.5,0.7c1.2,1,1.1,1.1,1.4,3c0.2,1.8,0.6,3.4-0.6,4.8
		c-1.2,1.4-0.2,2.2,0.7,3.3s0.5,2.4-0.1,4.1c-0.6,1.7-0.3,4.7-0.2,6.7c0.2,2-0.4,3.1-1.8,4.4c-1.3,1.3-1.1,5.8-1.1,7.7
		c0,1.8-1.7,0.8-2,3.8c-0.3,3,1.3,2.6,2.6,4.2c1.3,1.6,0.9,5.3,1.1,7.5s-0.3,1.7,3,3.8c3.2,2.1,5.2,5,5.6,5.5
		c0.4,0.5,2.2,2.3,2.2,2.3c0.8-0.5,1.6-0.9,2.3-1c1.8-0.3,2.3-1.1,2.7-2.2c0.4-1.1,0.6-3.3,1.3-5.1c0.7-1.7,2.3-3.4,4.2-5.3
		c1.9-1.9,2-3.3,2.3-4.8c0.3-1.5,3-9.4,3.7-11.7c0.8-2.3,0.3-4.2-0.8-6.7c-1.1-2.5-1.1-8.3-1.1-10.4c0.1-2.1-0.9-3.1-1.8-4
		c-0.8-0.8-2-1.9-1.9-2.8c0.1-0.9,1.3-2.4,2.3-3.8c1.1-1.4,1.2-4.1,1.2-5.9c0-1.8,1.7-2.1,2.4-1.9c0.7,0.2,4.8-0.4,6.7-0.5
		c1.9-0.1,2.6-0.2,2.9,1.4c0.3,1.7,0.2,1.5,2.4,3.2c2.2,1.7,4.4-1.7,5.3-3.2c0.9-1.6,1.8-1.1,3.3-0.8s1.7,2.1,2.1,4.6
		c0.3,2.4,0.1,4.7-0.8,7.7c-0.9,2.9-0.2,5.7,0.7,9.1s2.7,3.6,4.6,4.9c1.9,1.3,2.6,2.5,4.2,6.4c1.6,3.9,5.2,5,7.7,6.3
		c2.5,1.3,6.3,0.7,8.7,0.1c2.3-0.7,3.2-1.2,5.1-0.5c1.9,0.7,2.6-0.9,3.6-2.1c1-1.1,0.2-1.9-0.2-3.8c-0.3-1.9,0.6-1.8,1.8-3.7
		c1.2-1.9,3.4-1.1,5.6-0.4c2.2,0.7,5.3-1.6,8.5-2.4c3.1-0.9,4.2-2.4,5.4-3.3c1.2-0.9,1.8-1.6,3.7-0.4c1.9,1.2,2.9,0.7,4.7,0.3
		c1.8-0.4,3.8,2.2,5.2,4.1c1.4,1.9,1.1,2.3,0.3,4.6c-0.8,2.3,0.9,6.2,2.2,8c1.2,1.8,5.7,3.8,6.9,4.6c1.2,0.7,1.1,2,0.1,3.6
		c-1,1.7-1.4,2.1,0.1,3.8c1.6,1.7,2.9,0.9,4.6,0c1.7-0.9,4.5-0.9,6.1-1c1.6-0.1,1.8-0.3,2.3-2.3c0.5-2,1.9-2.6,2.8-3.3
		c0.8-0.7-0.2-2.3-0.9-3.2c-0.7-0.9-5.1-7.5-5.6-8.3c-0.5-0.8-1.6-2.7-2.4-4.1c-0.8-1.3,1.1-3.1,1.6-4.4c0.5-1.3,1.6-3.8,2.4-4.6
		c0.8-0.8,3.1-1,2.9-2.6c-0.2-1.6-0.4-2.6-1.3-3.5s-4.8-1.9-6.7-1.5c-1.9,0.4-5,0.3-6,0.5c-1,0.2-2.1-2.2-2.4-4.2s-0.8-2.2-0.4-3.1
		c0.4-0.9,1.2-2.5,1.5-3.3c0.3-0.9-0.4-4.6-0.4-6s-0.5-5.7,0-7c0.5-1.3,1.8-2.9,2.4-3.5c0.6-0.6,2.6-2.8,3.6-4.1
		c0.9-1.3,0.1-4.7-0.1-6c-0.2-1.3,4.5-1.2,6.3-1.1c1.9,0.1,4.1-0.8,6.3-0.8s2.7-1.3,3.6-2.6c0.9-1.3,2.7,0.9,4,2.3
		c1.3,1.4,0.9,1.4-0.4,3c-1.4,1.5-1.2,2-0.6,3.3c0.6,1.3,2.1,1.7,4,1.8c1.9,0.1,2.2,0.9,2.9,2.6c0.7,1.7,1.1,1.8,2.4,2
		c1.3,0.2,5.9,0.7,6.7,0c0.8-0.7,1.2-0.9,1.9-0.6c0.7,0.3,4,1.3,6.2,3.1c2.2,1.8,4.2,1.3,5.1,1c0.9-0.3,1.3-3.8,1.3-4.6
		c0.1-0.8,1.2-8.6,1.4-10.1C608.3,237.4,605.7,235.8,604.1,234z"/>
	<path class="st1" d="M467.7,97.7c-1.4-1.2-4.3-2.6-4.8-3c-0.5-0.4-4.5-1.8-5.9-1.3c-1.5,0.4-0.1,1.3-0.3,3
		c-0.1,1.6-1.3,2.4-1.5,4.4c-0.1,1.9-1.1,2.4-3.3,2.9c-2.2,0.5-1.4,2.2-1.9,3.7s-0.5,1.7,0.2,2c0.7,0.3,1.3,1.1,1.9,2.1
		c0.6,1,1.8,3.7,2.2,6.1c0.2,1,0.1,1.6-0.1,1.9c0.6,0.5,1.4,0.9,2.3,1.1c2.4,0.5,4.1,1.3,4.3,1.4c0.2,0.1,2.1,0.1,3.3-1.2
		c1.1-1.3,5.5-3.1,5.5-3.8c-0.1-0.8,1.1-2.4,1.9-2.6c0.8-0.2,2.6-0.6,3.3-3.2c0.8-2.6,2.4-7.1,1.9-9.2c-0.2-0.9-0.6-2-1.2-3.1
		c-0.3,0.3-1,0.2-2,0.5C471.8,99.6,469.1,98.9,467.7,97.7z"/>
	<path class="st1" d="M336.9,197.3c-2.9-0.6-5.6-3.7-8.1-3s-2.2,2.5-0.7,5.6c1.6,3.1,0.4,5.3,3.2,7c2.8,1.7,5.1,1.9,4.8,3.5
		c-0.4,1.6-0.5,2.5,0.3,3.2c0.4,0.3,1.1,0.4,2,0.5c-0.1-0.6,0.4-1,1.5-0.8c1.7,0.3,4.9,0.7,3.9-1.7c-1-2.4-2.1-2.4,0.2-5.1
		c2.2-2.7,4.7-5.4,3.7-6.6s-2.6-1.4-4.2-2.2c-0.3-0.1-0.6-0.2-0.8-0.3C340.5,197.4,338.2,197.5,336.9,197.3z"/>
	<path class="st1" d="M405.3,189.5c-0.4-1.6-0.6-2.6-1.3-3.5s-1.6-1.4-1.6-2.1c0-0.2,0.1-0.4,0.3-0.6c-0.6,0.6-1.9,1.9-2.1,2.1
		c-0.3,0.3-7.1,3.9-8,5.4c-1,1.5-2.5-0.2-2.6-2.4c-0.1-2.2-0.4-3.6-1.3-4.4s-1.6-1.5-1.2-1.8c0.4-0.3,1.4-1.1,0-2.5
		c-1.4-1.4-2.1-0.7-2.4,0.4c-0.3,1.1-0.9,1-2.4,1.7c-1.5,0.7-2.5-1.7-3-1.7c-0.5,0-4.7,1.3-5.3,3.3c-0.6,1.9-2.2,0.7-2.9-0.1
		c-0.7-0.9-0.5-1.6-1-3.5c-0.5-1.9-5-0.7-7.9-1.4c-2.8-0.7-1.6-5-2.6-7.6c-1-2.6-3.2-2.6-4.5-1.6c-1.3,1-3.1,4.1-3.1,4.5
		c0,0.3-0.6,2-1.1,4.3c-0.1,0.6-0.3,1.3-0.4,2.1c-0.5,3.3-3.3,4.2-5.8,4.6c-2.4,0.4-4,1.7-3.5,3.6c0.5,1.9,0.6,3.1-0.2,6.2
		c-0.7,2.5,0.1,2.4,1.3,2.8c0.3,0.1,0.5,0.2,0.8,0.3c1.6,0.8,3.3,1,4.2,2.2s-1.5,3.9-3.7,6.6c-2.2,2.7-1.2,2.7-0.2,5.1
		c1,2.4-2.2,2-3.9,1.7c-1.1-0.2-1.5,0.2-1.5,0.8c0,0.3,0.2,0.6,0.4,0.9c0.7,0.8,1.3,0.7,0.1,2.8c-1.1,2.2-0.1,4.5,0.7,7.3
		c0.8,2.9-0.7,3.9-4.3,4.5s-2.5,4.2-1.5,6.2c0.1,0.2,0.2,0.4,0.2,0.6c0.1,0,0.1,0.1,0.2,0.1c0.9,0.7,3.2,1.3,2.4,3.5
		c-0.7,2.3-2.1,7.7-1.4,10.1s1.5,6,3.6,7.4c1.4,1,3.5,2.1,4.8,2.9c0.5-0.5,1-0.9,1.3-1c0.4-0.3,3.4-0.8,3.5-2.1
		c0.1-1.3,1.2-5.1,1.2-6c0-0.9,0.3-1.1,1.6-1.1s5.6-0.9,6.7,0c1.1,0.9,1.6,0.9,2.3,1c0.6,0.1,1.1,0.5,2.1,0.4c1-0.1,1.2,0.5,1.9,1.1
		c0.7,0.6,0.6,0.4,1.2,1c0.6,0.6,1.4-0.4,2.3-1.1c0.6-0.5,2.2-1.8,3.3-2.6c-0.3-0.6-0.4-1.9-0.4-2.9c0-1.3,0.3-2.5-1.2-3.8
		c-1.5-1.3-2.7-2.2-2.2-3.9c0.5-1.7,0.4-2.1,1.3-3.3c0.9-1.2,1.8-1.9,1.6-3.5c-0.3-1.6,0-4.6,0.4-5c0.4-0.4,2.5,0.1,4-1
		c1.5-1.1,4.3-2.2,4.2-4.3c-0.1-2.2,1.1-3.7,3.5-2.9c2.3,0.9,4.6,0.3,5.1-1.6c0.5-1.9,1.7-5.1,1.6-6.5c-0.1-1.4,2.5-4.1,3.4-5
		c0.7-0.8,1.9-1.9,3.6-2.2c-0.2-0.5-0.4-1.1-0.5-1.7c-0.2-1.8,0.8-2.4,1.4-3.6c0.6-1.2,5.9-5.1,6.9-6
		C404.8,191.6,405.8,191,405.3,189.5z"/>
	<path class="st1" d="M328.9,141.9c-1.6-1-3.3-2.3-3.7-3.3c-0.3-1-3.1-8.1-3.5-9.6c-0.4-1.5-3.9-11.6-4-13.2
		c-0.1-1.6-4.5-2.1-5.7-2.3c-1.2-0.3-0.8,0.3-0.4,1.9c0.4,1.5-1.1,1.1-2.6,2c-1.4,0.9-2.5,4.5-2.8,5.9c-0.3,1.5-2.6,1.3-5,1.2
		c-2.4,0-1.3-1.7-0.3-2c1-0.4,1.4-1.4,0.1-2.4c-1.3-1-3.1-0.1-4.4,0.4s-3.3-0.4-3.5-1.1c-0.1-0.7-0.5-2.1-1.8-1.6
		c-1.3,0.5-3,0.8-3.2,0.9s-1,0.8-0.7,1.8c0.3,1-1.4,0.9-2.7,0.9s-2.9,0.9-3.4,0.3c-0.5-0.6-1.6-4.6-1.7-5.3c-0.1-0.7-0.4-1-1.4-0.9
		s-0.7,0.2-2.3-0.7c-1.6-0.9-1.6,0.7-2.4,2c-0.9,1.3-1,4.1-1.7,4.7c-0.7,0.6-2.3,1.4-3,1c-0.7-0.4-2.2-1.2-3.1-0.7
		c-0.9,0.5-6,1.7-6.7,2.3c-0.3,0.3-0.6,0-0.8-0.4l0,0c0,0,0.2,2,0.5,3.2c0.3,1.2,2.2,4.8,3.8,6.5c1.6,1.7,0.6,3.8,0.6,5.2
		s-0.3,2.4,1.2,4.8c1.4,2.4-0.6,2.8-1,3.7c-0.4,0.9-0.6,5.8-0.6,7.1s-0.4,4.2,0,5.5c0.4,1.2,2.6,4.5,3.3,6.5
		c0.7,2.1,4.5,1.5,6.2,1.6c1.7,0.1,1.6,0.2,1.6,1.1c0,0.9-0.2,3.1-0.7,4.3c-0.5,1.2-2.8,6.4-3.8,8.6s-1.2,1.3-3.1,1.2
		c-1.9-0.1-2.4,1.4-2.2,3.9c0.2,2.4-0.4,3.7-1.3,5.6c-0.9,1.8-0.2,2.4,0.5,4.3c0.7,1.9-0.2,2.9,0,4.5c0.2,1.6,4.2,2.6,7.9,5.1
		c3.7,2.5,3.2,4.4,4.6,5.4c1.3,1,3.5,2,4.6,0.3c1.1-1.7,2.9-1.3,4.2-1.3c0.4,0,1.6-0.2,3.2-0.6c-1.3-0.1-0.7-1.5,0.1-2.8
		c0.9-1.6-0.3-3.3-1.6-4.5s-0.3-3.5,0.8-5.3c1.1-1.8,1.3-3.4,1.2-5.2c-0.1-1.8,1.3-2.9,2.2-4.3c0.9-1.4,2.3-0.8,3.8-0.1
		c1.5,0.7,2.1-2.1,3.5-3.5c1.4-1.4,2.9-2.3,2.7-4c-0.2-1.6-0.7-1.9,1.1-3.4c1.8-1.4,3.8-1.8,6.3-1.4c1.4,0.2,1.8-0.3,2-0.8
		c-0.7-0.1-1.1-0.5-1-1.1c0.1-1-0.3-2,2-2.7c2.3-0.7,5.3-0.9,7.1-1.6c1.7-0.7,3.7-1.3,5.3-0.6c1.6,0.7,5.3,0,6.2-0.3
		c1-0.3,0.7,1,2.8,1.3c2.1,0.3,5.6,0.6,7.6,0.3c1.6-0.2,3.5,0.5,4.5,1.4v0c0,0-0.9-1,0.9-3.2c1.8-2.3,1.6-2.8,0.6-4.5
		c-1.1-1.6-4.3-3.7-6.7-4.2c-2.3-0.5-5.8-0.2-7.1-2.2c-1.3-1.9,0.7-4.1,0.8-5.6c0.1-1.5,0.8-2.7,3.1-3.5c1.2-0.4,2.2-1,3.2-1.3
		c-0.4-0.4-0.8-0.7-1.1-0.7c-1.5-0.5-3.8,0-4.2-3.4c0,0,0,0,0,0C331.9,142.8,330.1,142.6,328.9,141.9z"/>
	<path class="st1" d="M323.8,205.4c-1.1-1.2-1.3-2-1-6.9c0.3-4.9,1.5-12.9,1.1-14c-0.4-1-0.3-1.1-2.1-1.3c-1.8-0.2-3-0.4-2.2-2.4
		c0.8-2,2.2-3.3,3-4.8c0.7-1.5,0.3-1.9-2.2-2.1c-2.4-0.1-7.1-1.1-8.8,0c-0.8,0.5-1.5,0.6-2,0.6c-0.1,0.5-0.6,1-2,0.8
		c-2.5-0.4-4.6,0-6.3,1.4c-1.8,1.4-1.3,1.8-1.1,3.4s-1.2,2.6-2.7,4c-1.4,1.4-2,4.2-3.5,3.5c-1.5-0.7-2.8-1.3-3.8,0.1
		c-0.9,1.4-2.3,2.5-2.2,4.3c0.1,1.8-0.1,3.3-1.2,5.2c-1.1,1.8-2.1,4.1-0.8,5.3s2.5,3,1.6,4.5c-0.8,1.4-1.4,2.7-0.1,2.8
		c0.2,0,0.4,0,0.7,0c2.2-0.3,4.3-0.7,5,0.8c0.7,1.6,4.6,3.7,5,3.9s2.2,0.4,4.1,0c1.9-0.4,3.6-1.2,6,0.3c2.4,1.4,2.8,0.7,3.7,0.3
		s1.8-0.8,3.2,0.2c1.4,1.1,1.3,0.7,3.3-0.2c2-0.8,6.2-2.8,8.1-3.7c0.6-0.3,1.5-0.6,2.2-1c-0.1-0.1-0.2-0.2-0.4-0.2
		C326.2,208.8,324.9,206.6,323.8,205.4z"/>
	<path class="st1" d="M339.5,169.9c-1.9,0.3-5.5,0-7.6-0.3c-2.1-0.3-1.9-1.6-2.8-1.3c-1,0.3-4.7,1-6.2,0.3c-1.6-0.7-3.6-0.1-5.3,0.6
		c-1.7,0.7-4.8,0.9-7.1,1.6c-2.3,0.7-1.9,1.6-2,2.7c-0.1,0.6,0.3,1,1,1.1c0.5,0.1,1.3-0.1,2-0.6c1.8-1.1,6.4-0.1,8.8,0
		c2.5,0.1,2.9,0.6,2.2,2.1c-0.7,1.5-2.2,2.8-3,4.8c-0.8,2,0.4,2.2,2.2,2.4c1.8,0.2,1.7,0.3,2.1,1.3s-0.8,9.1-1.1,14
		c-0.3,4.9-0.1,5.7,1,6.9c1.1,1.2,2.5,3.3,4.6,4.8c0.1,0.1,0.2,0.1,0.4,0.2c2.4,1.4,7.7,3,7.7,3c-0.8-0.7-0.7-1.6-0.3-3.2
		s-1.9-1.8-4.8-3.5c-2.8-1.7-1.6-3.9-3.2-7c-1.6-3.1-1.8-5,0.7-5.6s5.2,2.4,8.1,3c1.3,0.3,3.6,0.2,5.7,0c-1.2-0.4-1.9-0.3-1.3-2.8
		c0.8-3,0.7-4.2,0.2-6.2c-0.5-1.9,1-3.3,3.5-3.6c2.5-0.4,5.3-1.3,5.8-4.6c0.1-0.7,0.2-1.4,0.4-2.1c-1.1-0.4-2.3-0.8-3.4-1.3
		c-2.7-1-2.6-3.8-3.3-4.8c-0.1-0.2-0.3-0.4-0.6-0.6C343,170.4,341.1,169.6,339.5,169.9z"/>
	<path class="st1" d="M132.1,137.7c0.8,1.4,1.2,3.2,3.4,2.1c2.2-1.1,2.9-0.9,3.7-3.1c0.7-2.1,2.9-2.9,4.5-1.5c1.6,1.4,2.8,1.5,3,0.9
		c0.2-0.6,1.2-2.3,2.7-3.5s3-0.9,3.8-2.8c0.8-1.8,2.3-4.6,3.3-5.6c0.9-1,1.8-1.1,3.6-0.7c1.8,0.4,6.3-0.8,7-1.4
		c0.6-0.6,1.1-1.5,0.6-2.4c-0.5-0.9-0.7-1.3,0.3-1.9c1-0.6,1.9-0.4,1.8-2.2c-0.1-1.8,0.1-3.6,3.1-3c3.1,0.7,4.8,1.4,8.7,1.8
		c3.9,0.4,7,0.6,8.8-1.7s4.6-4.7,5.8-5.7s1.7,0.7,3.2,1.3c1.5,0.6,7.7,2,10.1,2c2.4,0,4.6-1,6.2-1.9c1.1-0.7,3.1-0.7,4.7-0.6
		c0.3-0.7,0.6-1.5,1.1-2.4c0.7-1.4-0.2-1.8-1.6-2.4c-1.4-0.6-1.9-2.6-2.9-3.7c-1-1.1-5-1.2-6.9-1.4c-1.9-0.3-3.7-0.1-4.2-1.4
		c0,0,0,0,0,0c-2.9,0.3-4.6-0.3-4.8-1.7c-0.2-1.6-1.1-2.9-2.2-3.9c-0.4-0.3-0.8-0.8-1.2-1.1c-1.6,0.3-3.6,0.1-3.8-0.8
		c-0.3-1-0.3-1.3-0.1-1.4v0l-0.2,0c-0.2,0-0.4-0.1-0.6-0.1c-1.6-0.3-3.5-1.1-5.2-0.7s-5.8,1.7-7.6,3.1c-1.8,1.4-1.8-1.7-2.4-3
		s-4.5-2.6-6-3c-1.5-0.3,0.1-3.5,0.6-4.6c0.4-1.2,0.4-3.3,0.4-4c0.1-0.6-3.5-2-5.7-2.4c-2.3-0.4-4.2,0.8-5.7,1.6s-3.8-0.9-5-1.3
		c-1.1-0.4-2.6-1.5-4-1.3s-4.6,0.8-4.6,1.8s0.2,4.5,0.3,6.6c0.1,2.1-3.7,3.9-5.2,5c-1.5,1.1-1.1,2-1.4,3.7c-0.3,1.7-1.4,2.2-3.9,4.3
		s-3.2,2.4-3.8,4.5c-0.6,2.1,0.3,2.8,1.9,3.3c1.6,0.5,11.5-0.7,13.3-1.2c1.8-0.5,4.3-0.6,5.1,0c0.8,0.6,2.9,1.4,2.4,4.6
		c-0.4,3.1-2.6,2.4-4.5,2.7s-1.7,1.7-1.5,3.4s-4.8,2-6.4,2.5c-1.6,0.5-1.7,1-1.7,1.4c0.1,0.4,0.4,4.5,0.4,6.7c0,2.2-2.3,3.5-2.7,3.8
		s-8.1,6.6-10,8.2c-1.9,1.6-2,1.4-1.3,3.3C129,136.2,131.3,136.3,132.1,137.7z"/>
	<path class="st1" d="M210,98c1.9,0.3,5.8,0.3,6.9,1.4c1,1.1,1.6,3,2.9,3.7c1.4,0.6,2.3,1,1.6,2.4c-0.5,0.9-0.8,1.7-1.1,2.4
		c-0.2,0.5-0.3,0.9-0.5,1.3c-0.4,1-0.7,2.3-3,2.7c-2.3,0.4-5.3,0.8-5.7,2.2c-0.4,1.4-1.1,2.2-2.7,3.2c-1.6,1-5.3,1.2-5.5,2.3
		c-0.3,1.2-0.3,2.3-1.9,3.2c-1.6,0.9-4.6,2.8-6.3,3.2c-1.7,0.4-3.6,0.8-2.6,2c1,1.3,0.9,2.7,2.8,3.5c1.9,0.7,4.2,2,4.7,4.2
		c0.1,0.5,0.3,0.9,0.4,1.1c0,0,2.7,0.3,4.4-1.3c1.7-1.6,1.9-1.9,4.2-2.2c2.4-0.4,2.4-0.7,3.3,0.9c1,1.6,2,3.1,1.3,3.8
		c-0.7,0.8-4.2-0.3-6.6,1.1s-4.8,3.1-3.9,4.5c1,1.4,1.6,2.7,0.8,3.1c-0.7,0.4-4.8-3.1-6.9-1.7c-2.1,1.4-0.5,1.6,0.1,3
		c0.7,1.4,1.9,4,3,3.3s4.8-2.1,5.2,0.1c0.4,2.2,0.3,3.6,1.6,2.9s3-1.8,2.9-3.1c-0.1-1.3-1.7-2.9,0.7-4c2.4-1.1,5.8-2.1,6.5-4.7
		c0.7-2.6,1.1-4.8,3.3-5.2c1-0.2,3-1.2,3.6,0.2s2.2,2.4,3.8,2.6s5.5,0.4,5.8-1.3c0.2-1.7,1.4-2.6,2.2-3.1c0.8-0.5,0.7-1.2,0.6-2.9
		c-0.1-1.7-0.5-1.6-1.7-2c-1.2-0.4-1.5-0.5-1.8-2c-0.3-1.6-0.4-2.7-1.9-3.6c-1.5-0.9-3.9-1.1-4.3-3c-0.4-1.9-0.9-4.3-0.9-5.3
		c0-1,2.1-1.3,3.2-1.6c1.1-0.4,2.6-0.9,4.3-1.6s2.6-2,4.8-0.6c2.2,1.4,2.4,1.5,4.1,3.6c1.7,2.1,4,2.1,4.3,2.1c0.4,0,1-1.3,1.7-2
		s1.7,0.1,1.7,1.4s1.8,2.3,2.3,2.1c0.5-0.2,0.5-1.5,1.5-2.2c0.7-0.4,2.3-0.3,3.5-0.2c0-0.2,0.1-0.4,0.2-0.6c0.8-1.8,2.9-4.6,3.5-5.8
		c0.6-1.2,2.4-3.1,4.4-3.2s3.2,2.2,4.6,1.1c1.4-1.1,4.4-3.1,5.8-3.1c1.4,0,3.5,0.3,3.3-1.9s2.3-5.8,3.1-7.2c0.7-1.4,1.3-1.8-0.1-3.5
		c-1.4-1.6-0.5-2-1.6-3.2c-1.1-1.2-3-0.7-4-2.3c-1-1.5,0-2.7,0.3-3.8s-1.4-2.7-1.7-4.4c-0.2-1-0.7-1-1.3-1c-0.8,0.9-1.5,1.6-1.7,2
		c-0.9,1.3-0.4,2.5,0.6,3.6c0.9,1.1,2.1,3.2,0.1,3.9c-1.9,0.7-2.8,0.6-4.3,2.1c-1.6,1.5-1.6,0.6-2.4,0c-0.8-0.6-2.4-0.7-3.1,0.8
		c-0.6,1.5,0.2,3.4-3.8,5c-4,1.6-5.3,2.7-6.2,4s0.1,3.8-2.3,2.7c-2.4-1.2-5-0.4-5.7-2.6c-0.7-2.1-1.8-4-5-2.9
		c-3.3,1.2-6.2,1.1-7,0.3c-0.7-0.7-2.3-4.3-2.1-5.8s-0.6-2.4,2.3-2.1c2.9,0.3,3.6-0.1,3.7-1.6c0.1-1.5,0.4-5.4,1.3-6.7
		c0.9-1.3,2.7-2,2.4-3.5s-1.1-2.2-2.4-2.4c-1.4-0.2-2.4-0.9-2.7-1.9c-0.3-1-1.6-0.2-2.1,0.9c-0.4,1.1-2.2,1-2.7,0.4
		c-0.5-0.6-1.4-1.2-1.7,0.8s-0.8,2.1,0.2,2.9c1,0.8,0.5,1.8,0.4,2.7c0,0.9,0.4,2.2-1.5,3.4c-1.9,1.3-3.2,0.6-4,2.2
		c-0.9,1.6-1.1,2.8-2.1,1.5c-1-1.3-4.7-0.8-4.8,0.8c-0.1,1.6,0.1,3-1.8,3.5s-1.9,1.6-3.5,0s-3.8-2-4.5-0.6c-0.7,1.4-1.4,2.8-0.9,4
		c0,0,0,0,0,0C206.3,97.8,208.1,97.7,210,98z"/>
	<path class="st1" d="M274.6,80c0.3,1.7,2,3.3,1.7,4.4s-1.3,2.3-0.3,3.8c1,1.5,2.9,1.1,4,2.3c1.1,1.2,0.2,1.5,1.6,3.2
		c1.4,1.6,0.8,2.1,0.1,3.5c-0.7,1.4-3.3,4.9-3.1,7.2c0.2,2.3-1.9,1.9-3.3,1.9c-1.4,0-4.4,1.9-5.8,3.1c-1.4,1.1-2.7-1.3-4.6-1.1
		s-3.8,2-4.4,3.2c-0.6,1.2-2.7,4-3.5,5.8c-0.1,0.2-0.1,0.4-0.2,0.6c-0.4,1.4,0.3,2,0.6,3.3c0.2,0.8,0.4,1.9,0.8,2.5
		c0.2,0.4,0.5,0.7,0.8,0.4c0.7-0.6,5.8-1.8,6.7-2.3c0.9-0.5,2.5,0.3,3.1,0.7c0.7,0.4,2.3-0.4,3-1c0.7-0.6,0.9-3.4,1.7-4.7
		s0.8-2.9,2.4-2c1.6,0.9,1.4,0.8,2.3,0.7s1.3,0.1,1.4,0.9c0.1,0.7,1.2,4.7,1.7,5.3c0.5,0.6,2.1-0.3,3.4-0.3s3,0.1,2.7-0.9
		c-0.3-1,0.6-1.7,0.7-1.8c0.2-0.1,1.9-0.4,3.2-0.9c1.3-0.5,1.7,1,1.8,1.6c0.1,0.7,2.2,1.7,3.5,1.1s3.1-1.5,4.4-0.4
		c1.3,1,0.9,2.1-0.1,2.4c-1,0.4-2.1,2,0.3,2c2.4,0,4.7,0.3,5-1.2c0.3-1.5,1.4-5,2.8-5.9c1.4-0.9,2.9-0.5,2.6-2
		c-0.4-1.5-0.7-2.1,0.4-1.9c1.2,0.3,5.6,0.7,5.7,2.3c0.1,1.6,3.6,11.8,4,13.2c0.4,1.5,3.2,8.6,3.5,9.6c0.3,1,2.1,2.3,3.7,3.3
		c1.2,0.8,3,1,4.6,0.8c-0.4-3.4,0.4-5.5-0.4-8.1c-0.8-2.6-1-2.2-0.9-4.6c0.1-2.4-0.1-3.3-0.4-5.1c-0.2-1.2,0.6-2.4,1.9-3.5
		c-0.6-1-1-1.9-1.3-2.5c-0.6-1.6-2.1-5-1.8-5.8c0.3-0.8,1-0.7,2.3-1c1.3-0.3,2.2-0.7,2.9-2.2c0.7-1.4,1.6-4.6,0.1-6.6
		c-1.5-2.1-2.7-4.5-3-5.8c-0.3-1.4-2.6-1.9-2.7-3.6c-0.1-1.7-0.1-2-1.3-1.9c-1.2,0.1-3.3-0.3-1.9-1.6s2.9-2.3,2.5-4.3
		c-0.4-2-1-6.3-2.1-8c-1.1-1.7-1.5-3.2-1.4-4.6c0-1.5-1.2-2.6-0.6-3.5c0.6-0.9,2-0.2,2.9-1.3c0.8-1.1,4.3-5.8,4.8-6.6
		c0.6-0.9,1.5-2.5,1.5-2.5l1.3-1.9l-0.3,0c-1.6-0.1-3-0.3-3.3-0.7c-0.6-0.7-1.7-1.1-3.5,0.2c-1.7,1.3-6,0.2-7.8-0.4
		c-1.9-0.6-2.7-3.3-3.5-5c-0.8-1.6-6.1-2.5-7.3-1.2c-1.2,1.2-2.4,0.4-2.7-0.2c-0.3-0.6-1.3-1.5-3.1-1.3c-1.8,0.2-4.9,3.2-6.1,3.8
		c-1.2,0.6-2.1,2.3-4.2,2.5s-2.4,1.1-2.6,2.5c-0.2,1.4-0.4,1.4-2.1,1.8c-1.6,0.3-1.3,0.2-3,1c-1.7,0.8-2.9,1.5-4.3,1.2
		c-1.4-0.3-7.4-0.4-9.6-0.1c-2.2,0.3-3.5,0-4.3-0.9c-0.8-0.9-2.2-2.8-3.6-4.3c-1.4-1.4-4.8-0.1-7.6,0s-3.6,1.7-3.6,3.3
		c-0.1,1.7-2.2,2.4-5.4,2.6c-0.5,0-0.8,0.1-1.2,0.2c0,0,1,1.2,1.9,2.7c0.9,1.4,2.4,1.7,2.1,3.2s-0.4,2.4,0.7,3.2
		c1.1,0.9,1.5,1.3,1.9,0.4c0.4-1,2.6-2.1,3.2-3.6c0.5-1.5,0.6-2.4,1.1-2.4c0.6,0,2.1,0.6,3.3,1.2c1.2,0.6,1,0.9,1.1,1.7
		c0.1,0.8,2.2,3.1,2.6,3.7c0.4,0.6,1.6,1.9,2.8,2.1c1.2,0.2,3-0.2,3.1,1.2c0.1,1.3,0.5,2.4,1.4,3c0.3,0.2,0.7,0.2,1.1,0.1
		C273.9,79,274.4,79,274.6,80z"/>
	<path class="st1" d="M238.5,138.9c1-0.7,1-1.4,0.8-1.7c-0.1-0.3-0.1-1.1-1.1-0.8c0,0-2.2,1.1-1.7,2.3
		C236.9,139.9,237.6,139.6,238.5,138.9z"/>
	<path class="st1" d="M238.2,136.4c0,0-2.2,1.1-1.7,2.3c0.4,1.2,1.1,0.9,2,0.2c1-0.7,1-1.4,0.8-1.7
		C239.2,136.9,239.2,136.2,238.2,136.4z"/>
	<path class="st1" d="M142.5,178.5c0.8,2.8,1.7,5.6,2.2,6c0.9,0.7,2.9,0.9,2.7,2.1c-0.1,1.2-3,0.7-0.1,3c2.9,2.2,5.4,1.6,5.7,4.2
		c0.3,2.5,0.1,5.1,0.6,5.6c0.4,0.4,2.6-1.3,3.6-1.8s1.9-1.6,1.1-3.3c-0.7-1.7-0.6-2.7-0.1-3.1s3.5-0.4,3.4,0.6s1.3,1,1.7,0.4
		c0.4-0.6,0.5-1.1-0.4-2.1c-0.9-1-2.4-2.4-3.3-4.5c-1-2.1-3.7-5.4-4.2-8c-0.2-1-0.2-2.2,0.1-3.5c-0.2-0.2-0.3-0.5-0.5-0.9
		c-0.7-1.9-1.9-3.3-2.7-3.6c0,0-2,1.9-3.3,3C148.7,172.7,146.1,175.2,142.5,178.5z"/>
	<path class="st1" d="M166.8,184.6c0,0-1.9,0.3-2.2,1.3c-0.3,0.9,0.6,3.3,1.1,3.8s1.2-0.6,1.6-1.5
		C167.8,187.2,167.6,184.9,166.8,184.6z"/>
	<path class="st1" d="M238.2,136.4c0,0-2.2,1.1-1.7,2.3c0.4,1.2,1.1,0.9,2,0.2c1-0.7,1-1.4,0.8-1.7
		C239.2,136.9,239.2,136.2,238.2,136.4z"/>
	<path class="st1" d="M142.5,178.5c0.8,2.8,1.7,5.6,2.2,6c0.9,0.7,2.9,0.9,2.7,2.1c-0.1,1.2-3,0.7-0.1,3c2.9,2.2,5.4,1.6,5.7,4.2
		c0.3,2.5,0.1,5.1,0.6,5.6c0.4,0.4,2.6-1.3,3.6-1.8s1.9-1.6,1.1-3.3c-0.7-1.7-0.6-2.7-0.1-3.1s3.5-0.4,3.4,0.6s1.3,1,1.7,0.4
		c0.4-0.6,0.5-1.1-0.4-2.1c-0.9-1-2.4-2.4-3.3-4.5c-1-2.1-3.7-5.4-4.2-8c-0.2-1-0.2-2.2,0.1-3.5c-0.2-0.2-0.3-0.5-0.5-0.9
		c-0.7-1.9-1.9-3.3-2.7-3.6c0,0-2,1.9-3.3,3C148.7,172.7,146.1,175.2,142.5,178.5z"/>
	<path class="st1" d="M166.8,184.6c0,0-1.9,0.3-2.2,1.3c-0.3,0.9,0.6,3.3,1.1,3.8s1.2-0.6,1.6-1.5
		C167.8,187.2,167.6,184.9,166.8,184.6z"/>
	<path class="st1" d="M238.5,138.9c1-0.7,1-1.4,0.8-1.7c-0.1-0.3-0.1-1.1-1.1-0.8c0,0-2.2,1.1-1.7,2.3
		C236.9,139.9,237.6,139.6,238.5,138.9z"/>
	<path class="st1" d="M165.7,189.6c0.5,0.4,1.2-0.6,1.6-1.5c0.4-0.9,0.2-3.2-0.6-3.6c0,0-1.9,0.3-2.2,1.3
		C164.3,186.8,165.2,189.2,165.7,189.6z"/>
	<path class="st1" d="M144.7,184.5c0.9,0.7,2.9,0.9,2.7,2.1c-0.1,1.2-3,0.7-0.1,3c2.9,2.2,5.4,1.6,5.7,4.2c0.3,2.5,0.1,5.1,0.6,5.6
		c0.4,0.4,2.6-1.3,3.6-1.8s1.9-1.6,1.1-3.3c-0.7-1.7-0.6-2.7-0.1-3.1s3.5-0.4,3.4,0.6s1.3,1,1.7,0.4c0.4-0.6,0.5-1.1-0.4-2.1
		c-0.9-1-2.4-2.4-3.3-4.5c-1-2.1-3.7-5.4-4.2-8c-0.2-1-0.2-2.2,0.1-3.5c-0.2-0.2-0.3-0.5-0.5-0.9c-0.7-1.9-1.9-3.3-2.7-3.6
		c0,0-2,1.9-3.3,3c-0.4,0.4-3.1,2.9-6.6,6.2C143.3,181.3,144.2,184.1,144.7,184.5z"/>
	<path class="st1" d="M122.8,222.1c0.8-0.4,2.7-1.2,4.1-0.7c1.4,0.5,4.5,1.6,5,0.8c0.6-0.8-0.4-2.7,0.5-3.1c0.9-0.4-0.1-1.3-0.7-2.3
		c-0.6-1-1.4-3.3-2.4-2.3c-1,0.9-1.9,0.9-1.9,1.2c0,0-0.3,2.4-1.4,2.9c-1.1,0.6-2.9,0.2-3.7,1.4C121.5,221.4,122,222.6,122.8,222.1z
		"/>
	<path class="st1" d="M119.8,218.5c-0.6-0.4-1.6-0.1-2.1,0c0,0-1.4,0.1-1.7,1.6c-0.3,1.5,0.7,3.6,1.2,3.8s1.4-0.5,1.7-1
		c0.3-0.6,0.3-2.2,0.9-2.4C120.4,220,120.4,218.9,119.8,218.5z"/>
	<path class="st1" d="M44.9,308.8c-0.5-0.5-2.8-1.2-5.1-2.3c-2.3-1.2-4-2.5-4.5-2.8s-2.4-0.6-2.4-0.6l-0.3,0.6
		c-0.4,0.9-0.5,1.1-0.6,1.8c-0.6,2.1,0.3,4.8,0.1,7.8c-0.2,3-3.7,1.8-5.1,1.3c-1.4-0.6-2.7,1.4-4.6,2.6c-1.9,1.2-4.1,0.3-4.7,1.1
		c-0.6,0.8-3,2.8-4.4,5.2c-1.4,2.3-0.3,2.8,0.8,4.5c1.1,1.7-0.9,2.8-2.1,4.3c-1.2,1.4-1.4,2.6-0.9,4.6c0.6,2.1,3.7,0,6.3-0.8
		c2.6-0.8,7-1.7,11.7-1.7c4.8,0,7.6-2.1,8.6-3c0.9-0.9,1.2-2.6,1.5-4.4c0.3-1.8,1.4-2.3,2.7-2.5c1.2-0.2,7.1-2.9,10.3-3.5
		c3.2-0.6,2.3-1.8,2.7-2.7c0.3-0.9,0.7-3,1.1-4.6c0.3-1.7-2.3-0.7-3.1,0.6c-0.7,1.3-1.6,0.2-2.4-0.9c-0.9-1.1-2.5-1.3-2.9-2.6
		c-0.2-0.5-0.3-0.5-0.1-1l0.1-0.4l-0.1,0C47,309.5,45.4,309.3,44.9,308.8z"/>
	<path class="st1" d="M180.3,262.7c-0.1-2.7-0.6-3.3-1.3-3.7c-0.3-0.2-0.6-0.4-0.7-0.6c-0.4,0.1-0.6,0.3-0.8,0.6
		c-0.8,1.6-1.9,3.8-2.7,2.1c-0.9-1.7-1.4-2.5-2.5-1.2c-1.1,1.3-4.8,2.2-5.7,4.8c-0.9,2.6-2.3,5.3-5,4.9c-2.7-0.4-5.7,0.8-6.5,1.5
		c-0.7,0.7-4,2.8-4,4.7c0,1.9-2.5,2.4-3,3c-0.5,0.5-2.4,1.8-2.2-0.7c0.2-2.4,0-6.3-1.3-9.2c-1.3-2.9-5-2.1-7.9-2.8
		c-2.8-0.7-2.9-0.2-5.3,1c-2.4,1.2-3.9,2.7-4.7-0.1c-0.7-2.7-0.3-3.6-1.6-5c-1.3-1.4-0.7-1.9,0-3c0.7-1.1,1.9-1.9,1-3.6
		c-0.9-1.8-1.4-1.9-1-3c0.4-1.2-1-0.8-1.8,0s-2.3,2.7-1.7-0.8c0.6-3.5-0.4-10.3-0.4-10.8c-0.1-0.5,0-3,3.1-4.3
		c3.1-1.3,3.3-0.8,3.7,0c0.4,0.8,3.6,1.1,3.2-2.4c-0.4-3.4-1.2-3,1-3.7c2.2-0.7,2.1-1.6,3.8-3.9c1.7-2.2,4.5-5.9,4.8-6.5
		s-0.1-1.1-1.3-1.4c-1.3-0.3-1.6-0.9-0.3-2s1.9-3.5,3.1-4.5c1.3-1,2.7-2.7,2-3.3s-2.3,0-1.2-2.2c1.1-2.2,2.7-2.3,3.6-2.6
		c0.8-0.3,2-0.7,0.7-2.6c-1.3-1.9-1-4.3-0.2-5.7s0.2-1.3-1.3-2.9c-1.5-1.6-1.9-0.7-2.7,0s-2.6-0.6-3.5-2.2c-0.9-1.6-1.3-2.2-2.1-3.7
		c-0.3-0.6-0.8-1.5-1.2-2.5c-1.5,1.3-2.9,2.7-4.4,3.9c1.5,1,3,1.9,3.8,2.8c2.4,2.6,3.6,4.9,2.5,5.3s-3.5,0.9-3,2s1.4,0.9,1.2,2.7
		c-0.2,1.7-0.1,5,1,5.7c1.1,0.7,3.1,1.1,2.1,2.6s-1.5,3.8-3.2,3.8s-2.5,1.3-4.2-0.4c-1.7-1.7-2-1.5-3.1-0.5s-2.3,1.9-3.7,0.9
		s-1.3-0.6-2.6-0.1s-1.2,0.2-2.8-2c-1.7-2.2-3.2-4.8-3.6-7.2c-0.3-1.7-0.3-5.4,0-8.2c-0.2-0.1-0.5-0.2-0.7-0.3c-1.9-0.6-1.5-3-2.1-5
		c-0.6-2-1.6-2.2-1.9-3.3c-0.3-1.2,0.3-1.9-0.1-3.8c-0.4-1.9-4.5,0.6-5.7,1.1c-1.2,0.5-3.6,1.8-4.7,3.9c-1,2.2-4.1,2.2-6.8,2.8
		c-2.7,0.7-4.2,3.3-7.5,5.4c-3.3,2.2-4,1.3-6.1,1.6c-2.1,0.4-2.4-1.2-2.4-1.2l-0.3,0.9c-0.4,1.3-1.2,2.5-2.2,3.9
		c-1.7,2.4-0.8,5.6-0.4,7.9c0.4,2.2-0.9,3.1-3.7,5.3c-2.8,2.3-4,5.1-4.7,6.2c-0.8,1.1-3.3,3-4.8,3.6c-1.4,0.6-4.4,2.6-6.3,3.4
		s-3.8,2.8-4,3.2c-0.2,0.4-7.8,7.9-8.4,8.6c-0.6,0.7-6.8,7-6.8,7s-2.2,2.2-3,3.1c-0.8,0.9-1.4,1.4-1,2.2c0.4,0.8,1.7,3.3,3.4,5.4
		c1.7,2.1,0.8,2.3,0.1,3.5c-0.7,1.1-5.8,7.6-7.3,9.7c-1.4,2.2-0.8,3.3-0.1,5.5c0.8,2.2-0.3,2.4-1.4,4.3c-1.1,1.9-0.1,2.5,1,3.1
		c1.1,0.6,3.8,2.5,6.3,4.2c2.4,1.7,2.2,3.4,2.2,5.5c0,2.1-1.4,4.7-1.8,5.3c-0.2,0.4-1.3,2.4-2.2,4.4c0,0,1.9,0.2,2.4,0.6
		s2.2,1.7,4.5,2.8c2.3,1.2,4.6,1.8,5.1,2.3c0.4,0.4,2,0.7,2.5,0.5c0.1,0,0.1-0.1,0.1-0.1c0.4-0.9,1-1.7,1.1-2.5
		c0.2-1.2,0.2-1.9-2.7-3c-2.9-1-0.9-1.4,0.4-2.9c0.5-0.5,0.6-0.9,1-1.8l0.1-0.4c0,0-0.7-0.1-2.4-0.9c-1.7-0.9-3.2-1.1-3.5-1.7
		c-0.3-0.6-1.3-0.1-1-1.1c0.3-1,0-1.5-1.2-2c-1.2-0.5-2-0.8-1.6-1.8c0.4-1,1-2.2,2.7-0.8c1.7,1.4,4.2,2.2,5.4,2.7
		c0,0,2.6,0.8,2.7,1.4c0,0.6,0.4,0.6,0.4,0.6c0.4-0.8,0.5-0.9,1.1-1.4c1.9-1.7,3.8-2.5,6.6-4.8c2.8-2.3,11.1-5.1,12.9-5.6
		c1.8-0.5,12.6-3.6,13.7-3.9c1.1-0.3,7-1.8,9.6-2.3c1.3-0.3,3.1-0.5,4.9-0.6c0.1,0,0.2,0,0.2,0c0.1,0,0.1,0,0.2,0
		c0.6-0.1,1.2-0.1,1.8,0c0.9,0,1.8,0,2.5,0.1c2.6,0.3,8.5,1.3,9.9,1.9c1.3,0.6,9.2,3.1,10.7,3.2c0.6,0,0.9,0.2,0.9,0.4l0.2,0.3
		c0.5-0.1,3.1-0.6,3.9-0.4c0.9,0.2,1.4,1.6,2.5,3.6s1.9,3.6,2.7,4.5c0.8,0.8,1.5,1.3,1.2,2.8c-0.3,1.6-0.2,3.8,1.3,4.9
		s3.8,0.7,3.9,2.9c0.1,2.2,0.8,5.4,1.2,6.1c0.4,0.7,0.7,1.1,1.8,1.7c1.1,0.6,1.2,0.8,1.7,2.3c0.5,1.5,1.1,2.5,1.8,4.6
		s0.3,1.9,2.2,3.9c1.9,2,3.1,3.5,3.5,5.3c0.4,1.8,0.4,2.8,1.8,2.2c1.4-0.6,3.9-1.3,5.3-1.5c1.4-0.2,2.3-0.4,2.8-1.7
		c0.6-1.2,1.6-4.2,3.6-5.9c1.9-1.7,5.9-3.9,7-6.1c1.1-2.2,0.9-2.8,1.1-4.5c0.2-1.7,1.1-4,2.5-5.5c0.4-0.4,0.9-0.7,1.3-1
		c-0.1-0.5-0.2-1-0.2-1.4c0-2.9-0.9-5.7-2.1-7.6c-1.2-1.9-1.1-2.2-0.7-5c0.4-2.8,1-2.7,0.4-4.6c-0.7-1.9-1.8-3.1,0-3.1
		s3.7-0.9,3.6-4c-0.1-3.1-0.4-4.1,0.6-6.3C179.7,266.5,180.4,265.4,180.3,262.7z M122.3,220.1c0.8-1.2,2.6-0.9,3.7-1.4
		c1.1-0.6,1.4-2.9,1.4-2.9c0.1-0.3,0.9-0.3,1.9-1.2c1-0.9,1.9,1.3,2.4,2.3c0.6,1,1.6,1.8,0.7,2.3c-0.9,0.4,0.1,2.3-0.5,3.1
		c-0.6,0.8-3.6-0.3-5-0.8c-1.4-0.5-3.3,0.3-4.1,0.7C122,222.6,121.5,221.4,122.3,220.1z M119.8,220.3c-0.6,0.3-0.6,1.9-0.9,2.4
		c-0.3,0.6-1.2,1.2-1.7,1s-1.5-2.3-1.2-3.8c0.3-1.5,1.7-1.6,1.7-1.6c0.5-0.1,1.6-0.4,2.1,0C120.4,218.9,120.4,220,119.8,220.3z"/>
	<path class="st1" d="M48.5,294.5c0-0.6-2.7-1.4-2.7-1.4c-1.2-0.5-3.7-1.3-5.4-2.7c-1.7-1.4-2.3-0.2-2.7,0.8c-0.4,1,0.4,1.2,1.6,1.8
		c1.2,0.5,1.5,1.1,1.2,2c-0.3,1,0.7,0.5,1,1.1c0.3,0.6,1.8,0.8,3.5,1.7c1.7,0.9,2.4,0.9,2.4,0.9c0.3-1,1-2.6,1.4-3.6
		C48.9,295.1,48.5,295.1,48.5,294.5z"/>
	<path class="st1" d="M339,257.5c-2.1-1.4-2.9-5-3.6-7.4s0.7-7.9,1.4-10.1c0.7-2.3-1.5-2.8-2.4-3.5c-0.1-0.1-0.1-0.1-0.2-0.1
		c-0.9-0.4-2.2,0.8-3.1,2.5c-0.9,1.8-1.7,7.8-2.4,11.2c-0.8,3.4-4.4,5.2-6.5,6.6c-2.1,1.4-10.1,4.8-11.2,5.1
		c-1.1,0.3-1.3,0.6-3.3-0.8c-2.1-1.4-5.7-1.8-8-1.3s-3.3-1.5-4.8-2.8c-1.6-1.3-3.1-1.6-5.3-1.3c-2.3,0.3-2.8-0.1-4.9-1.4
		c-2.1-1.3-2.3-0.1-3.1,0.7c-0.8,0.8-2,1-3.8,2.6c-1.8,1.6-0.2,3.3-0.9,4.6c-0.7,1.3-1.3,3.6-2.8,3.8c-1.5,0.2-2.2,1.2-3.1,2.3
		c-0.8,1.1-3.5,0.6-4.7,1.4c-1.2,0.8-3.2,1.2-5.3,0.9c-2.1-0.2-3.6,2.4-4.7,3.6c-1.1,1.2-2.7,2.6-4.5,3.3c-1.8,0.7-6,3.5-7.6,4.4
		c-1.6,0.9-3.2-0.2-5.1-0.9c-1.9-0.7-4-1.4-5.3-2.7c-1.3-1.3-2-0.1-2.3,0.3c-0.3,0.4-1.9,1.9-2.9,3.6c-0.9,1.7-1.9,1.8-2.8,1.2
		c-0.9-0.7-3,0.3-5.1,1c-2.1,0.7-3,0.9-3.6,1.8c-0.7,0.9,2.3,1.2,4,1.2c1.7,0,0.6,1.5,0.1,1.7c-0.4,0.2-6.4,1.2-7.8,1.5
		c-1.4,0.3-4.2-1.1-5.1-1.2c-0.9-0.1-5.6,2.1-7.3,2.6c-1.7,0.6-3,1.3-3.6,2.5c-0.6,1.2-4.2,1.4-5.7,2.3c-1.4,0.9-2.1,0.5-2-1.6
		c0.1-2.1-0.4-2.5-3-2.1s-3.3,3.1-3.6,4.8c-0.3,1.7-2.3,2.3-3.2,2.3c-0.6,0-1.6,0.1-2.6,0.5c-0.4,0.2-0.9,0.5-1.3,1
		c-1.4,1.4-2.3,3.8-2.5,5.5c-0.2,1.7,0,2.3-1.1,4.5c-1.1,2.2-5.1,4.4-7,6.1c-1.9,1.7-3,4.7-3.6,5.9c-0.6,1.2-1.4,1.5-2.8,1.7
		c-1.4,0.2-4,0.9-5.3,1.5c-1.4,0.6-1.4-0.4-1.8-2.2c-0.4-1.8-1.6-3.3-3.5-5.3c-1.9-1.9-1.5-1.8-2.2-3.9s-1.3-3.1-1.8-4.6
		c-0.5-1.5-0.6-1.7-1.7-2.3c-1.1-0.6-1.4-0.9-1.8-1.7c-0.4-0.7-1.1-3.9-1.2-6.1c-0.1-2.2-2.4-1.8-3.9-2.9s-1.6-3.3-1.3-4.9
		c0.3-1.6-0.4-2-1.2-2.8c-0.8-0.8-1.6-2.5-2.7-4.5s-1.6-3.3-2.5-3.6c-0.8-0.2-3.5,0.3-3.9,0.4c0,0-0.1,0-0.1,0
		c0.1,0.3-0.2,0.5-0.1,1.2c0.2,1.2-0.6,4.5-0.6,6s-2.6,4-3.7,4.8c-1.1,0.8-0.3,2.1,0.1,3.1c0.3,1.1,2.4,6.1,2.7,7.3
		c0.2,1.2,3.7,3.9,5.6,5c1.9,1.1,1,2.3-0.1,3.3c-1.1,1-2.3,5.1-4,7.5c-1.7,2.3-0.9,4.1-0.6,6.4c0.3,2.3-1.1,4.1-2.2,5.2
		c-1.1,1.1-1.1,1.6-0.9,3.5c0.1,1.9,0.9,2.7,2.6,3.1c1.7,0.4,7.6,1.2,9.7,1.8c2.1,0.6,2.1,0.6,1.7,2.1c-0.4,1.6-1.9,6.1-2,7.7
		c-0.1,1.7-1,3.2-0.1,4.8c0.9,1.6,1.5,0.7,1.3-0.6c-0.2-1.3,0.7-0.8,1.4-0.4c0.7,0.4,3.2,0.9,4.1-0.6c0.9-1.5,1.8-1.1,2.3-0.2
		c0.5,0.8,1.4,1.7,2.6,4.6c1.2,3,1.4,2.7,2.9,3c1.5,0.3,2,0.9,2.4,1.8c0.4,0.9,1.4,3.9,1.6,5.7c0.1,1.8,1.8,3.5,3.5,4.8
		c1.6,1.3,1.8,2.1,1.2,4.5c-0.7,2.4,0.7,2.8,1.9,4.5c1.2,1.7,3.2,3.7,3.6,5.5c0.4,1.8,1.1,2.9,2.4,3.8c1.3,0.9,3.7-1.7,5.1-2.9
		c1.3-1.3,2.1-1.1,2.8-0.2s1.9,2.3,3.8,2.7c1.9,0.4,2.3-1.7,2.5-4.2s2.2-1.4,4.7-1.6c2.5-0.2,2.7-0.8,5.1-3.5
		c2.4-2.6,3.8-1.5,6.7-1.4c2.9,0.1,5.5,1.5,6.7,2.7c1.2,1.2,1.6,0.1,3.2-1.3c1.7-1.4,5-3.8,7.1-5.1c2.1-1.3,0.9-2.3,1.7-3.5
		c0.8-1.2,3.8-1.6,6-1.5c2.2,0.1,4-0.7,3.8-2.2c-0.1-1.4-0.1-2.1,0.9-2.7c0.9-0.6,4.1-0.3,5.2,1.1c1.1,1.3,2.2,1.1,3.3,1
		c1.1-0.1,2.4,0.2,5-0.6c2.6-0.8,3.7,0.9,5,2.7c1.3,1.7,2.1,2.4,1.8,4.5c-0.2,2.1,0.2,2.6,1.3,3.2c1.1,0.6,2.7-1.2,3.5-2.4
		s1.8-1.3,4.1,0.4c2.3,1.8,4.3,1.8,6.2,0.8c1.9-1,3.7,0.1,5.3,1.4c1.6,1.3,2.6-0.3,3.2-1.1c0.7-0.8-0.2-1.9-0.9-3.2
		c-0.8-1.3-0.1-2.6,0.5-4.6c0.6-2,1.6-3.1,3.1-4.8c1.5-1.7,5-1.5,8-1.4c3.1,0.1,3.7-0.9,4.6-1.8c0.9-0.9,3.1-2.3,3-3.7
		c-0.1-1.3,0.4-2.4,1.2-3.6c0.7-1.2,0.8-1.6,0.2-3.5s-0.4-1.7,0.2-3.1c0.6-1.3,0.6-3.7,1.7-5.1s4.5-1,7.3-1.3
		c2.9-0.3,2.6-1.4,2.7-2.7c0.2-1.3,1.8-1.8,3.8-2.4c2-0.6,2.4-4.3,2.4-6.4c0.1-2.1,0-3.1-0.7-4.2c-0.7-1.1-1.4-3-2-4.2
		c-0.6-1.2-1.3-1.9-2.5-2.3c-1.2-0.4-1.8-0.2-2.8-2.3c-1-2.1-0.8-1.8-2.3-2.4c-1.4-0.7-0.4-1.6,0.5-3c0.9-1.4,2.7-3.2,4.1-4.6
		c1.4-1.4,5-1.7,7.5-2c2.4-0.3,3.3-3.2,4.5-4.6c1.2-1.4,2.4-2.1,4.1-2.5c1.7-0.3,2.3-1.3,2.3-2.8s0.7-1.7,1.6-2.6
		c0.9-0.9,2.3-2,3.9-2.9c1.6-0.9-0.4-3.2-1.3-4c-0.9-0.8-1.4-1.7-0.8-2.5c0.6-0.8,1.1-2,2.4-3.3c1.3-1.3,2.8-2,5.5-2.4
		c1.2-0.2,2.5-0.6,4-1.3l0.5-0.2c0,0-0.3-0.4-0.3-2s0.1-3.3,0.1-4.4c0.1-1.1-0.1-1.3,0.9-1.4c1.1-0.1,2-0.1,3.5-0.5s3-1.1,3.7-3
		c0.7-1.8,1.2-2.6,1.5-3.3c0.1-0.3,0.4-0.6,0.7-0.9C342.5,259.7,340.4,258.5,339,257.5z"/>
	<path class="st1" d="M179.6,257.3c2-0.7,3.3-3.9,4.7-4.9c1.3-1,3.5-1.5,4.2-1.6c0.7-0.1,3.5-2.8,1.7-5.2c-1.8-2.4-0.8-3.8-0.1-4.2
		s1.6-0.4,1.3-2.1c-0.2-1.7-0.3-2.7,1.8-2.2c2.1,0.5,3.6,1.9,4.2-1.6s1-5.9,0-6.7c-1-0.8-1.9-0.4-2-2.1c-0.1-1.6-4.5-1.7-5.5-2.4
		c-1-0.7-2.7-1.9-1.6-4c1.2-2.1,0.5-2.3-0.1-3.9s-0.5-3,0.7-4.3c1.2-1.3,1-4.1,1.7-5.6c0.7-1.5,3-2.7,1.5-5
		c-1.5-2.2-2.9-2.3-2.6-3.6s2.5-2.6,3.5,0c1,2.6,1.6,2.1,2.2,1.1c0.6-1,1.6-4.8,0.8-6.2s-3.1-3.2-6-2.4c-2.9,0.7-5.6,2.7-6.9,0.2
		c-1.3-2.5-2.7-2.3-4.1-2c-1.3,0.3-4.3,1.5-5.3-0.2c-1-1.7,0.1-2.3,1.9-3c1.7-0.7,1.8-1.5,0.6-2.7c-1.2-1.2-0.4-2.1,0-3.6
		c0.4-1.6-1.3-1.1,0.2-4.4c1.5-3.3,3-2.6,1.8-4.8s-3.2-2.5-3.9-1.9c-0.7,0.7-3,3.3-5,3.6s-9,2.6-10.7,2.6c-1.3,0-2.1,0.1-2.8-0.8
		c-0.2,1.3-0.2,2.6-0.1,3.5c0.5,2.6,3.3,5.9,4.2,8c1,2.1,2.4,3.6,3.3,4.5c0.9,1,0.8,1.5,0.4,2.1c-0.4,0.6-1.8,0.7-1.7-0.4
		c0.1-1-2.9-1-3.4-0.6s-0.7,1.4,0.1,3.1c0.7,1.7-0.1,2.8-1.1,3.3s-3.1,2.2-3.6,1.8c-0.4-0.4-0.3-3-0.6-5.6c-0.3-2.5-2.8-1.9-5.7-4.2
		c-2.9-2.2-0.1-1.8,0.1-3c0.1-1.2-1.9-1.4-2.7-2.1c-0.5-0.4-1.4-3.2-2.2-6c-1.9,1.8-4,3.7-6.2,5.7c0.4,1,0.9,1.9,1.2,2.5
		c0.8,1.6,1.2,2.1,2.1,3.7c0.9,1.6,2.6,3,3.5,2.2c0.9-0.7,1.3-1.6,2.7,0c1.5,1.6,2.1,1.5,1.3,2.9s-1,3.9,0.2,5.7
		c1.3,1.9,0.1,2.3-0.7,2.6c-0.8,0.3-2.4,0.4-3.6,2.6c-1.1,2.2,0.4,1.6,1.2,2.2c0.7,0.6-0.7,2.3-2,3.3c-1.3,1-1.9,3.3-3.1,4.5
		s-1,1.7,0.3,2c1.3,0.3,1.6,0.9,1.3,1.4s-3,4.2-4.8,6.5c-1.7,2.2-1.6,3.1-3.8,3.9c-2.2,0.7-1.5,0.3-1,3.7c0.4,3.4-2.7,3.2-3.2,2.4
		s-0.6-1.3-3.7,0c-3.1,1.3-3.2,3.8-3.1,4.3c0.1,0.5,1,7.3,0.4,10.8c-0.6,3.5,0.9,1.6,1.7,0.8c0.8-0.8,2.2-1.2,1.8,0
		c-0.4,1.2,0.1,1.3,1,3c0.9,1.8-0.3,2.5-1,3.6c-0.7,1.1-1.3,1.6,0,3c1.3,1.4,0.9,2.2,1.6,5c0.7,2.7,2.2,1.3,4.7,0.1
		c2.4-1.2,2.5-1.6,5.3-1c2.8,0.7,6.5-0.1,7.9,2.8c1.3,2.9,1.6,6.8,1.3,9.2c-0.2,2.5,1.6,1.2,2.2,0.7c0.5-0.5,3-1.1,3-3s3.3-4,4-4.7
		c0.7-0.7,3.8-1.9,6.5-1.5c2.7,0.4,4.1-2.3,5-4.9c0.9-2.6,4.6-3.5,5.7-4.8c1.1-1.3,1.6-0.6,2.5,1.2c0.9,1.7,1.9-0.4,2.7-2.1
		c0.1-0.3,0.4-0.5,0.8-0.6C178.2,258,178.4,257.7,179.6,257.3z M164.6,185.8c0.3-0.9,2.2-1.3,2.2-1.3c0.8,0.3,1,2.6,0.6,3.6
		c-0.4,0.9-1.1,1.9-1.6,1.5S164.3,186.8,164.6,185.8z"/>
	<path class="st1" d="M132.9,141.9c0.8,1.7,0.1,6-0.1,7.4c-0.3,1.4-1.1,2.3-0.6,3.3c0.5,1,1.3,0.4,3.1-1.6c1.8-2,3.8-1.8,6.3-1.9
		s3.3-0.1,3.6-0.8c0.3-0.7,2.2-1.6,3.6-1.9c1.3-0.3,4.3-1.9,4.6,0.3c0.3,2.2-1,2.2-0.9,3.3c0.1,1.2,2.1,2.2,2.6,1.5
		c0.5-0.7,1.2-0.9,2.4-0.4c1.2,0.4,1.9,1.7,1.3,4.2s1.9,1.9,2.4,3.2s-1.4,1.5-3,2c-1.6,0.5-2.7,1.3-4.4,2.9c-1.6,1.6-1.3,6-1.3,6
		c0.7,0.4,1.9,1.8,2.7,3.6c0.2,0.4,0.3,0.7,0.5,0.9c0.6,0.9,1.4,0.8,2.8,0.8c1.7,0,8.6-2.2,10.7-2.6c2.1-0.4,4.3-3,5-3.6
		s2.7-0.3,3.9,1.9s-0.3,1.5-1.8,4.8c-1.5,3.3,0.2,2.8-0.2,4.4c-0.4,1.6-1.2,2.4,0,3.6c1.2,1.2,1.1,1.9-0.6,2.7
		c-1.7,0.7-2.8,1.3-1.9,3s3.9,0.5,5.3,0.2c1.3-0.3,2.8-0.5,4.1,2c1.3,2.5,4,0.5,6.9-0.2c2.9-0.7,5.2,1,6,2.4s-0.2,5.3-0.8,6.2
		c-0.6,1-1.3,1.5-2.2-1.1c-1-2.6-3.2-1.2-3.5,0c-0.3,1.2,1.1,1.4,2.6,3.6c1.5,2.2-0.7,3.5-1.5,5c-0.7,1.5-0.5,4.2-1.7,5.6
		c-1.2,1.3-1.3,2.7-0.7,4.3s1.3,1.8,0.1,3.9c-1.2,2.1,0.6,3.3,1.6,4c1,0.7,5.4,0.7,5.5,2.4c0.1,1.6,1,1.3,2,2.1c1,0.8,0.5,3.2,0,6.7
		s-2.1,2.1-4.2,1.6c-2.1-0.5-2,0.5-1.8,2.2c0.2,1.7-0.7,1.7-1.3,2.1s-1.6,1.8,0.1,4.2c1.8,2.4-1,5.1-1.7,5.2
		c-0.7,0.1-2.8,0.6-4.2,1.6c-1.3,1-2.7,4.2-4.7,4.9c-1.2,0.4-1.4,0.7-1.2,1c0.1,0.2,0.4,0.4,0.7,0.6c0.7,0.4,1.1,1,1.3,3.7
		s-0.6,3.8-1.6,6c-1,2.2-0.7,3.2-0.6,6.3c0.1,3.1-1.8,4-3.6,4s-0.7,1.3,0,3.1c0.7,1.9,0.1,1.8-0.4,4.6c-0.4,2.8-0.5,3.2,0.7,5
		c1.2,1.9,2.1,4.7,2.1,7.6c0,0.4,0.1,0.9,0.2,1.4c1-0.5,2-0.5,2.6-0.5c0.9-0.1,2.9-0.6,3.2-2.3c0.3-1.7,1-4.4,3.6-4.8s3.1-0.1,3,2.1
		c-0.1,2.1,0.6,2.6,2,1.6c1.4-0.9,5.1-1.2,5.7-2.3c0.6-1.2,1.9-1.9,3.6-2.5c1.7-0.6,6.4-2.7,7.3-2.6c0.9,0.1,3.7,1.5,5.1,1.2
		c1.4-0.3,7.4-1.3,7.8-1.5c0.4-0.2,1.6-1.7-0.1-1.7c-1.7,0-4.7-0.3-4-1.2c0.7-0.9,1.5-1.2,3.6-1.8c2.1-0.7,4.2-1.7,5.1-1
		c0.9,0.7,1.8,0.6,2.8-1.2c0.9-1.7,2.6-3.2,2.9-3.6c0.3-0.4,0.9-1.6,2.3-0.3c1.3,1.3,3.4,2,5.3,2.7c1.9,0.7,3.5,1.9,5.1,0.9
		c1.6-0.9,5.7-3.7,7.6-4.4c1.8-0.7,3.4-2.1,4.5-3.3c1.1-1.2,2.7-3.8,4.7-3.6c2.1,0.2,4.1-0.2,5.3-0.9c1.2-0.8,3.8-0.3,4.7-1.4
		c0.8-1.1,1.6-2.1,3.1-2.3c1.5-0.2,2.1-2.5,2.8-3.8c0.7-1.3-0.9-3,0.9-4.6c1.8-1.6,3.1-1.8,3.8-2.6c0.8-0.8,1-2,3.1-0.7
		c2.1,1.3,2.6,1.7,4.9,1.4s3.8,0,5.3,1.3c1.6,1.3,2.6,3.3,4.8,2.8s5.9-0.1,8,1.3c2.1,1.4,2.3,1.1,3.3,0.8c1.1-0.3,9.1-3.7,11.2-5.1
		c2.1-1.4,5.7-3.2,6.5-6.6s1.5-9.4,2.4-11.2c0.9-1.7,2.1-2.9,3.1-2.5c-0.1-0.2-0.1-0.4-0.2-0.6c-1-2-2.2-5.6,1.5-6.2
		s5.1-1.6,4.3-4.5c-0.8-2.9-1.8-5.2-0.7-7.3c1.1-2.2,0.6-2-0.1-2.8c-0.3-0.3-0.4-0.6-0.4-0.9c-0.9-0.1-1.6-0.2-2-0.5
		c0,0-5.3-1.6-7.7-3c-0.8,0.4-1.6,0.7-2.2,1c-1.8,0.9-6.1,2.8-8.1,3.7c-2,0.8-1.9,1.2-3.3,0.2c-1.4-1.1-2.2-0.6-3.2-0.2
		c-0.9,0.4-1.3,1.1-3.7-0.3c-2.4-1.4-4.1-0.7-6-0.3c-1.9,0.4-3.7,0.2-4.1,0s-4.3-2.3-5-3.9c-0.7-1.6-2.8-1.2-5-0.8
		c-0.3,0-0.5,0.1-0.7,0c-1.6,0.3-2.8,0.6-3.2,0.6c-1.3,0-3.2-0.4-4.2,1.3c-1.1,1.7-3.2,0.7-4.6-0.3c-1.3-1-0.8-2.9-4.6-5.4
		c-3.7-2.5-7.7-3.5-7.9-5.1c-0.2-1.6,0.7-2.6,0-4.5c-0.7-1.9-1.4-2.4-0.5-4.3c0.9-1.8,1.5-3.1,1.3-5.6c-0.2-2.4,0.3-4,2.2-3.9
		c1.9,0.1,2.1,0.9,3.1-1.2c1-2.2,3.3-7.3,3.8-8.6c0.5-1.2,0.7-3.4,0.7-4.3c0-0.9,0.2-0.9-1.6-1.1c-1.7-0.1-5.5,0.4-6.2-1.6
		c-0.7-2.1-2.8-5.3-3.3-6.5c-0.4-1.2,0-4.1,0-5.5s0.2-6.2,0.6-7.1c0.4-0.9,2.4-1.3,1-3.7s-1.1-3.4-1.2-4.8s0.9-3.5-0.6-5.2
		c-1.6-1.7-3.5-5.2-3.8-6.5s-0.5-3.2-0.5-3.2l0,0c-0.3-0.6-0.6-1.7-0.8-2.5c-0.3-1.3-1-1.9-0.6-3.3c-1.3-0.1-2.9-0.3-3.5,0.2
		c-1,0.6-1,2-1.5,2.2c-0.5,0.2-2.4-0.9-2.3-2.1c0-1.2-1-2-1.7-1.4s-1.3,2-1.7,2c-0.4,0-2.7,0-4.3-2.1s-1.9-2.1-4.1-3.6
		c-2.2-1.4-3-0.2-4.8,0.6s-3.2,1.3-4.3,1.6c-1.1,0.4-3.2,0.6-3.2,1.6c0,1,0.4,3.5,0.9,5.3c0.4,1.9,2.9,2.1,4.3,3s1.6,2.1,1.9,3.6
		c0.3,1.6,0.6,1.6,1.8,2c1.2,0.4,1.6,0.3,1.7,2c0.1,1.7,0.1,2.4-0.6,2.9c-0.8,0.5-2,1.4-2.2,3.1c-0.2,1.7-4.1,1.5-5.8,1.3
		c-1.7-0.2-3.3-1.3-3.8-2.6c-0.6-1.3-2.6-0.4-3.6-0.2c-2.2,0.4-2.7,2.6-3.3,5.2c-0.7,2.6-4.1,3.6-6.5,4.7c-2.4,1.1-0.8,2.7-0.7,4
		c0.1,1.3-1.6,2.4-2.9,3.1s-1.2-0.7-1.6-2.9c-0.4-2.2-4.2-0.8-5.2-0.1s-2.3-1.9-3-3.3c-0.7-1.4-2.2-1.6-0.1-3
		c2.1-1.4,6.2,2.2,6.9,1.7c0.7-0.4,0.1-1.7-0.8-3.1c-1-1.4,1.5-3.1,3.9-4.5c2.4-1.4,5.9-0.3,6.6-1.1c0.7-0.8-0.3-2.2-1.3-3.8
		c-1-1.6-1-1.3-3.3-0.9c-2.4,0.4-2.5,0.7-4.2,2.2c-1.7,1.6-4.4,1.3-4.4,1.3c-0.2-0.3-0.4-0.7-0.4-1.1c-0.4-2.2-2.8-3.4-4.7-4.2
		c-1.9-0.7-1.8-2.2-2.8-3.5c-1-1.3,0.9-1.7,2.6-2c1.7-0.4,4.8-2.3,6.3-3.2s1.6-2,1.9-3.2c0.3-1.2,3.9-1.4,5.5-2.3
		c1.6-1,2.3-1.7,2.7-3.2c0.4-1.4,3.3-1.9,5.7-2.2c2.3-0.4,2.6-1.7,3-2.7c0.2-0.4,0.3-0.8,0.5-1.3c-1.6-0.1-3.5-0.1-4.7,0.6
		c-1.6,0.9-3.8,1.9-6.2,1.9c-2.4,0-8.6-1.4-10.1-2s-2-2.2-3.2-1.3s-4,3.5-5.8,5.7c-1.8,2.2-4.9,2.1-8.8,1.7
		c-3.9-0.4-5.6-1.1-8.7-1.8c-3.1-0.7-3.2,1.2-3.1,3c0.1,1.8-0.8,1.6-1.8,2.2c-1,0.6-0.8,1-0.3,1.9c0.5,0.9,0.1,1.8-0.6,2.4
		c-0.6,0.6-5.1,1.9-7,1.4c-1.8-0.4-2.7-0.3-3.6,0.7c-0.9,1-2.5,3.7-3.3,5.6c-0.8,1.8-2.3,1.6-3.8,2.8s-2.6,2.9-2.7,3.5
		c-0.2,0.6-1.4,0.4-3-0.9c-1.6-1.4-3.8-0.6-4.5,1.5c-0.7,2.1-1.5,1.9-3.7,3.1c-2.2,1.1-2.6-0.7-3.4-2.1c-0.8-1.4-3.1-1.5-3.1-1.5
		l0.2,0.5c0.3,0.7,0.3,1,0,1.6l-0.2,0.3c0,0,1.3,0.9,2,1.4C131.5,140.4,132.9,141.9,132.9,141.9z M238.2,136.4c1-0.3,1,0.5,1.1,0.8
		c0.1,0.3,0.1,1-0.8,1.7c-1,0.7-1.6,0.9-2-0.2C236,137.6,238.2,136.4,238.2,136.4z"/>
	<path class="st1" d="M116.3,195.6c-0.3,2.8-0.4,6.5,0,8.2c0.4,2.4,1.9,5,3.6,7.2c1.7,2.2,1.6,2.5,2.8,2c1.3-0.5,1.2-0.9,2.6,0.1
		c1.3,1,2.6,0.1,3.7-0.9c1-1,1.3-1.2,3.1,0.5c1.7,1.7,2.5,0.4,4.2,0.4s2.2-2.3,3.2-3.8s-1.1-1.9-2.1-2.6c-1.1-0.7-1.2-4-1-5.7
		c0.2-1.7-0.7-1.6-1.2-2.7s1.9-1.6,3-2c1.1-0.4-0.1-2.7-2.5-5.3c-0.8-0.8-2.2-1.8-3.8-2.8c-5.1,4.5-9.6,8.3-10.7,8.6
		C118.8,197.3,117.7,196.3,116.3,195.6z"/>
	<path class="st1" d="M80.7,198.2c2.1-0.4,2.7,0.5,6.1-1.6c3.3-2.2,4.8-4.8,7.5-5.4c2.7-0.7,5.8-0.7,6.8-2.8c1-2.2,3.5-3.4,4.7-3.9
		c1.2-0.5,5.3-3,5.7-1.1c0.4,1.9-0.1,2.6,0.1,3.8c0.3,1.2,1.3,1.3,1.9,3.3c0.6,2,0.2,4.4,2.1,5c0.2,0.1,0.5,0.2,0.7,0.3
		c1.5,0.7,2.6,1.6,4.9,1.1c1.1-0.3,5.6-4,10.7-8.6c1.4-1.3,2.9-2.6,4.4-3.9c2.2-2,4.3-4,6.2-5.7c3.5-3.3,6.2-5.8,6.6-6.2
		c1.3-1.2,3.3-3,3.3-3s-0.3-4.5,1.3-6c1.6-1.6,2.8-2.4,4.4-2.9c1.6-0.5,3.5-0.7,3-2s-2.9-0.7-2.4-3.2c0.5-2.4-0.1-3.7-1.3-4.2
		c-1.2-0.4-1.9-0.3-2.4,0.4c-0.5,0.7-2.5-0.3-2.6-1.5c-0.1-1.2,1.2-1.1,0.9-3.3c-0.3-2.2-3.3-0.6-4.6-0.3c-1.3,0.3-3.3,1.1-3.6,1.9
		c-0.3,0.7-1,0.7-3.6,0.8s-4.5-0.1-6.3,1.9c-1.8,2-2.6,2.6-3.1,1.6c-0.5-1,0.3-1.9,0.6-3.3c0.3-1.4,1-5.7,0.1-7.4c0,0-1.3-1.5-2-2
		c-0.6-0.4-2-1.4-2-1.4c-0.6,0.8-1.7,1.4-2.5,1.7c-1.4,0.6-7.7,3.6-9.2,4.7c-1.6,1.1-1.4,2.2-1.5,4.7s-4.7,2.8-5.4,3.6
		c-0.7,0.8,0.3,2.7,1.1,5.1c0.8,2.4,0.8,2.3-0.4,2.9c-1.2,0.6-3.7,1.7-5.3,2.2s-2.4,1.8-2.9,3.4c-0.4,1.6-1.3,1.7-1.9,2.1
		c-0.6,0.4-7.8,3.1-9.9,3.8c-2.1,0.8-5.7,2.5-7.5,2.2c-1.7-0.3-2.1,0.2-2.7,1c-0.6,0.8-3.6,3.8-4.7,5.6c-1.1,1.8,0.6,2.8,1.7,4.8
		c1.1,2.1,0.4,5.7,0.6,8.4c0.1,1.1,0.2,1.1-0.1,2C78.3,196.9,78.6,198.5,80.7,198.2z"/>
	<path class="st1" d="M119.8,218.5c-0.6-0.4-1.6-0.1-2.1,0c0,0-1.4,0.1-1.7,1.6c-0.3,1.5,0.7,3.6,1.2,3.8s1.4-0.5,1.7-1
		c0.3-0.6,0.3-2.2,0.9-2.4C120.4,220,120.4,218.9,119.8,218.5z"/>
	<path class="st1" d="M122.8,222.1c0.8-0.4,2.7-1.2,4.1-0.7c1.4,0.5,4.5,1.6,5,0.8c0.6-0.8-0.4-2.7,0.5-3.1c0.9-0.4-0.1-1.3-0.7-2.3
		c-0.6-1-1.4-3.3-2.4-2.3c-1,0.9-1.9,0.9-1.9,1.2c0,0-0.3,2.4-1.4,2.9c-1.1,0.6-2.9,0.2-3.7,1.4C121.5,221.4,122,222.6,122.8,222.1z
		"/>
	<path class="st1" d="M223.7,59c0-0.1,0.1-0.3,0.1-0.4"/>
	<rect x="-76.5" y="219.5" class="st2" width="28.3" height="41.4"/>
</g>
<g id="map-water">
	<path class="st3" d="M356.2,400.1c0,0-1.6,0.5-1.3,4.9c0.3,4.4,2.1,3.9,2.3,4.5c0.2,0.7,2.7,5.8,2.7,6.2s1.8,3.8,2.3,4.4
		s2,1,1.1-1.4c-0.9-2.5-1.9-4.5-2.1-5.9c-0.1-1.4-0.5-3.8-2-4.5c-1.5-0.7-1.4-2.5-1.4-3.4s-0.3-1.8,2.2-1.8s3.8-0.3,3.6-1.9
		c-0.1-1.6-0.9-2.2,0.7-2.9c1.6-0.7,2-3,0.7-5.1c-1.3-2.1-3.6-4.8-3.3-8c0.4-3.3,1.5-2.7,2.1-5.1c0.6-2.4,1.7-3.2,3-3.7
		c1.3-0.5,3-1.5,3.8-3.4c0.7-1.9,1.9-2.2,2.7-2.6c0.8-0.4,2.5-0.7,5.6-5.1c3.1-4.4,2.7-6.1,2-7.3c-0.7-1.3-1.9-1.6-2-3.5
		c-0.1-1.9-0.2-3.7-1.2-5.2c-1-1.5,0.6-3,1.4-3.8c0.8-0.8,3.7-2.9,4.6-4.1c0.9-1.2,4.5-4.6,5.9-5c1.5-0.4,5.4-0.8,5.9-2.9
		c0.4-2.1-2-4.8-3-5c-1-0.1-3,1.3-3.6,1.9c-0.7,0.5-1.1,1.5-1.2,2.3c-0.1,0.8-1,3.7-3.7,1.9s-7.1,5.3-7.3,5.7
		c-0.1,0.4-3.5,4.2-2.5,9.1c1,4.9,3.7,5.9,2.2,9c-1.5,3-4.6,1.3-5.5,2.8c-0.9,1.6-3.5,5.1-4.5,7.4c-1,2.3-3.3,4.5-5,6.1
		s-4.2,1-4.2,3.9c-0.1,3-0.8,1.8-1.9,0.3c-1.1-1.5-5.3-3.7-7.1-2.5c-1.8,1.2-2.1,1.6-0.5,2.4c1.6,0.8,2,2.7,2.4,3.6
		c0.4,0.9,1.6,3.1,3.3,3.5c1.8,0.4,5.4,3,5.2,6.7S358.7,398.8,356.2,400.1z"/>
	<path class="st3" d="M454.6,326.2c0,0-3.3,0.2-3.3,4.2s-0.7,4.1-0.9,4.5s1-0.3,0,2.6c-1,2.9-0.4,7.2-2.3,10.1
		c-1.9,2.9-3.3,9.6-3.7,10.9c-0.3,1.3-2.1,4.1-4.7,5.5c-2.6,1.3-1.6,1-1.4,1.9c0.1,0.9-2.8,2.5-5.1,2.7c-2.3,0.2-4.3,2.7-3.1,6.9
		s1.9,5.7-0.9,8.6c-2.8,2.9-5.3,7.3-6.1,10.4c-0.8,3,1.3,1.9,3,0c1.7-1.9,2.2-5.7,4-6.7c1.8-1,3.6-3.2,4.2-6.2
		c0.7-3,1.7-7.5,3.1-7.8c1.4-0.3,3.7-2,6.6-5.6c2.9-3.6,2.7-3,3.3-1.2c0.7,1.8,3.1,5.8,3.1,7.6c0,1.8,0.8,5.8,5.5,8.3
		c4.7,2.6,10.7,5.3,11.8,8.9c1.1,3.6,3.6,5.7,4.2,6c0.7,0.3,1.3-1.6,0-5s-5.9-9.4-10.8-12.8c-4.9-3.5-6.6-7.5-7.1-12.1
		c-0.6-4.7-2-15.4,0.1-23.7c2.1-8.4,3.7-8.5,4.1-7c0.4,1.4,1.1,2,2,0.6c0.9-1.4,0.7-2.4,0-2.1c-0.7,0.3-0.2-1.7,0.4-2.8
		c0.7-1.1,4.2-7.2,4.1-8.8c-0.1-1.6-1.4-1.3-3.3,0C459.5,325.2,457.5,326.6,454.6,326.2z"/>
	<path class="st3" d="M403.9,363.8c0,0-1.2-0.1-2.1,2.8c-0.9,2.9-2.3,3.7-0.9,3.8c1.4,0.1,1.9,0.4,1.6,2.2
		c-0.3,1.7-0.7,10.5,2.2,6.9c2.9-3.6,5.2-5.4,6.5-3.9c1.3,1.6,0.7,5,2.4,4.7c1.7-0.2,0.5-4.8-0.8-5.8c-1.3-1-3.7-0.6-2.7-4.4
		c1-3.8,1.1-4.9,3.3-6.3c2.2-1.4,5.9-4.3,7.5-4.5s7.8,1.3,9.4-0.7c1.6-2,3-3.5,1.9-3.8c-1.2-0.3-2.9,1.5-3.9,1.9c-1,0.4-7.2,1-8.3,1
		c-1.1,0-2.7,1.9-4,2.7c-1.3,0.8-2.8,2-3.9,1.2c-1-0.7-2.6-1-2.1,1.2c0.5,2.2,0.1,5.1-0.6,6.3c-0.7,1.2-0.7,4.3-2.6,6
		c-1.9,1.7-2.5,2.2-2.7-0.6c-0.1-2.8,0-4.8-0.4-5.6c-0.4-0.8-0.4-2.5,0.6-3.2C405.3,365,405.9,363.2,403.9,363.8z"/>
	<path class="st3" d="M511.1,277.2c0,0-0.9,1.5-2.1,2.4c-1.2,0.9-2.4,2.2-1.3,2.1c1.2-0.1,3-0.2,4.1-2.2c1.1-2,1.7-1.7,1.1-2
		C512.3,277.1,511.5,276.6,511.1,277.2z"/>
	<path class="st3" d="M518.9,270.4c0,0-4,3.3-3.3,4.3c0.7,1,1.7,0.3,2.6-0.4c0.9-0.7,1.8-1.6,2.2-2.7
		C520.7,270.4,520.8,269.2,518.9,270.4z"/>
	<path class="st3" d="M427.9,141c0,0-2.1-0.4-2.9,0.4c-0.8,0.8-1.8,1.8,0.6,1.9c2.4,0.1,4.3,0.1,5.7,0.7c1.4,0.6,4.6,1.7,7.1,1.7
		s3.3-0.7,4.5-0.7c1.1-0.1,5.1,0.7,6.8-0.4c1.7-1.1,0.7-2.2,0-2.4c-0.7-0.2-1.9,1.4-3.4,0.9c-1.4-0.5-3.7-0.6-5.9-0.2
		c-2.2,0.4-5-0.1-6.7-0.8C432,141.4,429.4,141.1,427.9,141z"/>
	<path class="st3" d="M399.9,147.2c0,0-2.8,0.2-1.5,1.6c1.3,1.4,2.7,2,1.8,3.6c-0.9,1.6-0.7,2.9,0.3,1.9c1-1,2.3-3.1,1.5-4.4
		C401.2,148.6,400.4,147.1,399.9,147.2z"/>
	<path class="st3" d="M407.7,163.2c0,0-3.3-0.3-3.7,0.6c-0.4,0.9,1.2,1.3,1.9,0.9c0.7-0.4,3.5-0.6,4.5-1.1c1.1-0.4,2.1-0.9,1.5-1.9
		c-0.6-0.9-2.1-0.7-2.4,0C409.2,162.5,408.3,163.2,407.7,163.2z"/>
	<path class="st3" d="M381.8,138.2c0,0-1,0-0.9,0.7c0.1,0.7-1,0.6-1.6,1.4c-0.5,0.9-0.6,1.3,0.6,1.9c1.2,0.6,1.4,1.7,1.4,2.6
		c0,0.9,1.4,2,1.4,2.9c0.1,0.9,0.2,1.4,1,1.7c0.8,0.2,1.4,0.9,1.7,1.5s1.3,1.2,1.6,0.6c0.4-0.6-0.1-1.4-1-1.9
		c-0.8-0.5-2.3-1.5-2-2.7c0.3-1.2,0.1-2.4-0.3-3.3c-0.3-0.9-0.6-1.9-0.4-2.4C383.6,140.6,384,139,381.8,138.2z"/>
	<path class="st3" d="M234,219.9c0,0-1.3-1.3-1.7-0.8c-0.3,0.5,0.9,2.3-0.4,3.2c-1.3,0.9,0.6,1.3,1.1,1.8c0.5,0.5,1.3,0.8,1.3,1.6
		c0,0.7,0.7,0.9,1.3,1.3c0.7,0.4,1.2,2.4,3,2.3c1.8-0.1,2.3,0.9,2.9,1.7c0.7,0.8,2.7,2.8,4.1,3.1c1.4,0.3,2,0.9,2.5,1.4
		c0.5,0.4,2.9,0.7,3.7,0c0.8-0.7,3.2-0.9,4.3-0.7c1.1,0.2,3-0.3,2-1.3c-1-0.9-3.2-2.9-6.3-2.1s-4.1,1.1-5.3-1.2
		c-1.3-2.2-3.3-3.3-4.6-3.8c-1.3-0.5-3.8-2.8-4.6-3.5C236.6,222.4,234,219.9,234,219.9z"/>
	<path class="st3" d="M279.5,217.9c0,0-4.1,4.4-5.7,5.4s-3.3,3.2-4.1,3.5s-2.4,1.9-2.9,2.4c-0.5,0.5-0.5,1.4,1.3,1.1
		c1.8-0.3,2.6-0.7,3.1-1.1c0.5-0.4,2.4-0.9,3.1-2c0.6-1.1,1.6-1.6,2.7-1.6c1.1,0.1,1.8-1.2,2-1.8c0.2-0.6,3.4-2.6,4.1-3
		c0.7-0.4,2.4-1,3-1s1.8-0.9,0.6-1.8S282.6,216.1,279.5,217.9z"/>
	<path class="st3" d="M307.4,194.6c0,0-1.9,0.8-1.7,1.9c0.2,1.2,0.8,1.9,1.1,2.5c0.3,0.6,1.3,0.1,1.1-1c-0.1-1.1,0.2-1.8,1-2.4
		c0.8-0.6,2.7-2.4,2.7-3.4c0-1-0.7-0.9-1.2-0.1C310,192.9,309.3,193.9,307.4,194.6z"/>
	<path class="st3" d="M324.3,162.8c0,0,1.4,2.3,1.2,3.4c-0.2,1.1-1.3,3.1-2.2,2.2s-2.2,0-1.9,0.6c0.4,0.7,1,2.2,0.3,2.3
		c-0.7,0.1-1.2,0.5-0.4,1.1c0.9,0.6,2.3,1,2.6,1.3c0.4,0.3-0.6,1.6-1.4,1.9c-0.8,0.3-3.1,1.1-3.4,2c-0.3,0.9,0,0.9,0.7,1
		c0.7,0.1,1.6,0.2,2-0.4c0.5-0.6,1.5-1.4,2.2-1.9c0.6-0.5,1.2-1.3,1.1-2.1c-0.1-0.8,0-1.2,0.7-1.7c0.7-0.5,1.5-1,2.2-2.6
		c0.7-1.6,2.1-2.2,3.1-2.1c1,0.1,3,0.3,3.7,0.2c0.7-0.1,1.1,0.2,2.1,0.4c1,0.2,1.2,0.2,1.7,0c0.5-0.2,2.1-0.3,2.2,0.5
		c0.1,0.8-0.8,1.6-2.1,1.5c-1.3-0.1-2.4,0.9-2.6,1.6c-0.1,0.7,0.7,1.9,2.6,2c1.9,0.1,2.8,0.5,3.6,1.3c0.8,0.8,2.9,2.1,4.3,0.8
		c1.4-1.3,2.7-1.5,4-1.6c1.3,0,2.3,0.2,3.1-1.3s1.7-2.1,2.8-1.9c1.1,0.1,1.8,0.6,1.6,1.7c-0.2,1.2,0.2,2.2,0.3,2.9
		c0.1,0.8-0.5,2.7-0.9,3.4c-0.4,0.7-1,2.9,0,3.8c1,0.9,1.5,1.9,0.9,3.2s0.2,2.3,0.7,2.8c0.4,0.4,1.3,0.3,1.7-0.3
		c0.4-0.7,1.7-1.7,1-3.5c-0.7-1.8-1.5-3-1.9-3.6c-0.4-0.6-0.7-1.9,0.1-2.3c0.8-0.4,2-1.3,1.4-3.2c-0.7-1.9-0.9-2.5-1-3.5
		c-0.2-1-0.4-2.1-1.2-3s-3.2-1.9-4-0.7c-0.9,1.3-4,3.3-5.2,2c-1.2-1.3-2.2-1.4-3-0.7c-0.8,0.8-3,0-3.6-0.9c-0.6-0.8-0.1-0.8,0.5-1.1
		c0.6-0.3,0.9-1.2,0-1.8c-0.9-0.6-1.6-0.9-1.9-1.6c-0.3-0.8-1.9,0.1-2.4-0.9c-0.6-1-1.9-1.5-3.4-0.9s-3.6,0.3-3.7-0.4
		c-0.1-0.7,0.9-1.6,1.9-2c1-0.4,2.5-2,2.9-3.5c0.4-1.4,0.2-2.1,0.3-2.7c0-0.6-0.6-1.3-1.3,0c-0.7,1.3-2.3,2.3-2.8,2.6
		c-0.6,0.2-1.7,1.5-2,2.3s-2.5,3.6-3.8,2.9c-1.3-0.7-2.3-1.7-2.6-2.5c-0.3-0.8-2.5-0.5-2.7-1c-0.3-0.6-1.5-0.1-0.3,0.8
		C323.2,160.5,324.1,162.3,324.3,162.8z"/>
	<path class="st3" d="M342.5,133.9c0,0-1.8,0.6-1.8,1.9c0,1.3,1.3,2,0.9,3.2c-0.4,1.2-0.9,1.8-0.6,2.3c0.3,0.5,1,0.7,0.6,1.9
		s-0.3,2.6,0.9,2.8c1.3,0.2,2.2,1.1,1.2,1.8c-1,0.7-2.3,1.9-1.6,2.9c0.7,1,1.3,1.7,2.6,2.3c1.3,0.6,1.6,1.7,2.1,2.4
		c0.5,0.7,1.8,1.4,2.2,0.6c0.4-0.8-0.4-2.4,0.2-3.4c0.6-1,0-2.3-1.3-3c-1.3-0.6-1.3-1.3-1.6-2.1c-0.3-0.8-1.6-1.8-0.9-3.2
		c0.7-1.3,0.8-2,0.7-2.8c-0.1-0.9,0.4-2,0.8-2.6c0.4-0.6,0.2-1.9-0.4-2.6C345.8,135.5,344.7,134.3,342.5,133.9z"/>
	<path class="st3" d="M359,141.9c0,0-1.5-0.4-1.4,0.4c0.1,0.8,0.7,2.8,1.8,2.7c1.1-0.1,2,0.8,2.6,1.7c0.5,0.8,1.7,2.5,2.6,1.6
		c0.9-0.9,0.3-2.5-0.4-3.4c-0.8-0.9-1.8-1.8-3-2.2S360.5,143,359,141.9z"/>
	<path class="st3" d="M313.4,127.6c0,0-1.1-1.3-1.6-0.6c-0.6,0.8,0,2,0.8,3.5c0.8,1.4,2.3,4.3,3,4c0.8-0.4,0.3-1.7-0.3-3.1
		S313.4,127.6,313.4,127.6z"/>
	<path class="st3" d="M307.2,108.1c0,0-1.1-1.4-1.6-0.6c-0.5,0.8,0.3,2,0.3,3s-0.1,2.8,0.6,4c0.7,1.2,1.5,2.6,1.5,4s0.4,2.6,1.1,2.3
		c0.6-0.3-0.2-1,0-1.9c0.2-0.9,1.1-2.7,0.2-4.5c-0.9-1.8-1.6-3-1.2-4.1S307.2,108.1,307.2,108.1z"/>
	<path class="st3" d="M298.1,136.1c0,0-1.4-1.6-2.2-0.5c-0.8,1.1-1.3,2.9-0.4,4.2c0.8,1.3,3.3,4.1,4,4.5c0.6,0.4,2.9,1.8,3.5,2.1
		c0.6,0.3,1.1-0.2,1.1-0.7c0-0.6-0.8-0.9,0-1.2c0.8-0.3,1.4-0.9-0.3-2.1c-1.8-1.2-3.4-3.6-3.8-4.1S298.1,136.1,298.1,136.1z"/>
	<path class="st3" d="M367.5,96.4c0,0-2.2-1.1-2.3,0c-0.1,1.1-0.1,2.1,0.7,2.8c0.8,0.7,2.1,1.9,3.1,3.6c0.9,1.7,1.1,3.3,2.3,2.8
		s1.1-2,0-2.8c-1.1-0.8-1.6-1.4-1.4-2.3C369.9,99.7,368.9,97.1,367.5,96.4z"/>
	<path class="st3" d="M352.1,98.7c0,0-2.9-1.3-3,1.1c-0.1,2.4,1.1,4,2,4.9c0.9,0.9,1.1,3.1,1.3,4c0.2,0.9-0.3,1.6,0.7,2.4
		c1,0.8,2.1,2.5,2,4.1s1.9,2.8,3.9,3.6c2,0.8,5.2,0.8,6.6,2.9c1.4,2.1,4.6,5,5.4,5.5c0.8,0.6,1.7,1.1,3.1,0.4
		c1.3-0.6,2.2-0.6,3.2-0.3s5,1.8,6.2,0.1s3.2-3.1,2.3-4.2c-0.9-1.1-2.3-0.6-3.2-0.1c-0.9,0.6-5.7,0.9-8-0.3
		c-2.2-1.2-4.5-4.2-7.6-4.7c-3.2-0.6-7.2-2-8.4-4.5c-1.2-2.4-4.5-7.7-4.7-9.1S353.3,99,352.1,98.7z"/>
	<path class="st3" d="M381.9,97.9c0,0-1.3-1.3-1.8,0c-0.6,1.3,0.6,2,0.5,2.9c-0.1,0.9,0.7,1.2,1.3,1.4s1.8,0,1.6-1.1
		S382.6,98.4,381.9,97.9z"/>
	<path class="st3" d="M387.7,126.1c0,0-1.6-1.3-2.1,0c-0.4,1.3-1.1,1.7,0.3,2.7c1.4,1.1,3.6,2.4,5.1,1.1c1.4-1.3,4.7-3.1,5.5-2.3
		c0.8,0.8,2.7,1,4.1,0.4s3.2-1.6,2.4-2.8c-0.7-1.2-2.2-1.1-3.7-0.4c-1.5,0.7-6,0.9-6.8,0.5C391.9,124.8,388.9,126.9,387.7,126.1z"/>
	<path class="st3" d="M46.2,292.7c0,0-2.2,1.7-2.7,4.5s-1,4.7-2.7,5.9c-1.8,1.2-3,2.7-2.3,5.6c0.7,2.9-0.8,4.2-2,5.4
		c-1.2,1.3-0.8,6-0.5,7.2c0.3,1.2,0.4,4.4,1.2,2.7c0.8-1.6,1-3,2.2-3.9s2.7-2.8,2.4-4c-0.3-1.2,0.5-4.1,1.6-5.3
		c1-1.2,3.4-2.7,4.1-4.6c0.7-1.9,2.2-3.2,2.3-4.7c0.1-1.5,1.8-3.6,2.4-4.5c0.6-1,0.9-2.5,4.2-4.3c3.3-1.8,6.1-1.9,6.8,1.1
		c0.7,3,4.2,4.2,5.2,2.5c1-1.7,1.8-2.5,3.5-2.4c1.7,0.1,5.9-2.3,6.6-2.8c0.7-0.5,2.6-0.5,2.4-2.5c-0.2-2,0.5-2.8,2.2-3.2
		c1.6-0.4,2.6-0.4,3.4,0.7c0.8,1.1,2.5,0.9,3.8,0.4c1.3-0.5,6.9-1.6,8.2-2.2c1.3-0.5,3-0.1,3.8,0.4c0.8,0.6,4.3,0.7,5.3,0.4
		c1-0.2,5.5-0.3,7.6,0.7s7.7,3.3,9.4,3.1c1.7-0.1,5.3,0.7,5.6-0.2c0.4-0.9,1.4-1.1,2.7-1c1.3,0.1,4.5,0.6,5.4-0.7
		c1-1.3,1.6-3.7-0.4-5.3c-2-1.6-1.9-1.9-3-2.2c-1-0.4-1.9-1.4-3.2-1.5c-1.3-0.1-2.5-1.3-3.2-2.2c-0.7-0.8-2.4-2.3-5.8-2.8
		c-3.3-0.5-4.2-0.1-5.5-1.6c-1.3-1.5-2.3-2.9-4.2-1.6c-1.9,1.3-3.1-1.7-3.3-2.2c-0.1-0.4-4.1-0.8-6-1.5c-1.9-0.7-2.1-0.6-2.9,0
		c-0.8,0.6-1.6,0.5-1.9-0.5c-0.3-0.9-2-0.8-2.5-0.9c-0.5-0.1-3.3-1.3-3.9-0.6c-0.6,0.7-4.2,1.9-5.9,0.7c-1.6-1.2-2.1-1-2.9-0.2
		c-0.8,0.8-2.6,2.4-2.7,3.3c-0.1,0.9-2.6-0.4-3,1.5c-0.4,1.9-2.4,3-4.1,3.3s-2.7,0.1-3.4,1c-0.7,0.9-1.7,0.7-2.7,0.1s-5.1,0.7-6.8,1
		c-1.6,0.4-2.4,0.7-1.6,1.4c0.7,0.7,0.2,1.5-0.6,1.6c-0.8,0.1-1.3,0.3-1.8,1.6c-0.5,1.3-2.4,0.5-2.2,2.5c0.1,1.9-1.3,2.7-1.9,3.8
		c-0.6,1.1-0.4,1.6-1.4,1.4c-1-0.1-2.3,0.8-2.8,1.9C48.1,290.2,46.2,292.7,46.2,292.7z"/>
	<path class="st3" d="M59.3,234.1c0,0-1.3,1.9-3.2,2.7c-1.8,0.8-5.2,4.7-6,5.2c-0.7,0.4-2.3,2.4-1.9,2.8c0.4,0.4,1.8-0.9,2.7-1.8
		c0.8-0.8,3.8-3,4.7-3.5c0.8-0.5,2.7-2.1,3.3-3C59.6,235.7,61.3,233.5,59.3,234.1z"/>
	<path class="st3" d="M110.1,201.1c0,0-4.5,3.5-6,4.2c-1.5,0.7-2.8,0.7-2.9,2.1c-0.1,1.4-0.4,4.2,0.8,3.6c1.3-0.5,4.6-1.9,5.8-2.6
		c1.2-0.7,5.4-2.6,6-2c0.6,0.6,3.3,1.8,4.2,0.8c0.9-0.9,1.7-2.1,2.2-3.1c0.5-1,1.3-2.8,3.7-3.7c2.4-0.8,5.4-2.9,6.5-4.7
		s5.4-5.7,6.1-6.5c0.7-0.8,1.7-1,2-0.6s1.3-0.3,1.3-1.3c0-1.1,1.6-2,2.8-3c1.2-1,4.5-4.3,6.3-5.4c1.8-1.1,5-3.3,5-6
		c0.1-2.7-1.5-4-3.3-3.8c-1.8,0.2-1.9-0.1-2.6-0.7c-0.7-0.6-2.7-2-4.2,0.3c-1.6,2.3-3.5,4.1-6.1,4.2s-5.1,2.2-5.4,3
		c-0.3,0.8,0.6,2.1-0.8,3.5c-1.4,1.4-3.1,1.8-3.3,3.1s-1.8,1.8-2.6,1.7s-2.5,2.4-3.8,3.7c-1.3,1.3-1.8,2.3-2.8,2.7
		c-1.1,0.3-1.8,0.3-2.1,2.3c-0.3,1.9,0.5,1.6-1.4,3.3c-1.9,1.8-2.2,2.7-2.7,2.7C112.2,199,110.1,201.1,110.1,201.1z"/>
	<path class="st3" d="M164.4,178.5c0,0-2.7,1.9-4.3,2c-1.6,0.1-1.9,0.1-3.1,1.7c-1.2,1.6-4,1.5-3.8,3.2c0.2,1.7,2.8,3.1,4.7,2
		c1.9-1.1,2.1-2.4,3.1-2.7c1-0.3,2.6-2.1,3.7-3c1.2-0.9,1.8-1.7,1.5-2.4S165.8,177.6,164.4,178.5z"/>
	<path class="st3" d="M188.2,175.9c0,0-2.8-1.4-3.1-0.7c-0.3,0.7,0.2,1.8,1.5,2.2c1.4,0.4,3.1,0.7,4.2,0.5c1.1-0.2,3.9,0.1,4.9,0.3
		c1,0.1,4.1,0.6,5.2-0.5c1.1-1.1,1.4-1.8,0-1.6c-1.4,0.2-2.7,1-3.5,0.6c-0.8-0.4-3.2,0.9-4.3,0c-1.1-0.9-2.7-0.5-3.2-0.5
		C189.4,176.3,188.2,175.9,188.2,175.9z"/>
	<path class="st3" d="M177,144.8c0,0-3.7,3.1-4.3,4c-0.6,0.9-2.1,2.8-3.2,3.1s-2.2,1.9-3.6,2.4c-1.3,0.5-3.4,1.3-4.2,2.6
		s-0.7,1.6-2.2,2.2c-1.4,0.6-1.7,2.2,0,2.1c1.7-0.1,4-1.9,5.1-2.9c1.1-1,1.2-2.2,1.9-2.6s1.9,0.1,0.9,1.2c-1,1.1-2.8,3.7-4.6,4.3
		c-1.8,0.6-0.8,2.8,0.9,1.8s1.8-1.3,3.1-1.7c1.2-0.4,3.3-0.6,3.8-1.8c0.5-1.3,0.3-1.9,1.6-2.3c1.2-0.4,1.8-2.3,2.1-3.1
		s0.6-3.2,2.2-4.2c1.6-1.1,2.6-3.5,2.4-4.1C178.8,144.9,178.7,143.8,177,144.8z"/>
	<path class="st3" d="M173.3,192.8c0,0-1.1,2.3-2.1,3.2c-1,0.8-0.9,2-1.9,2.6c-1.1,0.6-2.8,0.4-2.6,1.7c0.2,1.3,0.5,2.3,1.2,1.8
		c0.7-0.4-0.1-1.6,0.4-1.9c0.6-0.4,1.8-0.6,2.6-1.6c0.8-0.9,0.9-2.4,1.8-3c0.9-0.6,1.2-2.1,1.2-2.7S173.8,191.8,173.3,192.8z"/>
	<path class="st3" d="M162.8,224.1c0,0-2.2,0.6-1.8,3.5c0.3,2.8,1.8,2.9,0,4.6c-1.9,1.6-2,2.8-1.1,2.8c0.9,0.1,0.8,1.7,0.7,2.8
		c-0.1,1.1-0.3,7.2,0.8,8.1c1.1,0.9,1.7,0.4,1.5-0.6c-0.2-0.9-0.7-4.9-0.6-7c0.1-2.1-1-2.3-0.2-4.3c0.8-2,0.8-1.9,1.4-2.1
		c0.7-0.1,0.8-0.7,0-1.3c-0.8-0.6-1.5-1.6-0.8-2.7C163.3,226.9,164.6,223.9,162.8,224.1z"/>
	<path class="st3" d="M505.9,64.5c-1.7-0.5-2.2-1.1-2.4-2.3c-0.2-1.2-2.5-3.6-3.4-1.7c-0.9,1.9-2.6,0.8-2.2-0.6
		c0.4-1.4-0.4-1.8-1.3-1.9c-0.9-0.1-1.8-0.1-2.6-1.3s-2.4-0.8-3.1-1c-0.7-0.2-1.6-1.2-2.1-2c-0.5-0.8-1.8-1.1-3.1-1.1
		c-1.3,0.1-4.1-0.3-4.9-1.3c-0.8-0.9-4-4.7-4.1-6.1c-0.1-1.4-0.9-4.5-3.8-4.7c-2.9-0.2-4.6,0.7-6-0.6c-1.4-1.3-5.6-3.2-7.6-2
		c-2,1.2-3,1.4-5.8,0.2c-2.9-1.3-6.5-2.4-9.1-4.6c-2.6-2.2-4.2-3.2-4.4-5.2c-0.2-1.9-1-3-3-4.1s-3.4-1.6-4.7-3.1
		c-1.3-1.5-2.9-2.5-4-2.7c-1.1-0.2-2.2-1.4-2.7-2.3c-0.5-0.9-2.5-2.4-4.2-3.1c-1.7-0.7-5.1-3.6-5.6-3.7c0,0-2.4-0.6-2.4,0.4
		c0,0.9,1.6,2.9,1.9,3.4c0.4,0.5,3.2,4.3,4.4,5.2c1.2,0.9,3.8,2.4,4.5,2.7c0.6,0.2,2,2.2,3.5,2.1c1.4-0.1,2.3,1.2,2.7,1.8
		c0.3,0.7,2.4,0.8,2.2,2.5s0.6,2.6,1.2,4.3c0.7,1.7,1.7,2.3,1.9,3.1c0.2,0.8,0.3,1.6,0.7,2c0.3,0.4-0.2,1.4-1.7,0.6
		c-1.6-0.9-3.9-0.6-5.1-0.6c-1.2,0-3.9,0.4-4.6-0.8c-0.7-1.2-1.7-1.7-2.2-1.7c-0.6,0-1.9-0.6-1.1-0.8c0.8-0.2,0.5-0.8-0.1-1.3
		c-0.6-0.4-2.6-1.6-3.8-2.2c-1.3-0.7-3.5-1.7-5.4-3.1c-1.9-1.4-3.7-1.8-4.4-2.6c-0.7-0.8-1.3-1.4-1.6-1c-0.2,0.4,0.5,1.7,1.4,2.2
		c0.9,0.5,2.6,1.6,2.7,2.3c0.1,0.7-1.7,0.7-2.7-0.7c-1-1.4-3.5-3.5-4.5-3c-0.9,0.4-2,2.1-1.6,2.7c0.4,0.7,1.4,1.4,2.3,1.4
		c0.8,0,1.7,0.3,1.8,1.2c0.1,0.9,1,1.4,1.8,1.3s3.5,1.2,1.9,2.3c-1.5,1.1-5.5,4.2-7.9,5.2s-2.1,1.9-4.2,2.1
		c-2.1,0.2-6.6-0.8-7.2-1.2c-0.7-0.3-2.3-0.7-1.6,0.3c0.7,0.9,4.1,2.1,5.9,2.3c1.8,0.2,5.5,0.6,7.8-0.5c2.3-1.1,3.4-2.7,5-3.1
		c1.6-0.4,5.1-2.1,7.8-1.4s6.6,1.9,8.1,2.4c1.6,0.4,4.2,1.7,5.2,0.8c1.1-0.9,2.9-1.7,3.8-1.3c0.9,0.3,2.1,0.7,1.6,1.6
		c-0.4,0.8-0.8,1.1,0.2,1.6s1.7,1.2,3.1,1.7c1.4,0.6,3.3,0.8,4.3,1.7c1,0.9,3.2,1.5,4.1,1.5c0.9,0,3.5,2.2,4,2.9
		c0.5,0.7,2.9,3.2,4.7,3.8c1.8,0.6,4.9,1.7,5,3.6c0.1,1.9,0.2,4,1.6,5.5c1.4,1.5,5,4.3,5.5,5.3c0.6,1,2.9,2.7,3.7,3.4
		c0.8,0.7,3.5,3.1,4.2,3c0.8-0.2,3.4,0.6,5.2-0.3c1.8-0.9,2.7-1.4,3.3-2.8c0.6-1.4,1.2-1.1,1.7-0.3c0.5,0.8,1.4,0.1,1.2-0.7
		s0.4-1.9,1.8-1.3c1.4,0.7,2.5,2.5,4.6,0.9c2.1-1.6,2.4-1.9,2.9-1.3c0.4,0.6-1.4,2.8,0.6,2.7c2.1-0.1,4.8-0.8,5.5-1.7
		c0.7-0.9,0.1-2.1,1.7-2.1c1.6-0.1,3.4,0.9,4.3-0.2C507.9,66,507.6,65,505.9,64.5z M419.7,34.5c-0.4,0.5-2.4-0.5-3.6-0.9
		c-1.1-0.4-2-1.4-2.1-2.1c-0.1-0.7,1.2-0.3,1.2-0.3s2.3,1.3,3.3,1.8C419.5,33.6,420.1,34,419.7,34.5z"/>
</g>
<g id="map-chasseral">
	<g>
		<g>
			<path class="st4" d="M158.3,148.4c-4.1,0-7.5-3.4-7.5-7.5c0-4.1,3.4-7.5,7.5-7.5c4.2,0,7.5,3.4,7.5,7.5
				C165.8,145.1,162.5,148.4,158.3,148.4z"/>
			<path class="st5" d="M158.3,133.9c3.9,0,7,3.2,7,7c0,3.9-3.2,7-7,7c-3.9,0-7-3.2-7-7C151.3,137,154.4,133.9,158.3,133.9
				 M158.3,132.9c-4.4,0-8,3.6-8,8s3.6,8,8,8c4.4,0,8-3.6,8-8S162.7,132.9,158.3,132.9L158.3,132.9z"/>
		</g>
	</g>
</g>
<g id="map-dentdenendaz">
	<g>
		<path class="st6" d="M274.5,404.1c0,1.3-2.1,2.4-4.7,2.4h-122c-2.6,0-4.7-1.1-4.7-2.4v-39.4c0-1.3,2.1-2.4,4.7-2.4h122
			c2.6,0,4.7,1.1,4.7,2.4V404.1z"/>
		<polygon class="st6" points="185.1,362.3 178.1,362.3 181.6,356.2 185.1,350.2 188.6,356.2 192.1,362.3 		"/>
		<g>
			<path class="st5" d="M148.1,381.3v-13.9h2.1v11.9h4.4v2H148.1z"/>
			<path class="st5" d="M159.6,381.3v-0.8c-0.5,0.6-1.2,1-2,1c-1.3,0-2.4-1-2.4-2.7c0-1.5,1-2.7,2.5-2.7c0.8,0,1.3,0.2,1.8,0.5v-0.8
				c0-1-0.5-1.4-1.5-1.4c-0.6,0-1.2,0.1-1.8,0.3l-0.2-1.6c0.7-0.2,1.6-0.4,2.3-0.4c2.1,0,3.1,0.9,3.1,3.1v5.6L159.6,381.3
				L159.6,381.3z M159.5,377.8c-0.4-0.3-0.7-0.4-1.2-0.4c-0.7,0-1.2,0.4-1.2,1.4c0,0.9,0.5,1.4,1.2,1.4c0.6,0,0.9-0.3,1.2-0.6V377.8
				z"/>
			<path class="st5" d="M169.1,381.4c-1,0-1.9-0.1-2.8-0.2v-13.7c0.9-0.1,1.8-0.2,2.8-0.2c4.3,0,6.5,2.9,6.5,7
				C175.6,378.4,173.4,381.4,169.1,381.4z M169.4,369.3c-0.4,0-0.7,0-1,0.1v10.1c0.3,0,0.6,0.1,1.1,0.1c2.5,0,3.8-2,3.8-5.2
				C173.3,371.3,171.9,369.3,169.4,369.3z"/>
			<path class="st5" d="M183,377.7h-4.6c0.1,1.3,0.7,2.2,2.1,2.2c0.6,0,1.2-0.2,1.9-0.4l0.3,1.5c-0.9,0.3-1.6,0.5-2.4,0.5
				c-2.5,0-3.8-1.7-3.8-4.4c0-2.4,1.2-4.4,3.5-4.4c2,0,3.1,1.8,3.1,4.1C183.1,377,183,377.4,183,377.7z M181.3,376.5
				c0-1.3-0.5-2.2-1.4-2.2c-0.8,0-1.4,0.8-1.5,2.2H181.3z"/>
			<path class="st5" d="M188.8,381.3v-5.8c0-0.8-0.3-1.1-1-1.1c-0.6,0-1.2,0.4-1.6,0.9v6h-2v-8.5h1.9v1.3c0.7-0.9,1.6-1.5,2.5-1.5
				c1.4,0,2.1,1,2.1,2.4v6.2H188.8z"/>
			<path class="st5" d="M194.7,374.5v4.3c0,0.7,0.3,0.9,0.8,0.9c0.2,0,0.4,0,0.7-0.1l0.2,1.6c-0.5,0.1-1,0.2-1.5,0.2
				c-1.4,0-2.2-0.7-2.2-2.4v-4.5h-1.3v-0.7l1.3-1.1v-1.2l2-1.3v2.6h1.8v1.7L194.7,374.5L194.7,374.5z"/>
			<path class="st5" d="M197.1,377.2v-1.6h3.6v1.6H197.1z"/>
			<path class="st5" d="M206.8,381.3v-0.7c-0.5,0.5-1.2,0.9-2,0.9c-1.7,0-3-1.6-3-4.3c0-2.6,1.5-4.5,3.1-4.5c0.8,0,1.3,0.2,1.8,0.6
				v-5.9h2v13.9H206.8z M206.7,374.9c-0.3-0.4-0.8-0.6-1.3-0.6c-0.9,0-1.7,1-1.7,2.9c0,1.9,0.6,2.7,1.6,2.7c0.6,0,1-0.2,1.3-0.6
				V374.9z"/>
			<path class="st5" d="M216.4,377.7h-4.6c0.1,1.3,0.7,2.2,2.1,2.2c0.6,0,1.2-0.2,1.9-0.4l0.3,1.5c-0.9,0.3-1.6,0.5-2.4,0.5
				c-2.5,0-3.8-1.7-3.8-4.4c0-2.4,1.2-4.4,3.5-4.4c2,0,3.1,1.8,3.1,4.1C216.4,377,216.4,377.4,216.4,377.7z M214.7,376.5
				c0-1.3-0.5-2.2-1.4-2.2c-0.8,0-1.4,0.8-1.5,2.2H214.7z"/>
			<path class="st5" d="M217.4,377.2v-1.6h3.6v1.6H217.4z"/>
			<path class="st5" d="M230.9,381.5l-6-8.7v8.5h-2.1v-14l0.7-0.1l6,8.5v-8.4h2.1v14L230.9,381.5z"/>
			<path class="st5" d="M239.5,377.7h-4.6c0.1,1.3,0.7,2.2,2.1,2.2c0.6,0,1.2-0.2,1.9-0.4l0.3,1.5c-0.9,0.3-1.6,0.5-2.4,0.5
				c-2.5,0-3.8-1.7-3.8-4.4c0-2.4,1.2-4.4,3.5-4.4c2,0,3.1,1.8,3.1,4.1C239.6,377,239.6,377.4,239.5,377.7z M237.8,376.5
				c0-1.3-0.5-2.2-1.4-2.2c-0.8,0-1.4,0.8-1.5,2.2H237.8z"/>
			<path class="st5" d="M245.3,381.3v-5.8c0-0.8-0.3-1.1-1-1.1c-0.6,0-1.2,0.4-1.6,0.9v6h-2v-8.5h1.9v1.3c0.7-0.9,1.6-1.5,2.5-1.5
				c1.4,0,2.1,1,2.1,2.4v6.2H245.3z"/>
			<path class="st5" d="M253.4,381.3v-0.7c-0.5,0.5-1.2,0.9-2,0.9c-1.7,0-3-1.6-3-4.3c0-2.6,1.5-4.5,3.1-4.5c0.8,0,1.3,0.2,1.8,0.6
				v-5.9h2v13.9H253.4z M253.3,374.9c-0.3-0.4-0.8-0.6-1.3-0.6c-0.9,0-1.7,1-1.7,2.9c0,1.9,0.6,2.7,1.6,2.7c0.5,0,1-0.2,1.3-0.6
				V374.9z"/>
			<path class="st5" d="M260.8,381.3v-0.8c-0.5,0.6-1.2,1-2,1c-1.3,0-2.4-1-2.4-2.7c0-1.5,1-2.7,2.5-2.7c0.8,0,1.3,0.2,1.8,0.5v-0.8
				c0-1-0.5-1.4-1.5-1.4c-0.6,0-1.2,0.1-1.8,0.3l-0.2-1.6c0.7-0.2,1.6-0.4,2.3-0.4c2.1,0,3.1,0.9,3.1,3.1v5.6L260.8,381.3
				L260.8,381.3z M260.7,377.8c-0.4-0.3-0.7-0.4-1.2-0.4c-0.7,0-1.2,0.4-1.2,1.4c0,0.9,0.5,1.4,1.2,1.4c0.5,0,0.9-0.3,1.2-0.6V377.8
				z"/>
			<path class="st5" d="M266.1,379.7h3.4v1.6h-6l-0.1-0.3l3.5-6.6h-3.3v-1.6h5.9l0.1,0.3L266.1,379.7z"/>
			<path class="st5" d="M185.7,404.9c-2.8-2.6-4-6-4-9.2c0-3.3,1.2-6.7,4-9.2l0.8,0.8c-2.4,2.1-3.5,5.3-3.5,8.4
				c0,3.1,1.1,6.3,3.5,8.4L185.7,404.9z"/>
			<path class="st5" d="M186.6,400.5l-0.1-0.2c1.5-2.3,2.6-4.3,3.3-5.6s1.3-2.4,1.3-3.6c0-1.2-0.6-1.9-1.8-1.9
				c-0.7,0-1.4,0.3-2.1,0.8l-0.6-1.1c0.8-0.6,1.7-1,2.7-1c1.9,0,3.1,1.2,3.1,3.1c0,1.4-0.5,2.6-1.5,4.2c-0.6,1.1-1.5,2.6-2.4,4.1
				h3.9v1.3L186.6,400.5L186.6,400.5z"/>
			<path class="st5" d="M199.1,396.9v3.6h-1.3v-3.6h-4.6v-0.4l5.2-8.6h0.7v7.7h1.5v1.3L199.1,396.9L199.1,396.9z M197.8,391.1
				l-2.6,4.5h2.6V391.1z"/>
			<path class="st5" d="M204.8,400.7c-2,0-3.3-1.7-3.3-4.4c0-3,1.4-6.2,4.9-8.5l0.7,0.9c-2.1,1.5-3.3,3.2-4,5c0.5-0.8,1.2-1.1,2-1.1
				c1.8,0,2.8,1.8,2.8,3.9C208.1,398.6,206.9,400.7,204.8,400.7z M204.9,393.7c-1.3,0-2,1.2-2,3c0,1.4,0.7,2.8,1.9,2.8
				c1.2,0,1.9-1.4,1.9-2.9C206.7,395,206.1,393.7,204.9,393.7z"/>
			<path class="st5" d="M212,393.4c1.9,0.1,3.1,1.5,3.1,3.5c0,2.1-1.3,3.8-3.5,3.8c-0.9,0-1.6-0.2-2.5-0.5l0.5-1.2
				c0.7,0.3,1.4,0.5,2,0.5c1.5,0,2.2-1.1,2.2-2.6c0-1.6-0.9-2.4-2.5-2.4c-0.4,0-0.8,0.1-1.2,0.1l-0.1-0.2l3.2-5.1h-3.9V388h6
				l0.1,0.2L212,393.4z"/>
			<path class="st5" d="M228.5,400.5v-5.9c0-0.9-0.3-1.3-1.1-1.3c-0.7,0-1.4,0.5-1.9,1.2v6h-1.4v-5.9c0-0.9-0.3-1.3-1.1-1.3
				c-0.8,0-1.4,0.5-1.9,1.2v6h-1.4v-8.2h1.3v1.3c0.6-0.8,1.5-1.4,2.5-1.4c1.1,0,1.6,0.6,1.8,1.5c0.6-0.9,1.6-1.5,2.6-1.5
				c1.4,0,2,1,2,2.4v6L228.5,400.5L228.5,400.5z"/>
			<path class="st5" d="M231.1,404.9l-0.8-0.9c2.4-2.1,3.5-5.3,3.5-8.4c0-3.1-1.1-6.3-3.5-8.4l0.8-0.8c2.8,2.6,4,6,4,9.2
				C235.1,398.9,233.9,402.3,231.1,404.9z"/>
		</g>
		<g>
			<path class="st4" d="M185.1,347.4c-4.1,0-7.5-3.4-7.5-7.5c0-4.1,3.4-7.5,7.5-7.5c4.2,0,7.5,3.4,7.5,7.5
				C192.6,344,189.2,347.4,185.1,347.4z"/>
			<path class="st5" d="M185.1,332.8c3.9,0,7,3.2,7,7c0,3.9-3.2,7-7,7c-3.9,0-7-3.2-7-7C178,336,181.2,332.8,185.1,332.8
				 M185.1,331.8c-4.4,0-8,3.6-8,8c0,4.4,3.6,8,8,8c4.4,0,8-3.6,8-8C193.1,335.4,189.5,331.8,185.1,331.8L185.1,331.8z"/>
		</g>
	</g>
</g>
<g id="map-dentdumidi">
	<g>
		<polygon class="st6" points="139.1,314.3 146.1,314.3 142.6,320.4 139.1,326.4 135.6,320.4 132.1,314.3 		"/>
		<g>
			<path class="st6" d="M156.9,311.9c0,1.3-2,2.4-4.4,2.4H37.7c-2.4,0-4.4-1.1-4.4-2.4v-39.4c0-1.3,2-2.4,4.4-2.4h114.8
				c2.4,0,4.4,1.1,4.4,2.4L156.9,311.9L156.9,311.9z"/>
			<g>
				<path class="st5" d="M38.1,289.1v-13.9h2.1v11.9h4.4v2H38.1z"/>
				<path class="st5" d="M51.6,285.5H47c0.1,1.3,0.7,2.2,2.1,2.2c0.5,0,1.2-0.2,1.9-0.4l0.3,1.5c-0.9,0.3-1.6,0.5-2.4,0.5
					c-2.5,0-3.8-1.7-3.8-4.4c0-2.4,1.2-4.4,3.5-4.4c2,0,3.1,1.8,3.1,4.1C51.7,284.8,51.7,285.2,51.6,285.5z M49.9,284.3
					c0-1.3-0.5-2.2-1.4-2.2c-0.8,0-1.4,0.8-1.5,2.2H49.9z"/>
				<path class="st5" d="M55,289.3c-1,0-1.9-0.3-2.8-0.9l0.7-1.5c0.7,0.5,1.4,0.8,2,0.8c0.6,0,1-0.3,1-0.9c0-1.3-3.3-1.4-3.3-3.8
					c0-1.4,1.1-2.5,2.7-2.5c0.9,0,1.7,0.3,2.4,0.7l-0.7,1.5c-0.6-0.4-1.1-0.6-1.7-0.6c-0.6,0-0.9,0.3-0.9,0.8c0,1.2,3.4,1.3,3.4,3.8
					C57.7,288.1,56.6,289.3,55,289.3z"/>
				<path class="st5" d="M65,289.2c-1,0-1.9-0.1-2.8-0.2v-13.7c0.9-0.1,1.8-0.2,2.8-0.2c4.3,0,6.5,2.9,6.5,7
					C71.5,286.2,69.3,289.2,65,289.2z M65.3,277.1c-0.4,0-0.7,0-1,0.1v10.1c0.3,0,0.6,0.1,1.1,0.1c2.5,0,3.8-2,3.8-5.2
					C69.2,279.1,67.8,277.1,65.3,277.1z"/>
				<path class="st5" d="M78.9,285.5h-4.6c0.1,1.3,0.7,2.2,2.1,2.2c0.6,0,1.2-0.2,1.9-0.4l0.3,1.5c-0.9,0.3-1.6,0.5-2.4,0.5
					c-2.5,0-3.8-1.7-3.8-4.4c0-2.4,1.2-4.4,3.5-4.4c2,0,3.1,1.8,3.1,4.1C79,284.8,79,285.2,78.9,285.5z M77.2,284.3
					c0-1.3-0.5-2.2-1.4-2.2c-0.8,0-1.4,0.8-1.5,2.2H77.2z"/>
				<path class="st5" d="M84.7,289.1v-5.8c0-0.8-0.3-1.1-1-1.1c-0.6,0-1.2,0.4-1.6,0.9v6h-2v-8.5H82v1.3c0.7-0.9,1.6-1.5,2.5-1.5
					c1.4,0,2.1,1,2.1,2.4v6.2H84.7z"/>
				<path class="st5" d="M90.6,282.3v4.3c0,0.7,0.3,0.9,0.8,0.9c0.2,0,0.4,0,0.7-0.1l0.2,1.6c-0.5,0.1-1,0.2-1.5,0.2
					c-1.4,0-2.2-0.7-2.2-2.4v-4.5h-1.2v-0.7l1.2-1.1v-1.2l2-1.3v2.6h1.8v1.7L90.6,282.3L90.6,282.3z"/>
				<path class="st5" d="M95.5,289.3c-1,0-1.9-0.3-2.8-0.9l0.7-1.5c0.7,0.5,1.4,0.8,2,0.8c0.6,0,1-0.3,1-0.9c0-1.3-3.3-1.4-3.3-3.8
					c0-1.4,1.1-2.5,2.7-2.5c0.9,0,1.7,0.3,2.4,0.7l-0.7,1.5c-0.6-0.4-1.1-0.6-1.7-0.6c-0.6,0-0.9,0.3-0.9,0.8c0,1.2,3.4,1.3,3.4,3.8
					C98.2,288.1,97.1,289.3,95.5,289.3z"/>
				<path class="st5" d="M99.1,285.1v-1.6h3.6v1.6H99.1z"/>
				<path class="st5" d="M108.8,289.1v-0.7c-0.5,0.5-1.2,0.9-2,0.9c-1.7,0-3-1.6-3-4.3c0-2.6,1.5-4.5,3.1-4.5c0.8,0,1.3,0.2,1.8,0.6
					v-5.9h2v13.9H108.8z M108.7,282.7c-0.3-0.4-0.8-0.6-1.3-0.6c-0.9,0-1.7,1-1.7,2.9c0,1.9,0.6,2.7,1.6,2.7c0.6,0,1-0.2,1.3-0.6
					C108.7,287.1,108.7,282.7,108.7,282.7z"/>
				<path class="st5" d="M116.8,289.1v-1.2c-0.7,0.8-1.5,1.4-2.5,1.4c-1.4,0-2.1-1-2.1-2.4v-6.3h2v5.8c0,0.8,0.3,1.1,1,1.1
					c0.6,0,1.1-0.3,1.6-0.9v-6.1h2v8.5L116.8,289.1L116.8,289.1z"/>
				<path class="st5" d="M120,285.1v-1.6h3.6v1.6H120z"/>
				<path class="st5" d="M134,289.1l-0.2-8.1l-3,6h-0.3l-3.1-6l-0.1,8.2h-2.1l0.4-14l0.7,0l4.4,8.3l4.2-8.3l0.7,0l0.4,14H134z"/>
				<path class="st5" d="M138.8,279.3c-0.7,0-1.2-0.6-1.2-1.2c0-0.7,0.5-1.3,1.2-1.3c0.7,0,1.2,0.6,1.2,1.3
					C140,278.7,139.5,279.3,138.8,279.3z M137.9,289.1v-8.5h2v8.5H137.9z"/>
				<path class="st5" d="M146.1,289.1v-0.7c-0.5,0.5-1.2,0.9-2,0.9c-1.7,0-3-1.6-3-4.3c0-2.6,1.5-4.5,3.1-4.5c0.8,0,1.3,0.2,1.8,0.6
					v-5.9h2v13.9H146.1z M146,282.7c-0.3-0.4-0.8-0.6-1.3-0.6c-0.9,0-1.7,1-1.7,2.9c0,1.9,0.6,2.7,1.6,2.7c0.6,0,1-0.2,1.3-0.6
					V282.7z"/>
				<path class="st5" d="M150.5,279.3c-0.7,0-1.2-0.6-1.2-1.2c0-0.7,0.5-1.3,1.2-1.3c0.7,0,1.2,0.6,1.2,1.3
					C151.7,278.7,151.2,279.3,150.5,279.3z M149.6,289.1v-8.5h2v8.5H149.6z"/>
				<path class="st5" d="M71.4,312.7c-2.8-2.6-4-6-4-9.2c0-3.3,1.2-6.7,4-9.2l0.8,0.8c-2.4,2.1-3.5,5.3-3.5,8.4
					c0,3.1,1.1,6.3,3.5,8.4L71.4,312.7z"/>
				<path class="st5" d="M72.3,308.3l-0.1-0.2c1.5-2.3,2.6-4.3,3.3-5.6s1.3-2.4,1.3-3.6c0-1.2-0.6-1.9-1.8-1.9
					c-0.7,0-1.4,0.3-2.1,0.8l-0.6-1.1c0.8-0.6,1.7-1,2.7-1c1.9,0,3.1,1.2,3.1,3.1c0,1.4-0.5,2.6-1.5,4.2c-0.6,1.1-1.5,2.6-2.3,4.1
					h3.9v1.3L72.3,308.3L72.3,308.3z"/>
				<path class="st5" d="M83.3,308.5c-2.5,0-3.6-2.9-3.6-6.4c0-3.5,1.2-6.4,3.7-6.4c2.5,0,3.6,3,3.6,6.4
					C86.9,305.6,85.8,308.5,83.3,308.5z M83.3,296.9c-1.5,0-2.2,2.3-2.2,5.2c0,2.9,0.7,5.2,2.2,5.2s2.2-2.3,2.2-5.2
					C85.5,299.2,84.8,296.9,83.3,296.9z"/>
				<path class="st5" d="M89.7,308.6l-0.7-0.9c2.1-1.5,3.3-3.2,4-4.9c-0.5,0.7-1.1,1-1.9,1c-1.8,0-2.9-1.7-2.9-3.8
					c0-2.3,1.2-4.2,3.2-4.2c2,0,3.2,1.7,3.2,4.4C94.6,303.1,93.2,306.3,89.7,308.6z M91.4,296.9c-1.2,0-1.9,1.3-1.9,2.8
					c0,1.6,0.6,2.9,1.8,2.9c1.3,0,2-1.2,2-3C93.2,298.2,92.5,296.9,91.4,296.9z"/>
				<path class="st5" d="M98.4,308.5c-0.9,0-1.7-0.2-2.5-0.5l0.4-1.2c0.6,0.3,1.3,0.5,2,0.5c1.4,0,2.1-1.1,2.1-2.7
					c0-1.5-0.8-2.6-2.3-2.6c-0.5,0-1.1,0.1-1.6,0.2l-0.2-0.2v-6.2h5.1v1.3h-3.8v3.6c0.2,0,0.5,0,0.7,0c2.3,0,3.5,1.7,3.5,3.7
					C101.8,306.7,100.5,308.5,98.4,308.5z"/>
				<path class="st5" d="M115.3,308.3v-5.9c0-0.9-0.3-1.3-1.1-1.3c-0.7,0-1.4,0.5-1.9,1.2v6H111v-5.9c0-0.9-0.3-1.3-1.1-1.3
					c-0.8,0-1.4,0.5-1.9,1.2v6h-1.4v-8.2h1.3v1.2c0.6-0.8,1.5-1.4,2.5-1.4c1.1,0,1.6,0.6,1.8,1.5c0.6-0.9,1.6-1.5,2.6-1.5
					c1.4,0,2,1,2,2.4v6L115.3,308.3L115.3,308.3z"/>
				<path class="st5" d="M117.9,312.7l-0.8-0.9c2.4-2.1,3.5-5.3,3.5-8.4c0-3.1-1.1-6.3-3.5-8.4l0.8-0.8c2.8,2.6,4,6,4,9.2
					C121.9,306.7,120.7,310.1,117.9,312.7z"/>
			</g>
		</g>
		<g>
			<path class="st4" d="M139.7,342.5c-4.1,0-7.5-3.4-7.5-7.5c0-4.1,3.4-7.5,7.5-7.5c4.2,0,7.5,3.4,7.5,7.5
				C147.2,339.1,143.9,342.5,139.7,342.5z"/>
			<path class="st5" d="M139.7,327.9c3.9,0,7,3.2,7,7c0,3.9-3.2,7-7,7c-3.9,0-7-3.2-7-7C132.7,331.1,135.8,327.9,139.7,327.9
				 M139.7,326.9c-4.4,0-8,3.6-8,8c0,4.4,3.6,8,8,8c4.4,0,8-3.6,8-8C147.7,330.5,144.1,326.9,139.7,326.9L139.7,326.9z"/>
		</g>
	</g>
</g>
<g id="map-glacier3000">
	<g>
		<g>
			<path class="st4" d="M170.3,305.4c-4.1,0-7.5-3.4-7.5-7.5c0-4.1,3.4-7.5,7.5-7.5c4.2,0,7.5,3.4,7.5,7.5
				C177.9,302,174.5,305.4,170.3,305.4z"/>
			<path class="st5" d="M170.3,290.9c3.9,0,7,3.2,7,7c0,3.9-3.2,7-7,7c-3.9,0-7-3.2-7-7C163.3,294,166.5,290.9,170.3,290.9
				 M170.3,289.9c-4.4,0-8,3.6-8,8c0,4.4,3.6,8,8,8c4.4,0,8-3.6,8-8C178.4,293.5,174.8,289.9,170.3,289.9L170.3,289.9z"/>
		</g>
		<path class="st6" d="M279.6,324.8c0,1.3-1.4,2.4-3.1,2.4h-80.3c-1.7,0-3.1-1.1-3.1-2.4v-39.4c0-1.3,1.4-2.4,3.1-2.4h80.3
			c1.7,0,3.1,1.1,3.1,2.4V324.8z"/>
		<g>
			<path class="st5" d="M204.9,294.4v6.7c-1,0.7-2.3,1.1-3.7,1.1c-3.2,0-5.6-2.7-5.6-7.1c0-4.4,2.5-7.2,5.7-7.2
				c1.5,0,2.6,0.5,3.5,1.2l-0.9,1.7c-0.8-0.6-1.6-0.9-2.5-0.9c-2.1,0-3.5,2-3.5,5.2c0,3.4,1.5,5.3,3.5,5.3c0.7,0,1.1-0.1,1.6-0.4
				v-3.6h-2.2v-1.9H204.9z"/>
			<path class="st5" d="M206.5,302v-13.9h2V302H206.5z"/>
			<path class="st5" d="M214,302v-0.8c-0.5,0.6-1.2,1-2,1c-1.3,0-2.4-1-2.4-2.7c0-1.5,1-2.7,2.5-2.7c0.8,0,1.3,0.2,1.8,0.5v-0.8
				c0-1-0.5-1.4-1.5-1.4c-0.6,0-1.2,0.1-1.8,0.3l-0.2-1.6c0.7-0.2,1.6-0.4,2.3-0.4c2.1,0,3.1,0.9,3.1,3.1v5.6L214,302L214,302z
				 M213.9,298.5c-0.4-0.3-0.7-0.4-1.2-0.4c-0.7,0-1.2,0.4-1.2,1.4c0,0.9,0.5,1.4,1.2,1.4c0.6,0,0.9-0.3,1.2-0.6V298.5z"/>
			<path class="st5" d="M220.7,302.2c-2.4,0-3.8-1.9-3.8-4.4c0-2.4,1.4-4.4,3.8-4.4c0.9,0,1.6,0.3,2.2,0.7l-0.7,1.4
				c-0.5-0.3-0.9-0.5-1.5-0.5c-1,0-1.8,1-1.8,2.8c0,1.6,0.8,2.7,1.9,2.7c0.6,0,1.1-0.2,1.5-0.5l0.6,1.4
				C222.3,301.9,221.5,302.2,220.7,302.2z"/>
			<path class="st5" d="M224.7,292.2c-0.7,0-1.2-0.6-1.2-1.2c0-0.7,0.5-1.3,1.2-1.3c0.7,0,1.2,0.6,1.2,1.3
				C225.9,291.6,225.4,292.2,224.7,292.2z M223.7,302v-8.5h2v8.5H223.7z"/>
			<path class="st5" d="M233.5,298.4h-4.6c0.1,1.3,0.7,2.2,2.1,2.2c0.6,0,1.2-0.2,1.9-0.4l0.3,1.5c-0.9,0.3-1.6,0.5-2.4,0.5
				c-2.5,0-3.8-1.7-3.8-4.4c0-2.4,1.2-4.4,3.5-4.4c2,0,3.1,1.8,3.1,4.1C233.5,297.7,233.5,298.1,233.5,298.4z M231.8,297.2
				c0-1.3-0.5-2.2-1.4-2.2c-0.8,0-1.4,0.8-1.5,2.2H231.8z"/>
			<path class="st5" d="M236.7,296.2v5.8h-2v-8.5h1.9v1.4c0.6-0.9,1.3-1.6,2.4-1.6v2.1C237.9,295.4,237.1,295.5,236.7,296.2z"/>
			<path class="st5" d="M246.1,294.7c1.9,0.2,3.1,1.6,3.1,3.5c0,2.3-1.5,4-3.9,4c-0.9,0-1.8-0.2-2.7-0.5l0.5-1.7
				c0.6,0.3,1.3,0.4,2,0.4c1.3,0,2-0.8,2-2.1c0-1.3-0.8-2-2.1-2c-0.5,0-0.9,0.1-1.3,0.2l-0.4-0.8l3.1-4.4h-3.7v-1.8h6.3l0,1.1
				L246.1,294.7z"/>
			<path class="st5" d="M254.3,302.2c-2.7,0-3.9-2.9-3.9-6.5c0-3.6,1.3-6.5,4-6.5c2.7,0,3.9,2.9,3.9,6.5
				C258.2,299.4,257,302.2,254.3,302.2z M254.3,291c-1.3,0-1.9,2-1.9,4.7s0.6,4.7,1.9,4.7s1.8-2,1.8-4.7S255.6,291,254.3,291z"/>
			<path class="st5" d="M263.2,302.2c-2.7,0-3.9-2.9-3.9-6.5c0-3.6,1.3-6.5,4-6.5c2.7,0,3.9,2.9,3.9,6.5
				C267.2,299.4,265.9,302.2,263.2,302.2z M263.3,291c-1.3,0-1.9,2-1.9,4.7s0.6,4.7,1.9,4.7s1.8-2,1.8-4.7S264.6,291,263.3,291z"/>
			<path class="st5" d="M272.2,302.2c-2.7,0-3.9-2.9-3.9-6.5c0-3.6,1.3-6.5,4-6.5c2.7,0,3.9,2.9,3.9,6.5
				C276.2,299.4,274.9,302.2,272.2,302.2z M272.2,291c-1.3,0-1.9,2-1.9,4.7s0.6,4.7,1.9,4.7s1.8-2,1.8-4.7S273.5,291,272.2,291z"/>
			<path class="st5" d="M211.6,325.6c-2.8-2.6-4-6-4-9.2c0-3.3,1.2-6.7,4-9.2l0.8,0.8c-2.4,2.1-3.5,5.3-3.5,8.4
				c0,3.1,1.1,6.3,3.5,8.4L211.6,325.6z"/>
			<path class="st5" d="M215.6,314.1c1.9,0.1,3.1,1.5,3.1,3.5c0,2.1-1.3,3.8-3.5,3.8c-0.9,0-1.6-0.2-2.5-0.5l0.5-1.2
				c0.7,0.3,1.4,0.5,2,0.5c1.5,0,2.2-1.1,2.2-2.6c0-1.6-0.9-2.4-2.5-2.4c-0.4,0-0.8,0.1-1.2,0.2l-0.1-0.2l3.2-5.1h-3.9v-1.3h6
				l0.1,0.2L215.6,314.1z"/>
			<path class="st5" d="M223.6,321.4c-2.5,0-3.6-2.9-3.6-6.4c0-3.5,1.2-6.4,3.7-6.4c2.5,0,3.6,3,3.6,6.4
				C227.2,318.5,226.1,321.4,223.6,321.4z M223.6,309.8c-1.5,0-2.2,2.3-2.2,5.2c0,2.9,0.7,5.2,2.2,5.2s2.2-2.3,2.2-5.2
				C225.8,312.1,225.1,309.8,223.6,309.8z"/>
			<path class="st5" d="M232,321.4c-2.5,0-3.6-2.9-3.6-6.4c0-3.5,1.2-6.4,3.7-6.4c2.5,0,3.6,3,3.6,6.4
				C235.7,318.5,234.5,321.4,232,321.4z M232.1,309.8c-1.5,0-2.2,2.3-2.2,5.2c0,2.9,0.7,5.2,2.2,5.2s2.2-2.3,2.2-5.2
				C234.2,312.1,233.5,309.8,232.1,309.8z"/>
			<path class="st5" d="M240.5,321.4c-2.5,0-3.6-2.9-3.6-6.4c0-3.5,1.2-6.4,3.7-6.4c2.5,0,3.6,3,3.6,6.4
				C244.1,318.5,242.9,321.4,240.5,321.4z M240.5,309.8c-1.5,0-2.2,2.3-2.2,5.2c0,2.9,0.7,5.2,2.2,5.2s2.2-2.3,2.2-5.2
				C242.7,312.1,242,309.8,240.5,309.8z"/>
			<path class="st5" d="M257.4,321.2v-5.9c0-0.9-0.3-1.3-1.1-1.3c-0.7,0-1.4,0.5-1.9,1.2v6h-1.4v-5.9c0-0.9-0.3-1.3-1.1-1.3
				c-0.8,0-1.4,0.5-1.9,1.2v6h-1.4V313h1.3v1.2c0.6-0.8,1.5-1.4,2.5-1.4c1.1,0,1.6,0.6,1.8,1.5c0.6-0.9,1.6-1.5,2.6-1.5
				c1.4,0,2,1,2,2.4v6L257.4,321.2L257.4,321.2z"/>
			<path class="st5" d="M260,325.6l-0.8-0.9c2.4-2.1,3.5-5.3,3.5-8.4c0-3.1-1.1-6.3-3.5-8.4l0.8-0.8c2.8,2.6,4,6,4,9.2
				C264,319.6,262.8,323,260,325.6z"/>
		</g>
		<polygon class="st6" points="193.1,298.2 193.1,305.2 187,301.7 181,298.2 187,294.7 193.1,291.2 		"/>
	</g>
</g>
<g id="map-gastlosen">
	<g>
		<g>
			<path class="st4" d="M187,263.6c-4.1,0-7.5-3.4-7.5-7.5c0-4.1,3.4-7.5,7.5-7.5c4.2,0,7.5,3.4,7.5,7.5
				C194.6,260.2,191.2,263.6,187,263.6z"/>
			<path class="st5" d="M187,249c3.9,0,7,3.2,7,7c0,3.9-3.2,7-7,7c-3.9,0-7-3.2-7-7C180,252.2,183.2,249,187,249 M187,248
				c-4.4,0-8,3.6-8,8c0,4.4,3.6,8,8,8c4.4,0,8-3.6,8-8C195.1,251.6,191.5,248,187,248L187,248z"/>
		</g>
		<path class="st6" d="M252.9,232.2c0,1.3-1.5,2.4-3.3,2.4H165c-1.8,0-3.3-1.1-3.3-2.4v-39.4c0-1.3,1.5-2.4,3.3-2.4h84.6
			c1.8,0,3.3,1.1,3.3,2.4V232.2z"/>
		<g>
			<path class="st5" d="M164.8,209.5v-13.9h2.1v11.9h4.4v2H164.8z"/>
			<path class="st5" d="M178.3,205.9h-4.6c0.1,1.3,0.7,2.2,2.1,2.2c0.6,0,1.2-0.2,1.9-0.4l0.3,1.5c-0.9,0.3-1.6,0.5-2.4,0.5
				c-2.5,0-3.8-1.7-3.8-4.4c0-2.4,1.2-4.4,3.5-4.4c2,0,3.1,1.8,3.1,4.1C178.4,205.2,178.4,205.6,178.3,205.9z M176.6,204.6
				c0-1.3-0.5-2.2-1.4-2.2c-0.8,0-1.4,0.8-1.5,2.2H176.6z"/>
			<path class="st5" d="M181.7,209.6c-1,0-1.9-0.3-2.8-0.9l0.7-1.5c0.7,0.5,1.4,0.8,2,0.8c0.6,0,1-0.3,1-0.9c0-1.3-3.3-1.4-3.3-3.8
				c0-1.4,1.1-2.5,2.7-2.5c0.9,0,1.7,0.3,2.4,0.7l-0.7,1.5c-0.6-0.4-1.1-0.6-1.7-0.6c-0.6,0-0.9,0.3-0.9,0.8c0,1.2,3.4,1.3,3.4,3.8
				C184.4,208.5,183.3,209.6,181.7,209.6z"/>
			<path class="st5" d="M197.8,201.8v6.7c-1,0.7-2.3,1.1-3.7,1.1c-3.2,0-5.6-2.7-5.6-7.1c0-4.4,2.5-7.2,5.7-7.2
				c1.5,0,2.6,0.5,3.5,1.2l-0.9,1.7c-0.8-0.6-1.6-0.9-2.5-0.9c-2.1,0-3.5,2-3.5,5.2c0,3.4,1.5,5.3,3.5,5.3c0.7,0,1.1-0.1,1.6-0.4
				v-3.6h-2.2v-1.9L197.8,201.8L197.8,201.8z"/>
			<path class="st5" d="M203.3,209.5v-0.8c-0.5,0.6-1.2,1-2,1c-1.3,0-2.4-1-2.4-2.7c0-1.5,1-2.7,2.5-2.7c0.8,0,1.3,0.2,1.8,0.5v-0.8
				c0-1-0.5-1.4-1.5-1.4c-0.6,0-1.2,0.1-1.8,0.3l-0.2-1.6c0.7-0.2,1.6-0.4,2.3-0.4c2.1,0,3.1,0.9,3.1,3.1v5.6H203.3z M203.2,205.9
				c-0.4-0.3-0.7-0.4-1.2-0.4c-0.7,0-1.2,0.4-1.2,1.4c0,0.9,0.5,1.4,1.2,1.4c0.6,0,0.9-0.3,1.2-0.6V205.9z"/>
			<path class="st5" d="M208.8,209.6c-1,0-1.9-0.3-2.8-0.9l0.7-1.5c0.7,0.5,1.4,0.8,2,0.8c0.6,0,1-0.3,1-0.9c0-1.3-3.3-1.4-3.3-3.8
				c0-1.4,1.1-2.5,2.7-2.5c0.9,0,1.7,0.3,2.4,0.7l-0.7,1.5c-0.6-0.4-1.1-0.6-1.7-0.6c-0.6,0-0.9,0.3-0.9,0.8c0,1.2,3.4,1.3,3.4,3.8
				C211.5,208.5,210.4,209.6,208.8,209.6z"/>
			<path class="st5" d="M215,202.7v4.3c0,0.7,0.3,0.9,0.8,0.9c0.2,0,0.4,0,0.7-0.1l0.2,1.6c-0.5,0.1-1,0.2-1.5,0.2
				c-1.4,0-2.2-0.7-2.2-2.4v-4.5h-1.2V202l1.2-1.1v-1.2l2-1.3v2.6h1.8v1.7L215,202.7L215,202.7z"/>
			<path class="st5" d="M217.8,209.5v-13.9h2v13.9H217.8z"/>
			<path class="st5" d="M224.6,209.6c-2.2,0-3.5-1.8-3.5-4.4c0-2.4,1.3-4.4,3.5-4.4c2.2,0,3.5,1.8,3.5,4.4
				C228.1,207.7,226.8,209.6,224.6,209.6z M224.5,202.4c-1,0-1.6,1.2-1.6,2.8c0,1.7,0.6,2.8,1.6,2.8c1,0,1.6-1.2,1.6-2.8
				C226.1,203.5,225.6,202.4,224.5,202.4z"/>
			<path class="st5" d="M231.4,209.6c-1,0-1.9-0.3-2.8-0.9l0.7-1.5c0.7,0.5,1.4,0.8,2,0.8c0.6,0,1-0.3,1-0.9c0-1.3-3.3-1.4-3.3-3.8
				c0-1.4,1.1-2.5,2.7-2.5c0.9,0,1.7,0.3,2.4,0.7l-0.7,1.5c-0.6-0.4-1.1-0.6-1.7-0.6c-0.6,0-0.9,0.3-0.9,0.8c0,1.2,3.4,1.3,3.4,3.8
				C234.2,208.5,233,209.6,231.4,209.6z"/>
			<path class="st5" d="M241.4,205.9h-4.6c0.1,1.3,0.7,2.2,2.1,2.2c0.6,0,1.2-0.2,1.9-0.4l0.3,1.5c-0.9,0.3-1.6,0.5-2.4,0.5
				c-2.5,0-3.8-1.7-3.8-4.4c0-2.4,1.2-4.4,3.5-4.4c2,0,3.1,1.8,3.1,4.1C241.5,205.2,241.5,205.6,241.4,205.9z M239.7,204.6
				c0-1.3-0.5-2.2-1.4-2.2c-0.8,0-1.4,0.8-1.5,2.2H239.7z"/>
			<path class="st5" d="M247.2,209.5v-5.8c0-0.8-0.3-1.1-1-1.1c-0.6,0-1.2,0.4-1.6,0.9v6h-2V201h1.9v1.3c0.7-0.9,1.6-1.5,2.5-1.5
				c1.4,0,2.1,1,2.1,2.4v6.2L247.2,209.5L247.2,209.5z"/>
			<path class="st5" d="M186.1,233c-2.8-2.6-4-6-4-9.2c0-3.3,1.2-6.7,4-9.2l0.8,0.8c-2.4,2.1-3.5,5.3-3.5,8.4c0,3.1,1.1,6.3,3.5,8.4
				L186.1,233z"/>
			<path class="st5" d="M189,228.6v-10.8l-1.6,0.7l-0.4-1.3l3-1.3h0.3v12.6H189z"/>
			<path class="st5" d="M194.3,228.9l-0.7-0.9c2.1-1.5,3.3-3.2,4-4.9c-0.5,0.7-1.1,1-1.9,1c-1.8,0-2.9-1.7-2.9-3.8
				c0-2.3,1.2-4.2,3.2-4.2c2,0,3.2,1.7,3.2,4.4C199.2,223.4,197.8,226.6,194.3,228.9z M195.9,217.2c-1.2,0-1.9,1.3-1.9,2.8
				c0,1.6,0.6,2.9,1.8,2.9c1.3,0,2-1.2,2-3C197.8,218.5,197.1,217.2,195.9,217.2z"/>
			<path class="st5" d="M199.8,228.6l-0.1-0.2c1.5-2.3,2.6-4.3,3.3-5.6s1.3-2.4,1.3-3.6c0-1.2-0.6-1.9-1.8-1.9
				c-0.7,0-1.4,0.3-2.1,0.8l-0.6-1.1c0.8-0.6,1.7-1,2.7-1c1.9,0,3.1,1.2,3.1,3.1c0,1.4-0.5,2.6-1.5,4.2c-0.6,1.1-1.5,2.6-2.4,4.1
				h3.9v1.3L199.8,228.6L199.8,228.6z"/>
			<path class="st5" d="M209,228.6v-10.8l-1.6,0.7l-0.4-1.3l3-1.3h0.3v12.6H209z"/>
			<path class="st5" d="M224.8,228.6v-5.9c0-0.9-0.3-1.3-1.1-1.3c-0.7,0-1.4,0.5-1.9,1.2v6h-1.4v-5.9c0-0.9-0.3-1.3-1.1-1.3
				c-0.8,0-1.4,0.5-1.9,1.2v6h-1.4v-8.2h1.3v1.3c0.6-0.8,1.5-1.4,2.5-1.4c1.1,0,1.6,0.6,1.8,1.5c0.6-0.9,1.6-1.5,2.6-1.5
				c1.4,0,2,1,2,2.4v6H224.8z"/>
			<path class="st5" d="M227.4,233l-0.8-0.9c2.4-2.1,3.5-5.3,3.5-8.4c0-3.1-1.1-6.3-3.5-8.4l0.8-0.8c2.8,2.6,4,6,4,9.2
				C231.4,227,230.2,230.4,227.4,233z"/>
		</g>
		<polygon class="st6" points="187,234.7 194,234.7 190.5,240.7 187,246.8 183.5,240.7 180,234.7 		"/>
	</g>
</g>
<path class="st7" d="M88.3-68.2H-0.4c-2.9,0-5.2-2.3-5.2-5.2v-40.8c0-2.9,2.3-5.2,5.2-5.2h88.7c2.9,0,5.2,2.3,5.2,5.2v40.8
	C93.5-70.5,91.2-68.2,88.3-68.2z"/>
<g>
	
		<image style="overflow:visible;opacity:0.3;" width="172" height="113" xlink:href="89430B0FCAFE2ABA.png"  transform="matrix(1 0 0 1 1.737 95.1787)">
	</image>
	<g>
		<path class="st5" d="M142,139.8l-10.2-5.9c-0.1-0.1-0.2-0.1-0.3-0.1v-12.5c0-2.9-2.3-5.2-5.2-5.2H37.5c-2.9,0-5.2,2.3-5.2,5.2
			v40.8c0,2.9,2.3,5.2,5.2,5.2h88.7c2.9,0,5.2-2.3,5.2-5.2V149c0.1,0,0.2-0.1,0.3-0.1l10.2-5.9C143.1,142.2,143.1,140.5,142,139.8z"
			/>
		<path class="st8" d="M142,139.8l-10.2-5.9c-0.1-0.1-0.2-0.1-0.3-0.1v-12.5c0-2.9-2.3-5.2-5.2-5.2H37.5c-2.9,0-5.2,2.3-5.2,5.2
			v40.8c0,2.9,2.3,5.2,5.2,5.2h88.7c2.9,0,5.2-2.3,5.2-5.2V149c0.1,0,0.2-0.1,0.3-0.1l10.2-5.9C143.1,142.2,143.1,140.5,142,139.8z"
			/>
	</g>
</g>
<rect x="38.4" y="126.8" class="st2" width="85.5" height="33.1"/>
<text transform="matrix(1 0 0 1 40.3311 137.5349)"><tspan x="0" y="0" class="st9 st10 st11">Le Chasseral</tspan><tspan x="12.5" y="18" class="st9 st10 st11">(1600 m)</tspan></text>
<rect x="111.5" y="-66.6" class="st2" width="85.5" height="33.1"/>
<text transform="matrix(1 0 0 1 113.4573 -55.9157)"><tspan x="0" y="0" class="st9 st10 st11">Le Chasseral</tspan><tspan x="12.5" y="18" class="st9 st10 st11">(1600 m)</tspan></text>
<polygon class="st7" points="149.9,-98.3 134.4,-107.2 134.4,-89.3 "/>
</svg>
